NotoSansMath-Regular.ufo
<glyph name="parenleft" format="2">
  <advance width="328"/>
  <unicode hex="0028"/>
  <anchor x="169" y="313" name="center"/>
  <outline>
    <contour>
      <point x="215" y="-158" type="curve"/>
      <point x="297" y="-158" type="line"/>
      <point x="187" y="-23"/>
      <point x="129" y="142"/>
      <point x="129" y="310" type="curve" smooth="yes"/>
      <point x="129" y="481"/>
      <point x="186" y="649"/>
      <point x="298" y="784" type="curve"/>
      <point x="215" y="784" type="line"/>
      <point x="95" y="654"/>
      <point x="40" y="485"/>
      <point x="40" y="309" type="curve" smooth="yes"/>
      <point x="40" y="135"/>
      <point x="95" y="-32"/>
    </contour>
  </outline>
</glyph>
<glyph name="parenright" format="2">
  <advance width="328"/>
  <unicode hex="0029"/>
  <anchor x="159" y="313" name="center"/>
  <outline>
    <contour>
      <point x="31" y="-158" type="curve"/>
      <point x="113" y="-158" type="line"/>
      <point x="233" y="-32"/>
      <point x="288" y="135"/>
      <point x="288" y="309" type="curve" smooth="yes"/>
      <point x="288" y="485"/>
      <point x="233" y="654"/>
      <point x="113" y="784" type="curve"/>
      <point x="30" y="784" type="line"/>
      <point x="142" y="649"/>
      <point x="199" y="481"/>
      <point x="199" y="310" type="curve" smooth="yes"/>
      <point x="199" y="142"/>
      <point x="141" y="-23"/>
    </contour>
  </outline>
</glyph>
<glyph name="slash" format="2">
  <advance width="457"/>
  <unicode hex="002F"/>
  <anchor x="186" y="357" name="center"/>
  <outline>
    <contour>
      <point x="10" y="-158" type="line"/>
      <point x="96" y="-158" type="line"/>
      <point x="447" y="784" type="line"/>
      <point x="361" y="784" type="line"/>
    </contour>
  </outline>
</glyph>
<glyph name="one" format="2">
  <advance width="572"/>
  <unicode hex="0031"/>
  <unicode hex="1D7E3"/>
  <anchor x="222" y="357" name="center"/>
  <outline>
    <contour>
      <point x="269" y="0" type="line"/>
      <point x="355" y="0" type="line"/>
      <point x="355" y="714" type="line"/>
      <point x="282" y="714" type="line"/>
      <point x="89" y="564" type="line"/>
      <point x="135" y="505" type="line"/>
      <point x="211" y="567" type="line" smooth="yes"/>
      <point x="237" y="589"/>
      <point x="252" y="602"/>
      <point x="273" y="622" type="curve"/>
      <point x="270" y="584"/>
      <point x="269" y="556"/>
      <point x="269" y="499" type="curve" smooth="yes"/>
    </contour>
  </outline>
</glyph>
<glyph name="E" format="2">
  <advance width="556"/>
  <unicode hex="0045"/>
  <unicode hex="1D5A4"/>
  <anchor x="300" y="0" name="bottom"/>
  <anchor x="296" y="357" name="center"/>
  <anchor x="305" y="0" name="math.ta"/>
  <anchor x="305" y="714" name="top"/>
  <anchor x="536" y="714" name="topright"/>
  <outline>
    <contour>
      <point x="97" y="0" type="line"/>
      <point x="496" y="0" type="line"/>
      <point x="496" y="79" type="line"/>
      <point x="187" y="79" type="line"/>
      <point x="187" y="334" type="line"/>
      <point x="478" y="334" type="line"/>
      <point x="478" y="412" type="line"/>
      <point x="187" y="412" type="line"/>
      <point x="187" y="635" type="line"/>
      <point x="496" y="635" type="line"/>
      <point x="496" y="714" type="line"/>
      <point x="97" y="714" type="line"/>
    </contour>
  </outline>
</glyph>
<glyph name="V" format="2">
  <advance width="600"/>
  <unicode hex="0056"/>
  <unicode hex="1D5B5"/>
  <anchor x="299" y="0" name="bottom"/>
  <anchor x="300" y="357" name="center"/>
  <anchor x="303" y="0" name="math.ta"/>
  <anchor x="303" y="714" name="top"/>
  <anchor x="580" y="714" name="topright"/>
  <outline>
    <contour>
      <point x="255" y="0" type="line"/>
      <point x="345" y="0" type="line"/>
      <point x="600" y="714" type="line"/>
      <point x="505" y="714" type="line"/>
      <point x="345" y="258" type="line" smooth="yes"/>
      <point x="324" y="198"/>
      <point x="309" y="147"/>
      <point x="300" y="100" type="curve"/>
      <point x="290" y="147"/>
      <point x="276" y="197"/>
      <point x="255" y="256" type="curve" smooth="yes"/>
      <point x="94" y="714" type="line"/>
      <point x="0" y="714" type="line"/>
    </contour>
  </outline>
</glyph>
<glyph name="Z" format="2">
  <advance width="572"/>
  <unicode hex="005A"/>
  <unicode hex="1D5B9"/>
  <anchor x="297" y="0" name="bottom"/>
  <anchor x="285" y="357" name="center"/>
  <anchor x="290" y="0" name="math.ta"/>
  <anchor x="290" y="714" name="top"/>
  <anchor x="552" y="714" name="topright"/>
  <outline>
    <contour>
      <point x="38" y="0" type="line"/>
      <point x="533" y="0" type="line"/>
      <point x="533" y="80" type="line"/>
      <point x="147" y="80" type="line"/>
      <point x="523" y="646" type="line"/>
      <point x="523" y="714" type="line"/>
      <point x="50" y="714" type="line"/>
      <point x="50" y="634" type="line"/>
      <point x="414" y="634" type="line"/>
      <point x="38" y="68" type="line"/>
    </contour>
  </outline>
</glyph>
<glyph name="bracketleft" format="2">
  <advance width="329"/>
  <unicode hex="005B"/>
  <anchor x="192" y="313" name="center"/>
  <outline>
    <contour>
      <point x="80" y="-158" type="line"/>
      <point x="304" y="-158" type="line"/>
      <point x="304" y="-86" type="line"/>
      <point x="166" y="-86" type="line"/>
      <point x="166" y="712" type="line"/>
      <point x="304" y="712" type="line"/>
      <point x="304" y="784" type="line"/>
      <point x="80" y="784" type="line"/>
    </contour>
  </outline>
</glyph>
<glyph name="backslash" format="2">
  <advance width="457"/>
  <unicode hex="005C"/>
  <anchor x="186" y="357" name="center"/>
  <outline>
    <contour>
      <point x="361" y="-158" type="line"/>
      <point x="447" y="-158" type="line"/>
      <point x="96" y="784" type="line"/>
      <point x="10" y="784" type="line"/>
    </contour>
  </outline>
</glyph>
<glyph name="asciicircum" format="2">
  <advance width="572"/>
  <unicode hex="005E"/>
  <anchor x="286" y="493" name="center"/>
  <outline>
    <contour>
      <point x="38" y="267" type="line"/>
      <point x="116" y="267" type="line"/>
      <point x="276" y="626" type="line"/>
      <point x="456" y="267" type="line"/>
      <point x="534" y="267" type="line"/>
      <point x="300" y="719" type="line"/>
      <point x="250" y="719" type="line"/>
    </contour>
  </outline>
</glyph>
<glyph name="grave" format="2">
  <advance width="281"/>
  <unicode hex="0060"/>
  <outline>
    <contour>
      <point x="145" y="165" type="curve"/>
      <point x="40" y="165" type="line"/>
      <point x="40" y="155" type="line"/>
      <point x="63" y="118"/>
      <point x="136" y="41"/>
      <point x="182" y="5" type="curve"/>
      <point x="241" y="5" type="line"/>
      <point x="241" y="17" type="line"/>
      <point x="210" y="54"/>
      <point x="167" y="120"/>
    </contour>
  </outline>
</glyph>
<glyph name="jdotless" format="2">
  <advance width="333"/>
  <unicode hex="0237"/>
  <anchor x="97" y="-240" name="bottom"/>
  <anchor x="134" y="148" name="center"/>
  <anchor x="204" y="0" name="math.ta"/>
  <anchor x="204" y="536" name="top"/>
  <anchor x="313" y="737" name="topright"/>
  <outline>
    <contour>
      <point x="97" y="-240" type="curve" smooth="yes"/>
      <point x="202" y="-240"/>
      <point x="248" y="-180"/>
      <point x="248" y="-80" type="curve" smooth="yes"/>
      <point x="248" y="536" type="line"/>
      <point x="160" y="536" type="line"/>
      <point x="160" y="-83" type="line" smooth="yes"/>
      <point x="160" y="-148"/>
      <point x="129" y="-167"/>
      <point x="86" y="-167" type="curve" smooth="yes"/>
      <point x="60" y="-167"/>
      <point x="40" y="-163"/>
      <point x="20" y="-157" type="curve"/>
      <point x="20" y="-228" type="line"/>
      <point x="38" y="-235"/>
      <point x="63" y="-240"/>
    </contour>
  </outline>
</glyph>
<glyph name="circumflex" format="2">
  <advance width="418"/>
  <unicode hex="02C6"/>
  <outline>
    <contour>
      <point x="253" y="168" type="curve"/>
      <point x="163" y="168" type="line"/>
      <point x="137" y="123"/>
      <point x="77" y="58"/>
      <point x="40" y="19" type="curve"/>
      <point x="40" y="8" type="line"/>
      <point x="100" y="8" type="line"/>
      <point x="135" y="30"/>
      <point x="171" y="62"/>
      <point x="207" y="98" type="curve"/>
      <point x="243" y="62"/>
      <point x="281" y="29"/>
      <point x="316" y="8" type="curve"/>
      <point x="378" y="8" type="line"/>
      <point x="378" y="19" type="line"/>
      <point x="340" y="57"/>
      <point x="277" y="123"/>
    </contour>
  </outline>
</glyph>
<glyph name="uptackmod" format="2">
  <advance width="270"/>
  <unicode hex="02D4"/>
  <anchor x="135" y="312" name="center"/>
  <outline>
    <contour>
      <point x="35" y="227" type="line"/>
      <point x="235" y="227" type="line"/>
      <point x="235" y="277" type="line"/>
      <point x="162" y="277" type="line"/>
      <point x="162" y="397" type="line"/>
      <point x="108" y="397" type="line"/>
      <point x="108" y="277" type="line"/>
      <point x="35" y="277" type="line"/>
    </contour>
  </outline>
</glyph>
<glyph name="ring" format="2">
  <advance width="300"/>
  <unicode hex="02DA"/>
  <outline>
    <contour>
      <point x="149" y="8" type="curve" smooth="yes"/>
      <point x="213" y="8"/>
      <point x="260" y="47"/>
      <point x="260" y="115" type="curve" smooth="yes"/>
      <point x="260" y="180"/>
      <point x="212" y="219"/>
      <point x="149" y="219" type="curve" smooth="yes"/>
      <point x="84" y="219"/>
      <point x="40" y="180"/>
      <point x="40" y="114" type="curve" smooth="yes"/>
      <point x="40" y="47"/>
      <point x="84" y="8"/>
    </contour>
    <contour>
      <point x="149" y="58" type="curve" smooth="yes"/>
      <point x="113" y="58"/>
      <point x="93" y="79"/>
      <point x="93" y="114" type="curve" smooth="yes"/>
      <point x="93" y="149"/>
      <point x="117" y="170"/>
      <point x="149" y="170" type="curve" smooth="yes"/>
      <point x="181" y="170"/>
      <point x="205" y="149"/>
      <point x="205" y="114" type="curve" smooth="yes"/>
      <point x="205" y="79"/>
      <point x="182" y="58"/>
    </contour>
  </outline>
</glyph>
<glyph name="gravecomb" format="2">
  <unicode hex="0300"/>
  <anchor x="101" y="536" name="_top"/>
  <anchor x="101" y="0" name="math.ta"/>
  <anchor x="101" y="766" name="top"/>
  <outline>
    <contour>
      <point x="47" y="606" type="curve"/>
      <point x="106" y="606" type="line"/>
      <point x="106" y="618" type="line"/>
      <point x="75" y="655"/>
      <point x="32" y="721"/>
      <point x="10" y="766" type="curve"/>
      <point x="-95" y="766" type="line"/>
      <point x="-95" y="756" type="line"/>
      <point x="-72" y="719"/>
      <point x="1" y="642"/>
    </contour>
  </outline>
</glyph>
<glyph name="acutecomb" format="2">
  <unicode hex="0301"/>
  <anchor x="93" y="536" name="_top"/>
  <anchor x="93" y="0" name="math.ta"/>
  <anchor x="93" y="765" name="top"/>
  <outline>
    <contour>
      <point x="241" y="756" type="curve"/>
      <point x="241" y="766" type="line"/>
      <point x="135" y="766" type="line"/>
      <point x="112" y="721"/>
      <point x="69" y="655"/>
      <point x="40" y="618" type="curve"/>
      <point x="40" y="606" type="line"/>
      <point x="98" y="606" type="line"/>
      <point x="145" y="642"/>
      <point x="216" y="719"/>
    </contour>
  </outline>
</glyph>
<glyph name="brevecomb" format="2">
  <unicode hex="0306"/>
  <anchor x="196" y="536" name="_top"/>
  <anchor x="195" y="0" name="math.ta"/>
  <anchor x="196" y="737" name="top"/>
  <outline>
    <contour>
      <point x="351" y="740" type="curve"/>
      <point x="296" y="740" type="line"/>
      <point x="289" y="688"/>
      <point x="247" y="677"/>
      <point x="195" y="677" type="curve" smooth="yes"/>
      <point x="134" y="677"/>
      <point x="100" y="685"/>
      <point x="94" y="740" type="curve"/>
      <point x="40" y="740" type="line"/>
      <point x="45" y="658"/>
      <point x="94" y="606"/>
      <point x="193" y="606" type="curve" smooth="yes"/>
      <point x="289" y="606"/>
      <point x="344" y="660"/>
    </contour>
  </outline>
</glyph>
<glyph name="dotaccentcomb" format="2">
  <unicode hex="0307"/>
  <anchor x="51" y="536" name="_top"/>
  <anchor x="51" y="0" name="math.ta"/>
  <anchor x="51" y="737" name="top"/>
  <outline>
    <contour>
      <point x="52" y="625" type="curve" smooth="yes"/>
      <point x="79" y="625"/>
      <point x="103" y="643"/>
      <point x="103" y="681" type="curve" smooth="yes"/>
      <point x="103" y="720"/>
      <point x="79" y="737"/>
      <point x="52" y="737" type="curve" smooth="yes"/>
      <point x="23" y="737"/>
      <point x="0" y="720"/>
      <point x="0" y="681" type="curve" smooth="yes"/>
      <point x="0" y="643"/>
      <point x="23" y="625"/>
    </contour>
  </outline>
</glyph>
<glyph name="breveinvertedcomb" format="2">
  <unicode hex="0311"/>
  <anchor x="180" y="536" name="_top"/>
  <anchor x="180" y="0" name="math.ta"/>
  <anchor x="180" y="747" name="top"/>
  <outline>
    <contour>
      <point x="24" y="613" type="curve"/>
      <point x="79" y="613" type="line"/>
      <point x="86" y="665"/>
      <point x="128" y="676"/>
      <point x="180" y="676" type="curve" smooth="yes"/>
      <point x="241" y="676"/>
      <point x="275" y="668"/>
      <point x="281" y="613" type="curve"/>
      <point x="335" y="613" type="line"/>
      <point x="330" y="695"/>
      <point x="281" y="747"/>
      <point x="182" y="747" type="curve" smooth="yes"/>
      <point x="86" y="747"/>
      <point x="31" y="693"/>
    </contour>
  </outline>
</glyph>
<glyph name="leftangleabovecomb" format="2">
  <advance width="313"/>
  <unicode hex="031A"/>
  <outline>
    <contour>
      <point x="15" y="760" type="line"/>
      <point x="15" y="700" type="line"/>
      <point x="205" y="700" type="line"/>
      <point x="205" y="520" type="line"/>
      <point x="271" y="520" type="line"/>
      <point x="271" y="760" type="line"/>
    </contour>
  </outline>
</glyph>
<glyph name="dotbelowcomb" format="2">
  <unicode hex="0323"/>
  <anchor x="77" y="0" name="_bottom"/>
  <anchor x="77" y="-176" name="bottom"/>
  <anchor x="77" y="0" name="math.ta"/>
  <anchor x="77" y="50" name="top"/>
  <outline>
    <contour>
      <point x="77" y="-176" type="curve" smooth="yes"/>
      <point x="105" y="-176"/>
      <point x="129" y="-158"/>
      <point x="129" y="-120" type="curve" smooth="yes"/>
      <point x="129" y="-81"/>
      <point x="105" y="-64"/>
      <point x="77" y="-64" type="curve" smooth="yes"/>
      <point x="49" y="-64"/>
      <point x="25" y="-81"/>
      <point x="25" y="-120" type="curve" smooth="yes"/>
      <point x="25" y="-158"/>
      <point x="49" y="-176"/>
    </contour>
  </outline>
</glyph>
<glyph name="commaaccentcomb" format="2">
  <unicode hex="0326"/>
  <anchor x="104" y="0" name="_bottom"/>
  <anchor x="104" y="-221" name="bottom"/>
  <anchor x="116" y="0" name="math.ta"/>
  <anchor x="116" y="-111" name="top"/>
  <outline>
    <contour>
      <point x="168" y="-70" type="curve"/>
      <point x="168" y="-61" type="line"/>
      <point x="81" y="-61" type="line"/>
      <point x="76" y="-104"/>
      <point x="55" y="-176"/>
      <point x="40" y="-209" type="curve"/>
      <point x="40" y="-221" type="line"/>
      <point x="88" y="-221" type="line"/>
      <point x="124" y="-178"/>
      <point x="159" y="-106"/>
    </contour>
  </outline>
</glyph>
<glyph name="cedillacomb" format="2">
  <unicode hex="0327"/>
  <anchor x="112" y="0" name="_bottom"/>
  <anchor x="114" y="-240" name="bottom"/>
  <anchor x="112" y="0" name="math.ta"/>
  <anchor x="112" y="50" name="top"/>
  <outline>
    <contour>
      <point x="211" y="-139" type="curve" smooth="yes"/>
      <point x="211" y="-88"/>
      <point x="172" y="-64"/>
      <point x="124" y="-53" type="curve"/>
      <point x="150" y="0" type="line"/>
      <point x="92" y="0" type="line"/>
      <point x="49" y="-86" type="line"/>
      <point x="100" y="-93"/>
      <point x="140" y="-106"/>
      <point x="140" y="-141" type="curve" smooth="yes"/>
      <point x="140" y="-174"/>
      <point x="114" y="-185"/>
      <point x="66" y="-185" type="curve" smooth="yes"/>
      <point x="47" y="-185"/>
      <point x="25" y="-183"/>
      <point x="13" y="-180" type="curve"/>
      <point x="13" y="-235" type="line"/>
      <point x="24" y="-238"/>
      <point x="43" y="-240"/>
      <point x="63" y="-240" type="curve" smooth="yes"/>
      <point x="161" y="-240"/>
      <point x="211" y="-203"/>
    </contour>
  </outline>
</glyph>
<glyph name="caronbelowcomb" format="2">
  <unicode hex="032C"/>
  <anchor x="192" y="0" name="_bottom"/>
  <anchor x="192" y="-199" name="bottom"/>
  <anchor x="192" y="0" name="math.ta"/>
  <anchor x="192" y="50" name="top"/>
  <outline>
    <contour>
      <point x="148" y="-199" type="curve"/>
      <point x="238" y="-199" type="line"/>
      <point x="262" y="-154"/>
      <point x="325" y="-90"/>
      <point x="363" y="-52" type="curve"/>
      <point x="363" y="-39" type="line"/>
      <point x="301" y="-39" type="line"/>
      <point x="266" y="-62"/>
      <point x="228" y="-95"/>
      <point x="192" y="-131" type="curve"/>
      <point x="159" y="-95"/>
      <point x="120" y="-62"/>
      <point x="85" y="-39" type="curve"/>
      <point x="25" y="-39" type="line"/>
      <point x="25" y="-52" type="line"/>
      <point x="61" y="-89"/>
      <point x="122" y="-154"/>
    </contour>
  </outline>
</glyph>
<glyph name="circumflexbelowcomb" format="2">
  <unicode hex="032D"/>
  <anchor x="194" y="0" name="_bottom"/>
  <anchor x="194" y="-200" name="bottom"/>
  <anchor x="194" y="0" name="math.ta"/>
  <anchor x="194" y="50" name="top"/>
  <outline>
    <contour>
      <point x="25" y="-200" type="line"/>
      <point x="85" y="-200" type="line"/>
      <point x="120" y="-178"/>
      <point x="156" y="-146"/>
      <point x="192" y="-110" type="curve"/>
      <point x="228" y="-146"/>
      <point x="266" y="-179"/>
      <point x="301" y="-200" type="curve"/>
      <point x="363" y="-200" type="line"/>
      <point x="363" y="-189" type="line"/>
      <point x="325" y="-151"/>
      <point x="262" y="-85"/>
      <point x="238" y="-40" type="curve"/>
      <point x="148" y="-40" type="line"/>
      <point x="122" y="-85"/>
      <point x="62" y="-150"/>
      <point x="25" y="-189" type="curve"/>
    </contour>
  </outline>
</glyph>
<glyph name="macronbelowcomb" format="2">
  <unicode hex="0331"/>
  <anchor x="174" y="0" name="_bottom"/>
  <anchor x="174" y="-155" name="bottom"/>
  <anchor x="174" y="0" name="math.ta"/>
  <anchor x="174" y="50" name="top"/>
  <outline>
    <contour>
      <point x="25" y="-155" type="line"/>
      <point x="322" y="-155" type="line"/>
      <point x="322" y="-84" type="line"/>
      <point x="25" y="-84" type="line"/>
    </contour>
  </outline>
</glyph>
<glyph name="slashlongcomb" format="2">
  <unicode hex="0338"/>
  <anchor x="214" y="277" name="_center"/>
  <anchor x="214" y="277" name="center"/>
  <anchor x="214" y="-80" name="math.ta"/>
  <outline>
    <contour>
      <point x="0" y="-180" type="line"/>
      <point x="86" y="-180" type="line"/>
      <point x="428" y="734" type="line"/>
      <point x="342" y="734" type="line"/>
    </contour>
  </outline>
</glyph>
<glyph name="bridgeinvertedbelowcomb" format="2">
  <unicode hex="033A"/>
  <anchor x="203" y="0" name="_bottom"/>
  <anchor x="203" y="-218" name="bottom"/>
  <anchor x="203" y="0" name="math.ta"/>
  <anchor x="203" y="50" name="top"/>
  <outline>
    <contour>
      <point x="25" y="-218" type="line"/>
      <point x="381" y="-218" type="line"/>
      <point x="381" y="-48" type="line"/>
      <point x="315" y="-48" type="line"/>
      <point x="315" y="-158" type="line"/>
      <point x="91" y="-158" type="line"/>
      <point x="91" y="-48" type="line"/>
      <point x="25" y="-48" type="line"/>
    </contour>
  </outline>
</glyph>
<glyph name="Pi" format="2">
  <advance width="731"/>
  <unicode hex="03A0"/>
  <anchor x="366" y="0" name="bottom"/>
  <anchor x="365" y="357" name="center"/>
  <anchor x="366" y="0" name="math.ta"/>
  <anchor x="366" y="714" name="top"/>
  <outline>
    <contour>
      <point x="97" y="0" type="line"/>
      <point x="187" y="0" type="line"/>
      <point x="187" y="635" type="line"/>
      <point x="544" y="635" type="line"/>
      <point x="544" y="0" type="line"/>
      <point x="633" y="0" type="line"/>
      <point x="633" y="714" type="line"/>
      <point x="97" y="714" type="line"/>
    </contour>
  </outline>
</glyph>
<glyph name="iota" format="2">
  <advance width="346"/>
  <unicode hex="03B9"/>
  <anchor x="209" y="0" name="bottom"/>
  <anchor x="205" y="263" name="center"/>
  <anchor x="130" y="0" name="math.ta"/>
  <anchor x="130" y="536" name="top"/>
  <outline>
    <contour>
      <point x="234" y="-10" type="curve" smooth="yes"/>
      <point x="269" y="-10"/>
      <point x="309" y="-3"/>
      <point x="328" y="6" type="curve"/>
      <point x="328" y="73" type="line"/>
      <point x="311" y="68"/>
      <point x="275" y="62"/>
      <point x="246" y="62" type="curve" smooth="yes"/>
      <point x="192" y="62"/>
      <point x="169" y="94"/>
      <point x="169" y="158" type="curve" smooth="yes"/>
      <point x="169" y="536" type="line"/>
      <point x="82" y="536" type="line"/>
      <point x="82" y="157" type="line" smooth="yes"/>
      <point x="82" y="26"/>
      <point x="146" y="-10"/>
    </contour>
  </outline>
</glyph>
<glyph name="lambda" format="2">
  <advance width="548"/>
  <unicode hex="03BB"/>
  <anchor x="277" y="0" name="bottom"/>
  <anchor x="274" y="378" name="center"/>
  <anchor x="277" y="0" name="math.ta"/>
  <anchor x="277" y="766" name="top"/>
  <outline>
    <contour>
      <point x="491" y="-10" type="curve" smooth="yes"/>
      <point x="514" y="-10"/>
      <point x="533" y="-5"/>
      <point x="548" y="2" type="curve"/>
      <point x="548" y="67" type="line"/>
      <point x="541" y="65"/>
      <point x="528" y="62"/>
      <point x="518" y="62" type="curve" smooth="yes"/>
      <point x="495" y="62"/>
      <point x="481" y="79"/>
      <point x="468" y="116" type="curve" smooth="yes"/>
      <point x="295" y="598" type="line" smooth="yes"/>
      <point x="254" y="713"/>
      <point x="220" y="766"/>
      <point x="117" y="766" type="curve" smooth="yes"/>
      <point x="93" y="766"/>
      <point x="69" y="762"/>
      <point x="51" y="758" type="curve"/>
      <point x="51" y="687" type="line"/>
      <point x="65" y="690"/>
      <point x="83" y="693"/>
      <point x="107" y="693" type="curve" smooth="yes"/>
      <point x="164" y="693"/>
      <point x="183" y="658"/>
      <point x="204" y="601" type="curve" smooth="yes"/>
      <point x="231" y="526" type="line"/>
      <point x="0" y="0" type="line"/>
      <point x="91" y="0" type="line"/>
      <point x="213" y="281" type="line" smooth="yes"/>
      <point x="235" y="333"/>
      <point x="256" y="388"/>
      <point x="268" y="435" type="curve"/>
      <point x="272" y="435" type="line"/>
      <point x="280" y="396"/>
      <point x="305" y="324"/>
      <point x="322" y="276" type="curve" smooth="yes"/>
      <point x="395" y="71" type="line" smooth="yes"/>
      <point x="416" y="12"/>
      <point x="442" y="-10"/>
    </contour>
  </outline>
</glyph>
<glyph name="chi" format="2">
  <advance width="582"/>
  <unicode hex="03C7"/>
  <anchor x="307" y="-240" name="bottom"/>
  <anchor x="298" y="149" name="center"/>
  <anchor x="307" y="0" name="math.ta"/>
  <anchor x="307" y="536" name="top"/>
  <anchor x="562" y="536" name="topright"/>
  <outline>
    <contour>
      <point x="20" y="-240" type="line"/>
      <point x="114" y="-240" type="line"/>
      <point x="288" y="82" type="line"/>
      <point x="359" y="-104" type="line" smooth="yes"/>
      <point x="391" y="-189"/>
      <point x="424" y="-240"/>
      <point x="514" y="-240" type="curve" smooth="yes"/>
      <point x="542" y="-240"/>
      <point x="561" y="-236"/>
      <point x="576" y="-232" type="curve"/>
      <point x="576" y="-164" type="line"/>
      <point x="564" y="-166"/>
      <point x="548" y="-168"/>
      <point x="531" y="-168" type="curve" smooth="yes"/>
      <point x="482" y="-168"/>
      <point x="463" y="-137"/>
      <point x="439" y="-76" type="curve" smooth="yes"/>
      <point x="346" y="160" type="line"/>
      <point x="556" y="536" type="line"/>
      <point x="462" y="536" type="line"/>
      <point x="309" y="245" type="line"/>
      <point x="241" y="417" type="line" smooth="yes"/>
      <point x="210" y="496"/>
      <point x="187" y="539"/>
      <point x="121" y="539" type="curve" smooth="yes"/>
      <point x="93" y="539"/>
      <point x="73" y="535"/>
      <point x="59" y="531" type="curve"/>
      <point x="59" y="462" type="line"/>
      <point x="68" y="466"/>
      <point x="80" y="468"/>
      <point x="92" y="468" type="curve" smooth="yes"/>
      <point x="126" y="468"/>
      <point x="146" y="436"/>
      <point x="166" y="383" type="curve" smooth="yes"/>
      <point x="248" y="170" type="line"/>
    </contour>
  </outline>
</glyph>
<glyph name="Digamma" format="2">
  <advance width="534"/>
  <unicode hex="03DC"/>
  <anchor x="291" y="357" name="center"/>
  <anchor x="301" y="0" name="math.ta"/>
  <outline>
    <contour>
      <point x="97" y="714" type="line"/>
      <point x="97" y="0" type="line"/>
      <point x="187" y="0" type="line"/>
      <point x="187" y="303" type="line"/>
      <point x="376" y="303" type="line"/>
      <point x="376" y="175" type="line"/>
      <point x="462" y="175" type="line"/>
      <point x="462" y="382" type="line"/>
      <point x="187" y="382" type="line"/>
      <point x="187" y="635" type="line"/>
      <point x="486" y="635" type="line"/>
      <point x="486" y="714" type="line"/>
    </contour>
  </outline>
</glyph>
<glyph name="Be-cy" format="2">
  <advance width="621"/>
  <unicode hex="0411"/>
  <anchor x="312" y="0" name="bottom"/>
  <anchor x="334" y="357" name="center"/>
  <anchor x="312" y="714" name="top"/>
  <outline>
    <contour>
      <point x="97" y="0" type="line"/>
      <point x="292" y="0" type="line" smooth="yes"/>
      <point x="506" y="0"/>
      <point x="571" y="107"/>
      <point x="571" y="220" type="curve" smooth="yes"/>
      <point x="571" y="350"/>
      <point x="493" y="428"/>
      <point x="306" y="428" type="curve" smooth="yes"/>
      <point x="187" y="428" type="line"/>
      <point x="187" y="635" type="line"/>
      <point x="519" y="635" type="line"/>
      <point x="519" y="714" type="line"/>
      <point x="97" y="714" type="line"/>
    </contour>
    <contour>
      <point x="187" y="77" type="line"/>
      <point x="187" y="351" type="line"/>
      <point x="298" y="351" type="line" smooth="yes"/>
      <point x="424" y="351"/>
      <point x="478" y="304"/>
      <point x="478" y="215" type="curve" smooth="yes"/>
      <point x="478" y="123"/>
      <point x="419" y="77"/>
      <point x="286" y="77" type="curve" smooth="yes"/>
    </contour>
  </outline>
</glyph>
<glyph name="Ka-cy" format="2">
  <advance width="619"/>
  <unicode hex="041A"/>
  <anchor x="330" y="0" name="bottom"/>
  <anchor x="358" y="357" name="center"/>
  <anchor x="340" y="714" name="top"/>
  <outline>
    <contour>
      <point x="513" y="0" type="line"/>
      <point x="619" y="0" type="line"/>
      <point x="359" y="390" type="line"/>
      <point x="359" y="373" type="line"/>
      <point x="604" y="714" type="line"/>
      <point x="504" y="714" type="line"/>
      <point x="273" y="386" type="line"/>
      <point x="273" y="361" type="line"/>
    </contour>
    <contour>
      <point x="97" y="0" type="line"/>
      <point x="187" y="0" type="line"/>
      <point x="187" y="714" type="line"/>
      <point x="97" y="714" type="line"/>
    </contour>
    <contour>
      <point x="167" y="333" type="line"/>
      <point x="331" y="333" type="line"/>
      <point x="331" y="412" type="line"/>
      <point x="167" y="412" type="line"/>
    </contour>
  </outline>
</glyph>
<glyph name="U-cy" format="2">
  <advance width="594"/>
  <unicode hex="0423"/>
  <anchor x="288" y="0" name="bottom"/>
  <anchor x="293" y="352" name="center"/>
  <anchor x="315" y="714" name="top"/>
  <outline>
    <contour>
      <point x="154" y="-11" type="curve" smooth="yes"/>
      <point x="255" y="-11"/>
      <point x="305" y="38"/>
      <point x="373" y="198" type="curve" smooth="yes"/>
      <point x="594" y="714" type="line"/>
      <point x="498" y="714" type="line"/>
      <point x="340" y="327" type="line" smooth="yes"/>
      <point x="333" y="309"/>
      <point x="324" y="286"/>
      <point x="318" y="267" type="curve"/>
      <point x="314" y="267" type="line"/>
      <point x="307" y="286"/>
      <point x="298" y="309"/>
      <point x="289" y="327" type="curve" smooth="yes"/>
      <point x="104" y="714" type="line"/>
      <point x="5" y="714" type="line"/>
      <point x="284" y="149" type="line"/>
      <point x="287" y="218" type="line"/>
      <point x="242" y="104"/>
      <point x="208" y="68"/>
      <point x="142" y="68" type="curve" smooth="yes"/>
      <point x="120" y="68"/>
      <point x="102" y="72"/>
      <point x="80" y="80" type="curve"/>
      <point x="80" y="2" type="line"/>
      <point x="102" y="-7"/>
      <point x="125" y="-11"/>
    </contour>
  </outline>
</glyph>
<glyph name="Tse-cy" format="2">
  <advance width="721"/>
  <unicode hex="0426"/>
  <anchor x="364" y="-156" name="bottom"/>
  <anchor x="364" y="263" name="center"/>
  <anchor x="364" y="714" name="top"/>
  <outline>
    <contour>
      <point x="625" y="-156" type="line"/>
      <point x="711" y="-156" type="line"/>
      <point x="711" y="79" type="line"/>
      <point x="631" y="79" type="line"/>
      <point x="631" y="714" type="line"/>
      <point x="541" y="714" type="line"/>
      <point x="541" y="79" type="line"/>
      <point x="187" y="79" type="line"/>
      <point x="187" y="714" type="line"/>
      <point x="97" y="714" type="line"/>
      <point x="97" y="0" type="line"/>
      <point x="625" y="0" type="line"/>
    </contour>
  </outline>
</glyph>
<glyph name="Che-cy" format="2">
  <advance width="696"/>
  <unicode hex="0427"/>
  <anchor x="336" y="0" name="bottom"/>
  <anchor x="336" y="357" name="center"/>
  <anchor x="336" y="714" name="top"/>
  <outline>
    <contour>
      <point x="508" y="0" type="line"/>
      <point x="598" y="0" type="line"/>
      <point x="598" y="714" type="line"/>
      <point x="508" y="714" type="line"/>
      <point x="508" y="337" type="line"/>
      <point x="533" y="388" type="line"/>
      <point x="470" y="359"/>
      <point x="400" y="345"/>
      <point x="329" y="345" type="curve" smooth="yes"/>
      <point x="217" y="345"/>
      <point x="170" y="384"/>
      <point x="170" y="488" type="curve" smooth="yes"/>
      <point x="170" y="714" type="line"/>
      <point x="80" y="714" type="line"/>
      <point x="80" y="474" type="line" smooth="yes"/>
      <point x="80" y="334"/>
      <point x="157" y="266"/>
      <point x="319" y="266" type="curve" smooth="yes"/>
      <point x="392" y="266"/>
      <point x="459" y="278"/>
      <point x="539" y="309" type="curve"/>
      <point x="508" y="340" type="line"/>
    </contour>
  </outline>
</glyph>
<glyph name="Shcha-cy" format="2">
  <advance width="1031"/>
  <unicode hex="0429"/>
  <anchor x="519" y="-156" name="bottom"/>
  <anchor x="519" y="357" name="center"/>
  <anchor x="519" y="714" name="top"/>
  <outline>
    <contour>
      <point x="935" y="-156" type="line"/>
      <point x="1021" y="-156" type="line"/>
      <point x="1021" y="79" type="line"/>
      <point x="941" y="79" type="line"/>
      <point x="941" y="714" type="line"/>
      <point x="851" y="714" type="line"/>
      <point x="851" y="79" type="line"/>
      <point x="564" y="79" type="line"/>
      <point x="564" y="714" type="line"/>
      <point x="474" y="714" type="line"/>
      <point x="474" y="79" type="line"/>
      <point x="187" y="79" type="line"/>
      <point x="187" y="714" type="line"/>
      <point x="97" y="714" type="line"/>
      <point x="97" y="0" type="line"/>
      <point x="935" y="0" type="line"/>
    </contour>
  </outline>
</glyph>
<glyph name="Softsign-cy" format="2">
  <advance width="609"/>
  <unicode hex="042C"/>
  <anchor x="301" y="0" name="bottom"/>
  <anchor x="324" y="357" name="center"/>
  <anchor x="301" y="714" name="top"/>
  <outline>
    <contour>
      <point x="97" y="0" type="line"/>
      <point x="275" y="0" type="line" smooth="yes"/>
      <point x="489" y="0"/>
      <point x="558" y="107"/>
      <point x="558" y="225" type="curve" smooth="yes"/>
      <point x="558" y="359"/>
      <point x="477" y="438"/>
      <point x="289" y="438" type="curve" smooth="yes"/>
      <point x="187" y="438" type="line"/>
      <point x="187" y="714" type="line"/>
      <point x="97" y="714" type="line"/>
    </contour>
    <contour>
      <point x="187" y="77" type="line"/>
      <point x="187" y="361" type="line"/>
      <point x="281" y="361" type="line" smooth="yes"/>
      <point x="408" y="361"/>
      <point x="465" y="313"/>
      <point x="465" y="220" type="curve" smooth="yes"/>
      <point x="465" y="123"/>
      <point x="402" y="77"/>
      <point x="269" y="77" type="curve" smooth="yes"/>
    </contour>
  </outline>
</glyph>
<glyph name="be-cy" format="2">
  <advance width="602"/>
  <unicode hex="0431"/>
  <anchor x="302" y="0" name="bottom"/>
  <anchor x="303" y="377" name="center"/>
  <anchor x="302" y="765" name="top"/>
  <outline>
    <contour>
      <point x="300" y="-10" type="curve" smooth="yes"/>
      <point x="452" y="-10"/>
      <point x="548" y="97"/>
      <point x="548" y="263" type="curve" smooth="yes"/>
      <point x="548" y="430"/>
      <point x="460" y="519"/>
      <point x="324" y="519" type="curve" smooth="yes"/>
      <point x="249" y="519"/>
      <point x="193" y="491"/>
      <point x="154" y="436" type="curve"/>
      <point x="149" y="436" type="line"/>
      <point x="166" y="591"/>
      <point x="208" y="645"/>
      <point x="326" y="663" type="curve" smooth="yes"/>
      <point x="369" y="670"/>
      <point x="432" y="677"/>
      <point x="502" y="684" type="curve"/>
      <point x="494" y="766" type="line"/>
      <point x="435" y="761"/>
      <point x="362" y="752"/>
      <point x="322" y="746" type="curve" smooth="yes"/>
      <point x="135" y="720"/>
      <point x="57" y="600"/>
      <point x="56" y="328" type="curve" smooth="yes"/>
      <point x="55" y="101"/>
      <point x="144" y="-10"/>
    </contour>
    <contour>
      <point x="304" y="63" type="curve" smooth="yes"/>
      <point x="208" y="63"/>
      <point x="151" y="137"/>
      <point x="151" y="265" type="curve" smooth="yes"/>
      <point x="151" y="383"/>
      <point x="203" y="445"/>
      <point x="304" y="445" type="curve" smooth="yes"/>
      <point x="407" y="445"/>
      <point x="457" y="380"/>
      <point x="457" y="262" type="curve" smooth="yes"/>
      <point x="457" y="136"/>
      <point x="400" y="63"/>
    </contour>
  </outline>
</glyph>
<glyph name="de-cy" format="2">
  <advance width="577"/>
  <unicode hex="0434"/>
  <anchor x="297" y="-136" name="bottom"/>
  <anchor x="287" y="175" name="center"/>
  <anchor x="288" y="536" name="top"/>
  <outline>
    <contour>
      <point x="400" y="0" type="line"/>
      <point x="488" y="0" type="line"/>
      <point x="488" y="536" type="line"/>
      <point x="122" y="536" type="line"/>
      <point x="115" y="351"/>
      <point x="110" y="280"/>
      <point x="102" y="214" type="curve" smooth="yes"/>
      <point x="94" y="153"/>
      <point x="80" y="107"/>
      <point x="56" y="63" type="curve"/>
      <point x="147" y="61" type="line"/>
      <point x="166" y="107"/>
      <point x="177" y="156"/>
      <point x="184" y="223" type="curve" smooth="yes"/>
      <point x="192" y="303"/>
      <point x="196" y="377"/>
      <point x="199" y="462" type="curve"/>
      <point x="400" y="462" type="line"/>
    </contour>
    <contour>
      <point x="3" y="-136" type="line"/>
      <point x="88" y="-136" type="line"/>
      <point x="88" y="0" type="line"/>
      <point x="482" y="0" type="line"/>
      <point x="482" y="-136" type="line"/>
      <point x="567" y="-136" type="line"/>
      <point x="567" y="73" type="line"/>
      <point x="3" y="73" type="line"/>
    </contour>
  </outline>
</glyph>
<glyph name="zhe-cy" format="2">
  <advance width="730"/>
  <unicode hex="0436"/>
  <anchor x="365" y="0" name="bottom"/>
  <anchor x="365" y="268" name="center"/>
  <anchor x="365" y="536" name="top"/>
  <outline>
    <contour>
      <point x="621" y="0" type="line"/>
      <point x="722" y="0" type="line"/>
      <point x="537" y="317" type="line"/>
      <point x="541" y="257" type="line"/>
      <point x="716" y="536" type="line"/>
      <point x="622" y="536" type="line"/>
      <point x="465" y="281" type="line"/>
      <point x="465" y="270" type="line"/>
    </contour>
    <contour>
      <point x="8" y="0" type="line"/>
      <point x="107" y="0" type="line"/>
      <point x="264" y="270" type="line"/>
      <point x="264" y="281" type="line"/>
      <point x="107" y="536" type="line"/>
      <point x="14" y="536" type="line"/>
      <point x="189" y="251" type="line"/>
      <point x="193" y="311" type="line"/>
    </contour>
    <contour>
      <point x="322" y="0" type="line"/>
      <point x="407" y="0" type="line"/>
      <point x="407" y="536" type="line"/>
      <point x="322" y="536" type="line"/>
    </contour>
    <contour>
      <point x="228" y="239" type="line"/>
      <point x="501" y="239" type="line"/>
      <point x="501" y="313" type="line"/>
      <point x="228" y="313" type="line"/>
    </contour>
  </outline>
</glyph>
<glyph name="ze-cy" format="2">
  <advance width="498"/>
  <unicode hex="0437"/>
  <anchor x="248" y="0" name="bottom"/>
  <anchor x="242" y="268" name="center"/>
  <anchor x="237" y="536" name="top"/>
  <outline>
    <contour>
      <point x="216" y="-10" type="curve" smooth="yes"/>
      <point x="369" y="-10"/>
      <point x="450" y="49"/>
      <point x="450" y="148" type="curve" smooth="yes"/>
      <point x="450" y="223"/>
      <point x="404" y="271"/>
      <point x="326" y="281" type="curve"/>
      <point x="326" y="285" type="line"/>
      <point x="397" y="301"/>
      <point x="436" y="344"/>
      <point x="436" y="408" type="curve" smooth="yes"/>
      <point x="436" y="496"/>
      <point x="361" y="546"/>
      <point x="235" y="546" type="curve" smooth="yes"/>
      <point x="164" y="546"/>
      <point x="97" y="530"/>
      <point x="46" y="508" type="curve"/>
      <point x="73" y="440" type="line"/>
      <point x="132" y="464"/>
      <point x="179" y="474"/>
      <point x="228" y="474" type="curve" smooth="yes"/>
      <point x="306" y="474"/>
      <point x="347" y="448"/>
      <point x="347" y="395" type="curve" smooth="yes"/>
      <point x="347" y="341"/>
      <point x="305" y="312"/>
      <point x="225" y="312" type="curve" smooth="yes"/>
      <point x="133" y="312" type="line"/>
      <point x="133" y="241" type="line"/>
      <point x="225" y="241" type="line" smooth="yes"/>
      <point x="316" y="241"/>
      <point x="359" y="213"/>
      <point x="359" y="154" type="curve" smooth="yes"/>
      <point x="359" y="94"/>
      <point x="315" y="62"/>
      <point x="217" y="62" type="curve" smooth="yes"/>
      <point x="158" y="62"/>
      <point x="97" y="74"/>
      <point x="40" y="104" type="curve"/>
      <point x="40" y="24" type="line"/>
      <point x="84" y="2"/>
      <point x="147" y="-10"/>
    </contour>
  </outline>
</glyph>
<glyph name="ii-cy" format="2">
  <advance width="620"/>
  <unicode hex="0438"/>
  <anchor x="310" y="0" name="bottom"/>
  <anchor x="309" y="268" name="center"/>
  <anchor x="318" y="536" name="top"/>
  <outline>
    <contour>
      <point x="85" y="0" type="line"/>
      <point x="183" y="0" type="line"/>
      <point x="449" y="429" type="line"/>
      <point x="453" y="429" type="line"/>
      <point x="450" y="393"/>
      <point x="448" y="339"/>
      <point x="448" y="304" type="curve" smooth="yes"/>
      <point x="448" y="0" type="line"/>
      <point x="535" y="0" type="line"/>
      <point x="535" y="536" type="line"/>
      <point x="430" y="536" type="line"/>
      <point x="169" y="115" type="line"/>
      <point x="165" y="115" type="line"/>
      <point x="168" y="151"/>
      <point x="172" y="197"/>
      <point x="172" y="232" type="curve" smooth="yes"/>
      <point x="172" y="536" type="line"/>
      <point x="85" y="536" type="line"/>
    </contour>
  </outline>
</glyph>
<glyph name="ka-cy" format="2">
  <advance width="533"/>
  <unicode hex="043A"/>
  <anchor x="267" y="0" name="bottom"/>
  <anchor x="367" y="274" name="center"/>
  <anchor x="281" y="536" name="top"/>
  <outline>
    <contour>
      <point x="419" y="0" type="line"/>
      <point x="525" y="0" type="line"/>
      <point x="312" y="317" type="line"/>
      <point x="316" y="257" type="line"/>
      <point x="514" y="536" type="line"/>
      <point x="417" y="536" type="line"/>
      <point x="239" y="281" type="line"/>
      <point x="239" y="271" type="line"/>
    </contour>
    <contour>
      <point x="85" y="0" type="line"/>
      <point x="173" y="0" type="line"/>
      <point x="173" y="536" type="line"/>
      <point x="85" y="536" type="line"/>
    </contour>
    <contour>
      <point x="167" y="239" type="line"/>
      <point x="274" y="239" type="line"/>
      <point x="274" y="313" type="line"/>
      <point x="167" y="313" type="line"/>
    </contour>
  </outline>
</glyph>
<glyph name="el-cy" format="2">
  <advance width="578"/>
  <unicode hex="043B"/>
  <outline>
    <contour>
      <point x="72" y="-7" type="curve" smooth="yes"/>
      <point x="147" y="-7"/>
      <point x="180" y="49"/>
      <point x="192" y="200" type="curve" smooth="yes"/>
      <point x="200" y="303"/>
      <point x="204" y="377"/>
      <point x="207" y="462" type="curve"/>
      <point x="405" y="462" type="line"/>
      <point x="405" y="0" type="line"/>
      <point x="493" y="0" type="line"/>
      <point x="493" y="536" type="line"/>
      <point x="130" y="536" type="line"/>
      <point x="123" y="351"/>
      <point x="119" y="279"/>
      <point x="111" y="195" type="curve" smooth="yes"/>
      <point x="102" y="96"/>
      <point x="90" y="74"/>
      <point x="48" y="74" type="curve" smooth="yes"/>
      <point x="39" y="74"/>
      <point x="29" y="75"/>
      <point x="18" y="78" type="curve"/>
      <point x="18" y="5" type="line"/>
      <point x="34" y="-3"/>
      <point x="52" y="-7"/>
    </contour>
  </outline>
</glyph>
<glyph name="em-cy" format="2">
  <advance width="766"/>
  <unicode hex="043C"/>
  <anchor x="383" y="0" name="bottom"/>
  <anchor x="383" y="273" name="center"/>
  <anchor x="383" y="546" name="top"/>
  <outline>
    <contour>
      <point x="85" y="0" type="line"/>
      <point x="166" y="0" type="line"/>
      <point x="166" y="339" type="line" smooth="yes"/>
      <point x="166" y="371"/>
      <point x="165" y="401"/>
      <point x="163" y="431" type="curve"/>
      <point x="166" y="431" type="line"/>
      <point x="343" y="0" type="line"/>
      <point x="418" y="0" type="line"/>
      <point x="600" y="431" type="line"/>
      <point x="603" y="431" type="line"/>
      <point x="600" y="401"/>
      <point x="598" y="370"/>
      <point x="598" y="342" type="curve" smooth="yes"/>
      <point x="598" y="0" type="line"/>
      <point x="681" y="0" type="line"/>
      <point x="681" y="536" type="line"/>
      <point x="563" y="536" type="line"/>
      <point x="365" y="68" type="line"/>
      <point x="399" y="67" type="line"/>
      <point x="206" y="536" type="line"/>
      <point x="85" y="536" type="line"/>
    </contour>
  </outline>
</glyph>
<glyph name="en-cy" format="2">
  <advance width="610"/>
  <unicode hex="043D"/>
  <anchor x="305" y="0" name="bottom"/>
  <anchor x="305" y="268" name="center"/>
  <anchor x="305" y="536" name="top"/>
  <outline>
    <contour>
      <point x="85" y="0" type="line"/>
      <point x="173" y="0" type="line"/>
      <point x="173" y="239" type="line"/>
      <point x="437" y="239" type="line"/>
      <point x="437" y="0" type="line"/>
      <point x="525" y="0" type="line"/>
      <point x="525" y="536" type="line"/>
      <point x="437" y="536" type="line"/>
      <point x="437" y="313" type="line"/>
      <point x="173" y="313" type="line"/>
      <point x="173" y="536" type="line"/>
      <point x="85" y="536" type="line"/>
    </contour>
  </outline>
</glyph>
<glyph name="te-cy" format="2">
  <advance width="467"/>
  <unicode hex="0442"/>
  <anchor x="234" y="0" name="bottom"/>
  <anchor x="234" y="268" name="center"/>
  <anchor x="234" y="536" name="top"/>
  <outline>
    <contour>
      <point x="190" y="0" type="line"/>
      <point x="277" y="0" type="line"/>
      <point x="277" y="462" type="line"/>
      <point x="453" y="462" type="line"/>
      <point x="453" y="536" type="line"/>
      <point x="14" y="536" type="line"/>
      <point x="14" y="462" type="line"/>
      <point x="190" y="462" type="line"/>
    </contour>
  </outline>
</glyph>
<glyph name="ef-cy" format="2">
  <advance width="748"/>
  <unicode hex="0444"/>
  <anchor x="374" y="-240" name="bottom"/>
  <anchor x="374" y="760" name="top"/>
  <outline>
    <contour>
      <point x="353" y="-15" type="curve" smooth="yes"/>
      <point x="396" y="-15" type="line" smooth="yes"/>
      <point x="588" y="-15"/>
      <point x="697" y="87"/>
      <point x="697" y="265" type="curve" smooth="yes"/>
      <point x="697" y="443"/>
      <point x="587" y="546"/>
      <point x="391" y="546" type="curve" smooth="yes"/>
      <point x="358" y="546" type="line" smooth="yes"/>
      <point x="162" y="546"/>
      <point x="52" y="443"/>
      <point x="52" y="265" type="curve" smooth="yes"/>
      <point x="52" y="87"/>
      <point x="161" y="-15"/>
    </contour>
    <contour>
      <point x="331" y="-240" type="line"/>
      <point x="417" y="-240" type="line"/>
      <point x="417" y="15" type="line"/>
      <point x="416" y="28" type="line"/>
      <point x="416" y="504" type="line"/>
      <point x="417" y="523" type="line"/>
      <point x="417" y="760" type="line"/>
      <point x="331" y="760" type="line"/>
      <point x="331" y="523" type="line"/>
      <point x="333" y="504" type="line"/>
      <point x="333" y="28" type="line"/>
      <point x="331" y="15" type="line"/>
    </contour>
    <contour>
      <point x="359" y="57" type="line" smooth="yes"/>
      <point x="214" y="57"/>
      <point x="145" y="125"/>
      <point x="145" y="265" type="curve" smooth="yes"/>
      <point x="145" y="405"/>
      <point x="214" y="474"/>
      <point x="360" y="474" type="curve" smooth="yes"/>
      <point x="388" y="474" type="line" smooth="yes"/>
      <point x="535" y="474"/>
      <point x="604" y="405"/>
      <point x="604" y="265" type="curve" smooth="yes"/>
      <point x="604" y="125"/>
      <point x="535" y="57"/>
      <point x="389" y="57" type="curve" smooth="yes"/>
    </contour>
  </outline>
</glyph>
<glyph name="tse-cy" format="2">
  <advance width="606"/>
  <unicode hex="0446"/>
  <anchor x="301" y="-136" name="bottom"/>
  <anchor x="301" y="175" name="center"/>
  <anchor x="301" y="536" name="top"/>
  <outline>
    <contour>
      <point x="511" y="-136" type="line"/>
      <point x="596" y="-136" type="line"/>
      <point x="596" y="73" type="line"/>
      <point x="517" y="73" type="line"/>
      <point x="517" y="536" type="line"/>
      <point x="429" y="536" type="line"/>
      <point x="429" y="74" type="line"/>
      <point x="173" y="74" type="line"/>
      <point x="173" y="536" type="line"/>
      <point x="85" y="536" type="line"/>
      <point x="85" y="0" type="line"/>
      <point x="511" y="0" type="line"/>
    </contour>
  </outline>
</glyph>
<glyph name="sha-cy" format="2">
  <advance width="894"/>
  <unicode hex="0448"/>
  <anchor x="447" y="0" name="bottom"/>
  <anchor x="447" y="268" name="center"/>
  <anchor x="447" y="536" name="top"/>
  <outline>
    <contour>
      <point x="85" y="0" type="line"/>
      <point x="809" y="0" type="line"/>
      <point x="809" y="536" type="line"/>
      <point x="721" y="536" type="line"/>
      <point x="721" y="74" type="line"/>
      <point x="491" y="74" type="line"/>
      <point x="491" y="536" type="line"/>
      <point x="403" y="536" type="line"/>
      <point x="403" y="74" type="line"/>
      <point x="173" y="74" type="line"/>
      <point x="173" y="536" type="line"/>
      <point x="85" y="536" type="line"/>
    </contour>
  </outline>
</glyph>
<glyph name="hardsign-cy" format="2">
  <advance width="619"/>
  <unicode hex="044A"/>
  <anchor x="316" y="0" name="bottom"/>
  <anchor x="298" y="268" name="center"/>
  <anchor x="316" y="536" name="top"/>
  <outline>
    <contour>
      <point x="162" y="0" type="line"/>
      <point x="354" y="0" type="line" smooth="yes"/>
      <point x="498" y="0"/>
      <point x="575" y="63"/>
      <point x="575" y="172" type="curve" smooth="yes"/>
      <point x="575" y="282"/>
      <point x="500" y="338"/>
      <point x="354" y="338" type="curve" smooth="yes"/>
      <point x="250" y="338" type="line"/>
      <point x="250" y="536" type="line"/>
      <point x="14" y="536" type="line"/>
      <point x="14" y="462" type="line"/>
      <point x="162" y="462" type="line"/>
    </contour>
    <contour>
      <point x="250" y="73" type="line"/>
      <point x="250" y="265" type="line"/>
      <point x="354" y="265" type="line" smooth="yes"/>
      <point x="444" y="265"/>
      <point x="484" y="235"/>
      <point x="484" y="170" type="curve" smooth="yes"/>
      <point x="484" y="106"/>
      <point x="443" y="73"/>
      <point x="354" y="73" type="curve" smooth="yes"/>
    </contour>
  </outline>
</glyph>
<glyph name="softsign-cy" format="2">
  <advance width="542"/>
  <unicode hex="044C"/>
  <anchor x="284" y="0" name="bottom"/>
  <anchor x="300" y="268" name="center"/>
  <anchor x="284" y="536" name="top"/>
  <outline>
    <contour>
      <point x="85" y="0" type="line"/>
      <point x="277" y="0" type="line" smooth="yes"/>
      <point x="421" y="0"/>
      <point x="498" y="63"/>
      <point x="498" y="172" type="curve" smooth="yes"/>
      <point x="498" y="282"/>
      <point x="423" y="338"/>
      <point x="277" y="338" type="curve" smooth="yes"/>
      <point x="173" y="338" type="line"/>
      <point x="173" y="536" type="line"/>
      <point x="85" y="536" type="line"/>
    </contour>
    <contour>
      <point x="173" y="73" type="line"/>
      <point x="173" y="265" type="line"/>
      <point x="277" y="265" type="line" smooth="yes"/>
      <point x="367" y="265"/>
      <point x="407" y="235"/>
      <point x="407" y="170" type="curve" smooth="yes"/>
      <point x="407" y="106"/>
      <point x="366" y="73"/>
      <point x="277" y="73" type="curve" smooth="yes"/>
    </contour>
  </outline>
</glyph>
<glyph name="iu-cy" format="2">
  <advance width="822"/>
  <unicode hex="044E"/>
  <anchor x="427" y="0" name="bottom"/>
  <anchor x="427" y="268" name="center"/>
  <anchor x="427" y="536" name="top"/>
  <outline>
    <contour>
      <point x="520" y="-10" type="curve" smooth="yes"/>
      <point x="671" y="-10"/>
      <point x="768" y="89"/>
      <point x="768" y="269" type="curve" smooth="yes"/>
      <point x="768" y="448"/>
      <point x="666" y="546"/>
      <point x="523" y="546" type="curve" smooth="yes"/>
      <point x="384" y="546"/>
      <point x="293" y="464"/>
      <point x="278" y="313" type="curve"/>
      <point x="173" y="313" type="line"/>
      <point x="173" y="536" type="line"/>
      <point x="85" y="536" type="line"/>
      <point x="85" y="0" type="line"/>
      <point x="173" y="0" type="line"/>
      <point x="173" y="239" type="line"/>
      <point x="277" y="239" type="line"/>
      <point x="288" y="78"/>
      <point x="388" y="-10"/>
    </contour>
    <contour>
      <point x="522" y="63" type="curve" smooth="yes"/>
      <point x="415" y="63"/>
      <point x="367" y="141"/>
      <point x="367" y="269" type="curve" smooth="yes"/>
      <point x="367" y="397"/>
      <point x="414" y="472"/>
      <point x="521" y="472" type="curve" smooth="yes"/>
      <point x="628" y="472"/>
      <point x="677" y="397"/>
      <point x="677" y="269" type="curve" smooth="yes"/>
      <point x="677" y="141"/>
      <point x="628" y="63"/>
    </contour>
  </outline>
</glyph>
<glyph name="ia-cy" format="2">
  <advance width="566"/>
  <unicode hex="044F"/>
  <anchor x="297" y="0" name="bottom"/>
  <anchor x="262" y="268" name="center"/>
  <anchor x="297" y="536" name="top"/>
  <outline>
    <contour>
      <point x="35" y="0" type="line"/>
      <point x="136" y="0" type="line"/>
      <point x="277" y="203" type="line"/>
      <point x="393" y="203" type="line"/>
      <point x="393" y="0" type="line"/>
      <point x="481" y="0" type="line"/>
      <point x="481" y="536" type="line"/>
      <point x="252" y="536" type="line" smooth="yes"/>
      <point x="132" y="536"/>
      <point x="62" y="476"/>
      <point x="61" y="373" type="curve" smooth="yes"/>
      <point x="60" y="279"/>
      <point x="119" y="220"/>
      <point x="219" y="209" type="curve"/>
      <point x="209" y="247" type="line"/>
    </contour>
    <contour>
      <point x="280" y="275" type="line" smooth="yes"/>
      <point x="195" y="275"/>
      <point x="151" y="307"/>
      <point x="152" y="372" type="curve" smooth="yes"/>
      <point x="153" y="433"/>
      <point x="190" y="463"/>
      <point x="263" y="463" type="curve" smooth="yes"/>
      <point x="393" y="463" type="line"/>
      <point x="393" y="275" type="line"/>
    </contour>
  </outline>
</glyph>
<glyph name="cuberoot-ar" format="2">
  <advance width="679"/>
  <unicode hex="0606"/>
  <outline>
    <contour>
      <point x="405" y="0" type="line"/>
      <point x="540" y="380" type="line"/>
      <point x="628" y="380" type="line"/>
      <point x="628" y="450" type="line"/>
      <point x="485" y="450" type="line"/>
      <point x="372" y="121" type="line"/>
      <point x="40" y="1057" type="line"/>
      <point x="-31" y="1057" type="line"/>
      <point x="340" y="0" type="line"/>
    </contour>
    <contour>
      <point x="385" y="718" type="curve" smooth="yes"/>
      <point x="425" y="718"/>
      <point x="439" y="742"/>
      <point x="445" y="766" type="curve"/>
      <point x="428" y="773" type="line"/>
      <point x="430" y="748"/>
      <point x="452" y="721"/>
      <point x="493" y="721" type="curve" smooth="yes"/>
      <point x="539" y="721"/>
      <point x="578" y="754"/>
      <point x="578" y="808" type="curve" smooth="yes"/>
      <point x="578" y="832"/>
      <point x="571" y="884"/>
      <point x="551" y="920" type="curve"/>
      <point x="494" y="898" type="line"/>
      <point x="502" y="878"/>
      <point x="511" y="836"/>
      <point x="511" y="818" type="curve" smooth="yes"/>
      <point x="511" y="797"/>
      <point x="496" y="785"/>
      <point x="479" y="785" type="curve" smooth="yes"/>
      <point x="469" y="785"/>
      <point x="452" y="791"/>
      <point x="454" y="812" type="curve" smooth="yes"/>
      <point x="460" y="886" type="line"/>
      <point x="400" y="890" type="line"/>
      <point x="391" y="800"/>
      <point x="392" y="785"/>
      <point x="368" y="785" type="curve" smooth="yes"/>
      <point x="355" y="785"/>
      <point x="340" y="790"/>
      <point x="329" y="818" type="curve"/>
      <point x="310" y="901" type="line"/>
      <point x="316" y="761" type="line"/>
      <point x="320" y="742"/>
      <point x="340" y="718"/>
    </contour>
    <contour>
      <point x="352" y="554" type="line"/>
      <point x="352" y="592"/>
      <point x="352" y="662"/>
      <point x="343" y="751" type="curve"/>
      <point x="310" y="901" type="line"/>
      <point x="248" y="884" type="line"/>
      <point x="278" y="776"/>
      <point x="283" y="590"/>
      <point x="283" y="557" type="curve"/>
    </contour>
  </outline>
</glyph>
<glyph name="beh-ar" format="2">
  <advance width="993"/>
  <unicode hex="0628"/>
  <anchor x="486" y="-25" name="bottom"/>
  <anchor x="481" y="25" name="ring"/>
  <anchor x="486" y="298" name="top"/>
  <outline>
    <contour>
      <point x="390" y="-21" type="curve" smooth="yes"/>
      <point x="816" y="-21"/>
      <point x="943" y="39"/>
      <point x="943" y="197" type="curve" smooth="yes"/>
      <point x="943" y="257"/>
      <point x="916" y="338"/>
      <point x="891" y="403" type="curve"/>
      <point x="814" y="376" type="line"/>
      <point x="843" y="300"/>
      <point x="864" y="231"/>
      <point x="864" y="181" type="curve" smooth="yes"/>
      <point x="864" y="89"/>
      <point x="727" y="61"/>
      <point x="416" y="61" type="curve" smooth="yes"/>
      <point x="178" y="61"/>
      <point x="112" y="101"/>
      <point x="112" y="205" type="curve" smooth="yes"/>
      <point x="112" y="239"/>
      <point x="125" y="290"/>
      <point x="133" y="320" type="curve"/>
      <point x="58" y="339" type="line"/>
      <point x="44" y="289"/>
      <point x="30" y="231"/>
      <point x="30" y="182" type="curve" smooth="yes"/>
      <point x="30" y="36"/>
      <point x="152" y="-21"/>
    </contour>
    <contour>
      <point x="486" y="-211" type="curve" smooth="yes"/>
      <point x="513" y="-211"/>
      <point x="535" y="-189"/>
      <point x="535" y="-162" type="curve" smooth="yes"/>
      <point x="535" y="-135"/>
      <point x="513" y="-112"/>
      <point x="486" y="-112" type="curve" smooth="yes"/>
      <point x="458" y="-112"/>
      <point x="436" y="-135"/>
      <point x="436" y="-162" type="curve" smooth="yes"/>
      <point x="436" y="-189"/>
      <point x="458" y="-211"/>
    </contour>
  </outline>
</glyph>
<glyph name="jeem-ar" format="2">
  <advance width="639"/>
  <unicode hex="062C"/>
  <anchor x="360" y="-394" name="bottom"/>
  <anchor x="350" y="-66" name="center"/>
  <anchor x="311" y="416" name="top"/>
  <outline>
    <contour>
      <point x="360" y="-394" type="curve" smooth="yes"/>
      <point x="438" y="-394"/>
      <point x="521" y="-376"/>
      <point x="599" y="-339" type="curve"/>
      <point x="571" y="-271" type="line"/>
      <point x="505" y="-297"/>
      <point x="435" y="-311"/>
      <point x="370" y="-311" type="curve" smooth="yes"/>
      <point x="220" y="-311"/>
      <point x="92" y="-254"/>
      <point x="92" y="-114" type="curve" smooth="yes"/>
      <point x="92" y="118"/>
      <point x="380" y="250"/>
      <point x="572" y="250" type="curve"/>
      <point x="570" y="332" type="line"/>
      <point x="561" y="332" type="line" smooth="yes"/>
      <point x="359" y="332"/>
      <point x="309" y="416"/>
      <point x="156" y="416" type="curve" smooth="yes"/>
      <point x="112" y="416"/>
      <point x="66" y="406"/>
      <point x="32" y="392" type="curve"/>
      <point x="46" y="318" type="line"/>
      <point x="73" y="325"/>
      <point x="101" y="333"/>
      <point x="141" y="333" type="curve" smooth="yes"/>
      <point x="243" y="333"/>
      <point x="313" y="301"/>
      <point x="383" y="279" type="curve"/>
      <point x="394" y="292" type="line"/>
      <point x="156" y="222"/>
      <point x="10" y="68"/>
      <point x="10" y="-124" type="curve" smooth="yes"/>
      <point x="10" y="-309"/>
      <point x="172" y="-394"/>
    </contour>
    <contour>
      <point x="351" y="-115" type="curve" smooth="yes"/>
      <point x="378" y="-115"/>
      <point x="400" y="-93"/>
      <point x="400" y="-66" type="curve" smooth="yes"/>
      <point x="400" y="-39"/>
      <point x="378" y="-16"/>
      <point x="351" y="-16" type="curve" smooth="yes"/>
      <point x="323" y="-16"/>
      <point x="301" y="-39"/>
      <point x="301" y="-66" type="curve" smooth="yes"/>
      <point x="301" y="-93"/>
      <point x="323" y="-115"/>
    </contour>
  </outline>
</glyph>
<glyph name="sheen-ar" format="2">
  <advance width="1209"/>
  <unicode hex="0634"/>
  <anchor x="839" y="-5" name="bottom"/>
  <anchor x="821" y="332" name="top"/>
  <anchor x="882" y="474" name="top.digit"/>
  <outline>
    <contour>
      <point x="313" y="-232" type="curve" smooth="yes"/>
      <point x="561" y="-232"/>
      <point x="624" y="-87"/>
      <point x="637" y="41" type="curve"/>
      <point x="596" y="92" type="line"/>
      <point x="606" y="44"/>
      <point x="636" y="-5"/>
      <point x="720" y="-5" type="curve" smooth="yes"/>
      <point x="800" y="-5"/>
      <point x="839" y="24"/>
      <point x="871" y="97" type="curve"/>
      <point x="837" y="97" type="line"/>
      <point x="847" y="27"/>
      <point x="887" y="-5"/>
      <point x="981" y="-5" type="curve" smooth="yes"/>
      <point x="1083" y="-5"/>
      <point x="1159" y="43"/>
      <point x="1159" y="179" type="curve" smooth="yes"/>
      <point x="1159" y="239"/>
      <point x="1132" y="338"/>
      <point x="1107" y="403" type="curve"/>
      <point x="1026" y="373" type="line"/>
      <point x="1055" y="297"/>
      <point x="1083" y="213"/>
      <point x="1083" y="163" type="curve" smooth="yes"/>
      <point x="1083" y="82"/>
      <point x="1043" y="77"/>
      <point x="982" y="77" type="curve" smooth="yes"/>
      <point x="903" y="77"/>
      <point x="891" y="101"/>
      <point x="891" y="130" type="curve" smooth="yes"/>
      <point x="891" y="164"/>
      <point x="903" y="232"/>
      <point x="909" y="268" type="curve"/>
      <point x="833" y="282" type="line"/>
      <point x="809" y="86"/>
      <point x="777" y="77"/>
      <point x="725" y="77" type="curve" smooth="yes"/>
      <point x="674" y="77"/>
      <point x="643" y="87"/>
      <point x="621" y="160" type="curve" smooth="yes"/>
      <point x="615" y="181"/>
      <point x="609" y="208"/>
      <point x="588" y="284" type="curve"/>
      <point x="507" y="262" type="line"/>
      <point x="530" y="183"/>
      <point x="553" y="114"/>
      <point x="553" y="26" type="curve" smooth="yes"/>
      <point x="553" y="-59"/>
      <point x="498" y="-150"/>
      <point x="316" y="-150" type="curve" smooth="yes"/>
      <point x="203" y="-150"/>
      <point x="112" y="-97"/>
      <point x="112" y="6" type="curve" smooth="yes"/>
      <point x="112" y="46"/>
      <point x="123" y="92"/>
      <point x="144" y="148" type="curve"/>
      <point x="72" y="176" type="line"/>
      <point x="43" y="105"/>
      <point x="30" y="47"/>
      <point x="30" y="-1" type="curve" smooth="yes"/>
      <point x="30" y="-147"/>
      <point x="162" y="-232"/>
    </contour>
    <contour>
      <point x="824" y="545" type="curve" smooth="yes"/>
      <point x="851" y="545"/>
      <point x="873" y="567"/>
      <point x="873" y="594" type="curve" smooth="yes"/>
      <point x="873" y="621"/>
      <point x="851" y="644"/>
      <point x="824" y="644" type="curve" smooth="yes"/>
      <point x="796" y="644"/>
      <point x="774" y="621"/>
      <point x="774" y="594" type="curve" smooth="yes"/>
      <point x="774" y="567"/>
      <point x="796" y="545"/>
    </contour>
    <contour>
      <point x="756" y="435" type="curve" smooth="yes"/>
      <point x="783" y="435"/>
      <point x="805" y="457"/>
      <point x="805" y="484" type="curve" smooth="yes"/>
      <point x="805" y="511"/>
      <point x="783" y="534"/>
      <point x="756" y="534" type="curve" smooth="yes"/>
      <point x="728" y="534"/>
      <point x="706" y="511"/>
      <point x="706" y="484" type="curve" smooth="yes"/>
      <point x="706" y="457"/>
      <point x="728" y="435"/>
    </contour>
    <contour>
      <point x="892" y="435" type="curve" smooth="yes"/>
      <point x="919" y="435"/>
      <point x="941" y="457"/>
      <point x="941" y="484" type="curve" smooth="yes"/>
      <point x="941" y="511"/>
      <point x="919" y="534"/>
      <point x="892" y="534" type="curve" smooth="yes"/>
      <point x="864" y="534"/>
      <point x="842" y="511"/>
      <point x="842" y="484" type="curve" smooth="yes"/>
      <point x="842" y="457"/>
      <point x="864" y="435"/>
    </contour>
  </outline>
</glyph>
<glyph name="noon-ar" format="2">
  <advance width="685"/>
  <unicode hex="0646"/>
  <anchor x="313" y="-232" name="bottom"/>
  <anchor x="326" y="-192" name="ring"/>
  <anchor x="331" y="295" name="top"/>
  <outline>
    <contour>
      <point x="30" y="-1" type="curve" smooth="yes"/>
      <point x="30" y="-160"/>
      <point x="162" y="-230"/>
      <point x="318" y="-230" type="curve" smooth="yes"/>
      <point x="564" y="-230"/>
      <point x="635" y="-64"/>
      <point x="635" y="65" type="curve" smooth="yes"/>
      <point x="635" y="155"/>
      <point x="600" y="241"/>
      <point x="561" y="318" type="curve"/>
      <point x="486" y="280" type="line"/>
      <point x="538" y="173"/>
      <point x="554" y="105"/>
      <point x="554" y="54" type="curve" smooth="yes"/>
      <point x="554" y="-40"/>
      <point x="498" y="-148"/>
      <point x="319" y="-148" type="curve" smooth="yes"/>
      <point x="201" y="-148"/>
      <point x="112" y="-98"/>
      <point x="112" y="6" type="curve" smooth="yes"/>
      <point x="112" y="46"/>
      <point x="123" y="92"/>
      <point x="144" y="148" type="curve"/>
      <point x="72" y="176" type="line"/>
      <point x="43" y="105"/>
      <point x="30" y="47"/>
    </contour>
    <contour>
      <point x="332" y="398" type="curve" smooth="yes"/>
      <point x="359" y="398"/>
      <point x="381" y="420"/>
      <point x="381" y="447" type="curve" smooth="yes"/>
      <point x="381" y="474"/>
      <point x="359" y="497"/>
      <point x="332" y="497" type="curve" smooth="yes"/>
      <point x="304" y="497"/>
      <point x="282" y="474"/>
      <point x="282" y="447" type="curve" smooth="yes"/>
      <point x="282" y="420"/>
      <point x="304" y="398"/>
    </contour>
  </outline>
</glyph>
<glyph name="zero-ar" format="2">
  <advance width="572"/>
  <unicode hex="0660"/>
  <outline>
    <contour>
      <point x="295" y="208" type="curve"/>
      <point x="369" y="281" type="line"/>
      <point x="345" y="311"/>
      <point x="312" y="345"/>
      <point x="276" y="372" type="curve"/>
      <point x="204" y="296" type="line"/>
      <point x="240" y="266"/>
      <point x="260" y="245"/>
    </contour>
  </outline>
</glyph>
<glyph name="one-ar" format="2">
  <advance width="572"/>
  <unicode hex="0661"/>
  <unicode hex="06F1"/>
  <outline>
    <contour>
      <point x="371" y="6" type="line"/>
      <point x="369" y="102"/>
      <point x="344" y="488"/>
      <point x="280" y="681" type="curve"/>
      <point x="201" y="659" type="line"/>
      <point x="259" y="487"/>
      <point x="289" y="42"/>
      <point x="289" y="-4" type="curve"/>
    </contour>
  </outline>
</glyph>
<glyph name="three-ar" format="2">
  <advance width="572"/>
  <unicode hex="0663"/>
  <unicode hex="06F3"/>
  <outline>
    <contour>
      <point x="205" y="6" type="line"/>
      <point x="203" y="102"/>
      <point x="178" y="488"/>
      <point x="114" y="681" type="curve"/>
      <point x="35" y="659" type="line"/>
      <point x="93" y="487"/>
      <point x="123" y="42"/>
      <point x="123" y="-4" type="curve"/>
    </contour>
    <contour>
      <point x="225" y="427" type="curve" smooth="yes"/>
      <point x="268" y="427"/>
      <point x="307" y="451"/>
      <point x="323" y="495" type="curve"/>
      <point x="300" y="495" type="line"/>
      <point x="309" y="454"/>
      <point x="346" y="431"/>
      <point x="401" y="431" type="curve" smooth="yes"/>
      <point x="485" y="431"/>
      <point x="537" y="477"/>
      <point x="537" y="552" type="curve" smooth="yes"/>
      <point x="537" y="583"/>
      <point x="528" y="630"/>
      <point x="503" y="683" type="curve"/>
      <point x="435" y="658" type="line"/>
      <point x="446" y="633"/>
      <point x="462" y="594"/>
      <point x="462" y="563" type="curve" smooth="yes"/>
      <point x="462" y="533"/>
      <point x="448" y="509"/>
      <point x="401" y="509" type="curve" smooth="yes"/>
      <point x="363" y="509"/>
      <point x="343" y="524"/>
      <point x="343" y="548" type="curve" smooth="yes"/>
      <point x="343" y="561"/>
      <point x="353" y="609"/>
      <point x="358" y="646" type="curve"/>
      <point x="288" y="655" type="line"/>
      <point x="274" y="533"/>
      <point x="247" y="505"/>
      <point x="213" y="505" type="curve" smooth="yes"/>
      <point x="194" y="505"/>
      <point x="158" y="515"/>
      <point x="149" y="548" type="curve" smooth="yes"/>
      <point x="122" y="649" type="line"/>
      <point x="127" y="505" type="line"/>
      <point x="133" y="474"/>
      <point x="159" y="427"/>
    </contour>
  </outline>
</glyph>
<glyph name="six-ar" format="2">
  <advance width="572"/>
  <unicode hex="0666"/>
  <outline>
    <contour>
      <point x="420" y="-5" type="curve"/>
      <point x="498" y="5" type="line"/>
      <point x="479" y="102"/>
      <point x="428" y="477"/>
      <point x="428" y="667" type="curve"/>
      <point x="388" y="640" type="line"/>
      <point x="356" y="592" type="line"/>
      <point x="356" y="323"/>
      <point x="409" y="72"/>
    </contour>
    <contour>
      <point x="422" y="587" type="curve"/>
      <point x="428" y="667" type="line"/>
      <point x="366" y="651"/>
      <point x="188" y="641"/>
      <point x="89" y="682" type="curve"/>
      <point x="74" y="606" type="line"/>
      <point x="161" y="560"/>
      <point x="318" y="563"/>
    </contour>
  </outline>
</glyph>
<glyph name="seven-ar" format="2">
  <advance width="572"/>
  <unicode hex="0667"/>
  <outline>
    <contour>
      <point x="243" y="-6" type="line"/>
      <point x="321" y="8" type="line"/>
      <point x="355" y="168"/>
      <point x="468" y="462"/>
      <point x="555" y="654" type="curve"/>
      <point x="477" y="686" type="line"/>
      <point x="402" y="520"/>
      <point x="307" y="261"/>
      <point x="262" y="73" type="curve" smooth="yes"/>
    </contour>
    <contour>
      <point x="243" y="-6" type="curve"/>
      <point x="317" y="8" type="line"/>
      <point x="298" y="100" type="line" smooth="yes"/>
      <point x="261" y="281"/>
      <point x="173" y="504"/>
      <point x="97" y="691" type="curve"/>
      <point x="17" y="660" type="line"/>
      <point x="104" y="461"/>
      <point x="194" y="181"/>
    </contour>
  </outline>
</glyph>
<glyph name="decimalseparator-ar" format="2">
  <advance width="245"/>
  <unicode hex="066B"/>
  <outline>
    <contour>
      <point x="28" y="-152" type="line"/>
      <point x="120" y="-108"/>
      <point x="187" y="-46"/>
      <point x="206" y="62" type="curve" smooth="yes"/>
      <point x="218" y="125"/>
      <point x="178" y="159"/>
      <point x="131" y="180" type="curve"/>
      <point x="101" y="111" type="line"/>
      <point x="123" y="102"/>
      <point x="141" y="92"/>
      <point x="165" y="77" type="curve"/>
      <point x="138" y="-7"/>
      <point x="74" y="-69"/>
      <point x="0" y="-113" type="curve"/>
    </contour>
  </outline>
</glyph>
<glyph name="fehDotless-ar" format="2">
  <advance width="983"/>
  <unicode hex="06A1"/>
  <anchor x="770" y="-25" name="bottom.dot"/>
  <anchor x="484" y="-31" name="bottom.mark"/>
  <anchor x="758" y="501" name="top"/>
  <outline>
    <contour>
      <point x="860" y="213" type="line"/>
      <point x="856" y="142"/>
      <point x="846" y="106"/>
      <point x="813" y="85" type="curve" smooth="yes"/>
      <point x="771" y="58"/>
      <point x="579" y="61"/>
      <point x="416" y="61" type="curve" smooth="yes"/>
      <point x="178" y="61"/>
      <point x="112" y="101"/>
      <point x="112" y="205" type="curve" smooth="yes"/>
      <point x="112" y="239"/>
      <point x="125" y="290"/>
      <point x="133" y="320" type="curve"/>
      <point x="58" y="339" type="line"/>
      <point x="44" y="289"/>
      <point x="30" y="231"/>
      <point x="30" y="182" type="curve" smooth="yes"/>
      <point x="30" y="36"/>
      <point x="152" y="-21"/>
      <point x="390" y="-21" type="curve" smooth="yes"/>
      <point x="602" y="-21"/>
      <point x="824" y="-20"/>
      <point x="874" y="30" type="curve" smooth="yes"/>
      <point x="921" y="77"/>
      <point x="938" y="155"/>
      <point x="938" y="255" type="curve" smooth="yes"/>
      <point x="938" y="381"/>
      <point x="885" y="501"/>
      <point x="778" y="501" type="curve" smooth="yes"/>
      <point x="676" y="501"/>
      <point x="610" y="385"/>
      <point x="610" y="283" type="curve" smooth="yes"/>
      <point x="610" y="197"/>
      <point x="667" y="156"/>
      <point x="769" y="156" type="curve" smooth="yes"/>
      <point x="804" y="156"/>
      <point x="840" y="162"/>
      <point x="870" y="174" type="curve"/>
      <point x="874" y="252" type="line"/>
      <point x="847" y="241"/>
      <point x="810" y="235"/>
      <point x="778" y="235" type="curve" smooth="yes"/>
      <point x="713" y="235"/>
      <point x="689" y="261"/>
      <point x="689" y="303" type="curve" smooth="yes"/>
      <point x="689" y="357"/>
      <point x="723" y="419"/>
      <point x="770" y="419" type="curve" smooth="yes"/>
      <point x="826" y="419"/>
      <point x="860" y="344"/>
      <point x="860" y="261" type="curve" smooth="yes"/>
    </contour>
  </outline>
</glyph>
<glyph name="twoFarsi-ar" format="2">
  <advance width="572"/>
  <unicode hex="06F2"/>
  <outline>
    <contour>
      <point x="253" y="6" type="line"/>
      <point x="251" y="102"/>
      <point x="226" y="488"/>
      <point x="162" y="681" type="curve"/>
      <point x="83" y="659" type="line"/>
      <point x="141" y="487"/>
      <point x="171" y="42"/>
      <point x="171" y="-4" type="curve"/>
    </contour>
    <contour>
      <point x="294" y="471" type="curve" smooth="yes"/>
      <point x="397" y="471"/>
      <point x="478" y="513"/>
      <point x="489" y="665" type="curve"/>
      <point x="421" y="678" type="line"/>
      <point x="406" y="559"/>
      <point x="356" y="552"/>
      <point x="290" y="552" type="curve" smooth="yes"/>
      <point x="236" y="552"/>
      <point x="179" y="567"/>
      <point x="142" y="596" type="curve"/>
      <point x="142" y="513" type="line"/>
      <point x="175" y="489"/>
      <point x="227" y="471"/>
    </contour>
  </outline>
</glyph>
<glyph name="sixFarsi-ar" format="2">
  <advance width="572"/>
  <unicode hex="06F6"/>
  <outline>
    <contour>
      <point x="174" y="-2" type="line"/>
      <point x="233" y="130"/>
      <point x="328" y="274"/>
      <point x="471" y="370" type="curve"/>
      <point x="434" y="434" type="line"/>
      <point x="285" y="348"/>
      <point x="189" y="224"/>
      <point x="101" y="27" type="curve"/>
    </contour>
    <contour>
      <point x="315" y="306" type="curve"/>
      <point x="407" y="356" type="line"/>
      <point x="336" y="355"/>
      <point x="223" y="416"/>
      <point x="223" y="502" type="curve" smooth="yes"/>
      <point x="223" y="539"/>
      <point x="244" y="600"/>
      <point x="328" y="600" type="curve" smooth="yes"/>
      <point x="353" y="600"/>
      <point x="382" y="595"/>
      <point x="409" y="587" type="curve"/>
      <point x="422" y="662" type="line"/>
      <point x="392" y="672"/>
      <point x="361" y="678"/>
      <point x="328" y="678" type="curve" smooth="yes"/>
      <point x="213" y="678"/>
      <point x="141" y="603"/>
      <point x="141" y="504" type="curve" smooth="yes"/>
      <point x="141" y="393"/>
      <point x="233" y="328"/>
    </contour>
  </outline>
</glyph>
<glyph name="dblverticalbar" format="2">
  <advance width="653"/>
  <unicode hex="2016"/>
  <anchor x="326" y="325" name="center"/>
  <outline>
    <contour>
      <point x="180" y="-158" type="line"/>
      <point x="253" y="-158" type="line"/>
      <point x="253" y="784" type="line"/>
      <point x="180" y="784" type="line"/>
    </contour>
    <contour>
      <point x="400" y="-158" type="line"/>
      <point x="473" y="-158" type="line"/>
      <point x="473" y="784" type="line"/>
      <point x="400" y="784" type="line"/>
    </contour>
  </outline>
</glyph>
<glyph name="quotedblleft" format="2">
  <advance width="359"/>
  <unicode hex="201C"/>
  <anchor x="179" y="591" name="center"/>
  <outline>
    <contour>
      <point x="19" y="469" type="line"/>
      <point x="113" y="469" type="line"/>
      <point x="123" y="539"/>
      <point x="145" y="639"/>
      <point x="164" y="714" type="curve"/>
      <point x="98" y="714" type="line"/>
      <point x="66" y="643"/>
      <point x="30" y="551"/>
      <point x="12" y="480" type="curve"/>
    </contour>
    <contour>
      <point x="204" y="469" type="line"/>
      <point x="298" y="469" type="line"/>
      <point x="308" y="539"/>
      <point x="328" y="639"/>
      <point x="347" y="714" type="curve"/>
      <point x="283" y="714" type="line"/>
      <point x="251" y="643"/>
      <point x="215" y="551"/>
      <point x="197" y="480" type="curve"/>
    </contour>
  </outline>
</glyph>
<glyph name="prime" format="2">
  <advance width="387"/>
  <unicode hex="2032"/>
  <anchor x="148" y="585" name="center"/>
  <outline>
    <contour>
      <point x="39" y="106" type="line"/>
      <point x="136" y="106" type="line"/>
      <point x="404" y="536" type="line"/>
      <point x="254" y="536" type="line"/>
    </contour>
  </outline>
</glyph>
<glyph name="doubleprime" format="2">
  <advance width="408"/>
  <unicode hex="2033"/>
  <anchor x="236" y="585" name="center"/>
  <outline>
    <contour>
      <point x="215" y="456" type="line"/>
      <point x="273" y="456" type="line"/>
      <point x="434" y="714" type="line"/>
      <point x="344" y="714" type="line"/>
    </contour>
    <contour>
      <point x="39" y="456" type="line"/>
      <point x="97" y="456" type="line"/>
      <point x="258" y="714" type="line"/>
      <point x="168" y="714" type="line"/>
    </contour>
  </outline>
</glyph>
<glyph name="charactertie" format="2">
  <advance width="855"/>
  <unicode hex="2040"/>
  <outline>
    <contour>
      <point x="427.704" y="794.848" type="curve" smooth="yes"/>
      <point x="266.216" y="794.848"/>
      <point x="146.55200000000002" y="719.992"/>
      <point x="70.0" y="588.704" type="curve"/>
      <point x="126.408" y="588.0" type="line"/>
      <point x="199.896" y="670.656"/>
      <point x="291.87199999999996" y="720.848"/>
      <point x="427.704" y="720.848" type="curve" smooth="yes"/>
      <point x="563.536" y="720.848"/>
      <point x="655.512" y="670.656"/>
      <point x="728.9999999999999" y="588.0" type="curve"/>
      <point x="785.408" y="588.704" type="line"/>
      <point x="708.856" y="719.992"/>
      <point x="589.192" y="794.848"/>
    </contour>
  </outline>
</glyph>
<glyph name="fraction" format="2">
  <advance width="130"/>
  <unicode hex="2044"/>
  <anchor x="64" y="357" name="center"/>
  <outline>
    <contour>
      <point x="-116" y="0" type="line"/>
      <point x="320" y="714" type="line"/>
      <point x="245" y="714" type="line"/>
      <point x="-191" y="0" type="line"/>
    </contour>
  </outline>
</glyph>
<glyph name="longverticallineoverlaycomb" format="2">
  <unicode hex="20D2"/>
  <anchor x="0" y="268" name="_center"/>
  <outline>
    <contour>
      <point x="-45" y="-178" type="line"/>
      <point x="45" y="-178" type="line"/>
      <point x="45" y="714" type="line"/>
      <point x="-45" y="714" type="line"/>
    </contour>
  </outline>
</glyph>
<glyph name="shortverticallineoverlaycomb" format="2">
  <unicode hex="20D3"/>
  <anchor x="0" y="268" name="_center"/>
  <outline>
    <contour>
      <point x="-39" y="-48" type="line"/>
      <point x="41" y="-48" type="line"/>
      <point x="41" y="584" type="line"/>
      <point x="-39" y="584" type="line"/>
    </contour>
  </outline>
</glyph>
<glyph name="threedotsabovecomb" format="2">
  <unicode hex="20DB"/>
  <anchor x="242" y="536" name="_top"/>
  <anchor x="242" y="0" name="math.ta"/>
  <anchor x="242" y="664" name="top"/>
  <outline>
    <contour>
      <point x="191" y="18" type="curve" smooth="yes"/>
      <point x="218" y="18"/>
      <point x="242" y="35"/>
      <point x="242" y="74" type="curve" smooth="yes"/>
      <point x="242" y="113"/>
      <point x="218" y="130"/>
      <point x="191" y="130" type="curve" smooth="yes"/>
      <point x="162" y="130"/>
      <point x="139" y="113"/>
      <point x="139" y="74" type="curve" smooth="yes"/>
      <point x="139" y="35"/>
      <point x="162" y="18"/>
    </contour>
    <contour>
      <point x="-191" y="18" type="curve" smooth="yes"/>
      <point x="-164" y="18"/>
      <point x="-140" y="35"/>
      <point x="-140" y="74" type="curve" smooth="yes"/>
      <point x="-140" y="113"/>
      <point x="-164" y="130"/>
      <point x="-191" y="130" type="curve" smooth="yes"/>
      <point x="-220" y="130"/>
      <point x="-243" y="113"/>
      <point x="-243" y="74" type="curve" smooth="yes"/>
      <point x="-243" y="35"/>
      <point x="-220" y="18"/>
    </contour>
    <contour>
      <point x="0" y="18" type="curve" smooth="yes"/>
      <point x="27" y="18"/>
      <point x="51" y="35"/>
      <point x="51" y="74" type="curve" smooth="yes"/>
      <point x="51" y="113"/>
      <point x="27" y="130"/>
      <point x="0" y="130" type="curve" smooth="yes"/>
      <point x="-29" y="130"/>
      <point x="-52" y="113"/>
      <point x="-52" y="74" type="curve" smooth="yes"/>
      <point x="-52" y="35"/>
      <point x="-29" y="18"/>
    </contour>
  </outline>
</glyph>
<glyph name="fourdotsabovecomb" format="2">
  <unicode hex="20DC"/>
  <anchor x="338" y="536" name="_top"/>
  <anchor x="338" y="0" name="math.ta"/>
  <anchor x="338" y="664" name="top"/>
  <outline>
    <contour>
      <point x="287" y="21" type="curve" smooth="yes"/>
      <point x="314" y="21"/>
      <point x="338" y="38"/>
      <point x="338" y="77" type="curve" smooth="yes"/>
      <point x="338" y="116"/>
      <point x="314" y="133"/>
      <point x="287" y="133" type="curve" smooth="yes"/>
      <point x="258" y="133"/>
      <point x="235" y="116"/>
      <point x="235" y="77" type="curve" smooth="yes"/>
      <point x="235" y="38"/>
      <point x="258" y="21"/>
    </contour>
    <contour>
      <point x="-286" y="21" type="curve" smooth="yes"/>
      <point x="-259" y="21"/>
      <point x="-235" y="38"/>
      <point x="-235" y="77" type="curve" smooth="yes"/>
      <point x="-235" y="116"/>
      <point x="-259" y="133"/>
      <point x="-286" y="133" type="curve" smooth="yes"/>
      <point x="-315" y="133"/>
      <point x="-338" y="116"/>
      <point x="-338" y="77" type="curve" smooth="yes"/>
      <point x="-338" y="38"/>
      <point x="-315" y="21"/>
    </contour>
    <contour>
      <point x="-95" y="21" type="curve" smooth="yes"/>
      <point x="-68" y="21"/>
      <point x="-44" y="38"/>
      <point x="-44" y="77" type="curve" smooth="yes"/>
      <point x="-44" y="116"/>
      <point x="-68" y="133"/>
      <point x="-95" y="133" type="curve" smooth="yes"/>
      <point x="-124" y="133"/>
      <point x="-147" y="116"/>
      <point x="-147" y="77" type="curve" smooth="yes"/>
      <point x="-147" y="38"/>
      <point x="-124" y="21"/>
    </contour>
    <contour>
      <point x="96" y="21" type="curve" smooth="yes"/>
      <point x="123" y="21"/>
      <point x="147" y="38"/>
      <point x="147" y="77" type="curve" smooth="yes"/>
      <point x="147" y="116"/>
      <point x="123" y="133"/>
      <point x="96" y="133" type="curve" smooth="yes"/>
      <point x="67" y="133"/>
      <point x="44" y="116"/>
      <point x="44" y="77" type="curve" smooth="yes"/>
      <point x="44" y="38"/>
      <point x="67" y="21"/>
    </contour>
  </outline>
</glyph>
<glyph name="enclosingcirclecomb" format="2">
  <advance width="1082"/>
  <unicode hex="20DD"/>
  <anchor x="541" y="357" name="_center"/>
  <outline>
    <contour>
      <point x="541" y="-133" type="curve" smooth="yes"/>
      <point x="811" y="-133"/>
      <point x="1031" y="87"/>
      <point x="1031" y="357" type="curve" smooth="yes"/>
      <point x="1031" y="627"/>
      <point x="811" y="847"/>
      <point x="541" y="847" type="curve" smooth="yes"/>
      <point x="271" y="847"/>
      <point x="51" y="627"/>
      <point x="51" y="357" type="curve" smooth="yes"/>
      <point x="51" y="87"/>
      <point x="271" y="-133"/>
    </contour>
    <contour>
      <point x="541" y="-82" type="curve" smooth="yes"/>
      <point x="299" y="-82"/>
      <point x="102" y="115"/>
      <point x="102" y="357" type="curve" smooth="yes"/>
      <point x="102" y="599"/>
      <point x="299" y="796"/>
      <point x="541" y="796" type="curve" smooth="yes"/>
      <point x="783" y="796"/>
      <point x="980" y="599"/>
      <point x="980" y="357" type="curve" smooth="yes"/>
      <point x="980" y="115"/>
      <point x="783" y="-82"/>
    </contour>
  </outline>
</glyph>
<glyph name="enclosingsquarecomb" format="2">
  <advance width="1084"/>
  <unicode hex="20DE"/>
  <anchor x="542" y="357" name="_center"/>
  <outline>
    <contour>
      <point x="51" y="-134" type="line"/>
      <point x="1033" y="-134" type="line"/>
      <point x="1033" y="848" type="line"/>
      <point x="51" y="848" type="line"/>
    </contour>
    <contour>
      <point x="102" y="-83" type="line"/>
      <point x="102" y="797" type="line"/>
      <point x="982" y="797" type="line"/>
      <point x="982" y="-83" type="line"/>
    </contour>
  </outline>
</glyph>
<glyph name="leftrightarrowabovecomb" format="2">
  <unicode hex="20E1"/>
  <anchor x="298" y="536" name="_top"/>
  <anchor x="298" y="0" name="math.ta"/>
  <anchor x="298" y="486" name="top"/>
  <outline>
    <contour>
      <point x="497" y="670" type="line"/>
      <point x="497" y="730" type="line"/>
      <point x="100" y="730" type="line"/>
      <point x="100" y="670" type="line"/>
    </contour>
    <contour>
      <point x="123" y="592" type="curve"/>
      <point x="167" y="592" type="line"/>
      <point x="148" y="632"/>
      <point x="129" y="662"/>
      <point x="110" y="680" type="curve"/>
      <point x="110" y="720" type="line"/>
      <point x="129" y="738"/>
      <point x="148" y="768"/>
      <point x="167" y="808" type="curve"/>
      <point x="123" y="808" type="line"/>
      <point x="84" y="764"/>
      <point x="43" y="732"/>
      <point x="0" y="711" type="curve"/>
      <point x="0" y="689" type="line"/>
      <point x="43" y="668"/>
      <point x="84" y="636"/>
    </contour>
    <contour>
      <point x="474" y="592" type="line"/>
      <point x="513" y="636"/>
      <point x="554" y="668"/>
      <point x="597" y="689" type="curve"/>
      <point x="597" y="711" type="line"/>
      <point x="554" y="732"/>
      <point x="513" y="764"/>
      <point x="474" y="808" type="curve"/>
      <point x="430" y="808" type="line"/>
      <point x="449" y="768"/>
      <point x="468" y="738"/>
      <point x="487" y="720" type="curve"/>
      <point x="487" y="680" type="line"/>
      <point x="468" y="662"/>
      <point x="449" y="632"/>
      <point x="430" y="592" type="curve"/>
    </contour>
  </outline>
</glyph>
<glyph name="enclosingupwardpointingtrianglecomb" format="2">
  <advance width="1720"/>
  <unicode hex="20E4"/>
  <anchor x="860" y="322" name="_center"/>
  <outline>
    <contour>
      <point x="51" y="-142" type="line"/>
      <point x="1669" y="-142" type="line"/>
      <point x="860" y="1239" type="line"/>
    </contour>
    <contour>
      <point x="140" y="-91" type="line"/>
      <point x="860" y="1138" type="line"/>
      <point x="1580" y="-91" type="line"/>
    </contour>
  </outline>
</glyph>
<glyph name="doubleverticalstrokeoverlaycomb" format="2">
  <unicode hex="20E6"/>
  <anchor x="0" y="260" name="_center"/>
  <outline>
    <contour>
      <point x="73" y="-241" type="line"/>
      <point x="146" y="-241" type="line"/>
      <point x="146" y="760" type="line"/>
      <point x="73" y="760" type="line"/>
    </contour>
    <contour>
      <point x="-147" y="-241" type="line"/>
      <point x="-74" y="-241" type="line"/>
      <point x="-74" y="760" type="line"/>
      <point x="-147" y="760" type="line"/>
    </contour>
  </outline>
</glyph>
<glyph name="AnnuitySymbol" format="2">
  <unicode hex="20E7"/>
  <anchor x="-264" y="0" name="math.ta"/>
  <outline>
    <contour>
      <point x="80" y="0" type="line"/>
      <point x="143" y="0" type="line"/>
      <point x="143" y="776" type="line"/>
      <point x="-633" y="776" type="line"/>
      <point x="-633" y="713" type="line"/>
      <point x="80" y="713" type="line"/>
    </contour>
  </outline>
</glyph>
<glyph name="leftarrowoverlaycomb" format="2">
  <unicode hex="20EA"/>
  <anchor x="0" y="290" name="_center"/>
  <anchor x="0" y="0" name="math.ta"/>
  <anchor x="0" y="353" name="top"/>
  <outline>
    <contour>
      <point x="-164" y="169" type="curve"/>
      <point x="-129" y="169" type="line"/>
      <point x="-149" y="211"/>
      <point x="-168" y="243"/>
      <point x="-187" y="265" type="curve"/>
      <point x="296" y="265" type="line"/>
      <point x="296" y="307" type="line"/>
      <point x="-187" y="307" type="line"/>
      <point x="-168" y="329"/>
      <point x="-149" y="361"/>
      <point x="-129" y="403" type="curve"/>
      <point x="-164" y="403" type="line"/>
      <point x="-206" y="354"/>
      <point x="-250" y="318"/>
      <point x="-296" y="295" type="curve"/>
      <point x="-296" y="277" type="line"/>
      <point x="-250" y="254"/>
      <point x="-206" y="218"/>
    </contour>
  </outline>
</glyph>
<glyph name="planckconstantovertwopi" format="2">
  <advance width="579"/>
  <unicode hex="210F"/>
  <anchor x="347" y="268" name="center"/>
  <anchor x="242" y="0" name="math.ta"/>
  <outline>
    <contour>
      <point x="30" y="444" type="line"/>
      <point x="376" y="620" type="line"/>
      <point x="389" y="682" type="line"/>
      <point x="43" y="506" type="line"/>
    </contour>
    <component base="hsansitalic-math"/>
  </outline>
</glyph>
<glyph name="Lscript" format="2">
  <advance width="855"/>
  <unicode hex="2112"/>
  <anchor x="427" y="357" name="center"/>
  <anchor x="678" y="0" name="math.ta"/>
  <outline>
    <contour>
      <point x="160" y="-10" type="curve" smooth="yes"/>
      <point x="214" y="-10"/>
      <point x="271" y="2"/>
      <point x="327" y="34" type="curve"/>
      <point x="371" y="9"/>
      <point x="417" y="-10"/>
      <point x="469" y="-10" type="curve" smooth="yes"/>
      <point x="562" y="-10"/>
      <point x="640" y="71"/>
      <point x="680" y="140" type="curve" smooth="yes"/>
      <point x="682" y="144"/>
      <point x="683" y="147"/>
      <point x="683" y="151" type="curve" smooth="yes"/>
      <point x="683" y="155"/>
      <point x="680" y="159"/>
      <point x="675" y="159" type="curve" smooth="yes"/>
      <point x="671" y="159"/>
      <point x="667" y="156"/>
      <point x="664" y="150" type="curve" smooth="yes"/>
      <point x="614" y="66"/>
      <point x="538" y="10"/>
      <point x="475" y="10" type="curve" smooth="yes"/>
      <point x="442" y="10"/>
      <point x="400" y="29"/>
      <point x="355" y="53" type="curve"/>
      <point x="408" y="91"/>
      <point x="459" y="147"/>
      <point x="497" y="263" type="curve" smooth="yes"/>
      <point x="535" y="378"/>
      <point x="564" y="465"/>
      <point x="591" y="532" type="curve" smooth="yes"/>
      <point x="614" y="589"/>
      <point x="646" y="638"/>
      <point x="674" y="670" type="curve" smooth="yes"/>
      <point x="694" y="693"/>
      <point x="716" y="708"/>
      <point x="742" y="708" type="curve" smooth="yes"/>
      <point x="767" y="708"/>
      <point x="786" y="686"/>
      <point x="786" y="656" type="curve" smooth="yes"/>
      <point x="786" y="488"/>
      <point x="582" y="284"/>
      <point x="402" y="284" type="curve" smooth="yes"/>
      <point x="324" y="284"/>
      <point x="223" y="312"/>
      <point x="223" y="431" type="curve" smooth="yes"/>
      <point x="223" y="572"/>
      <point x="338" y="708"/>
      <point x="493" y="708" type="curve" smooth="yes"/>
      <point x="515" y="708"/>
      <point x="525" y="707"/>
      <point x="541" y="705" type="curve" smooth="yes"/>
      <point x="554" y="703"/>
      <point x="567" y="701"/>
      <point x="572" y="701" type="curve" smooth="yes"/>
      <point x="577" y="701"/>
      <point x="582" y="703"/>
      <point x="582" y="709" type="curve" smooth="yes"/>
      <point x="582" y="713"/>
      <point x="578" y="717"/>
      <point x="560" y="720" type="curve" smooth="yes"/>
      <point x="543" y="723"/>
      <point x="519" y="725"/>
      <point x="493" y="725" type="curve" smooth="yes"/>
      <point x="321" y="725"/>
      <point x="169" y="599"/>
      <point x="169" y="457" type="curve" smooth="yes"/>
      <point x="169" y="390"/>
      <point x="199" y="265"/>
      <point x="402" y="265" type="curve" smooth="yes"/>
      <point x="612" y="265"/>
      <point x="825" y="520"/>
      <point x="825" y="651" type="curve" smooth="yes"/>
      <point x="825" y="692"/>
      <point x="801" y="724"/>
      <point x="744" y="724" type="curve" smooth="yes"/>
      <point x="592" y="724"/>
      <point x="477" y="480"/>
      <point x="387" y="278" type="curve" smooth="yes"/>
      <point x="352" y="199"/>
      <point x="330" y="152"/>
      <point x="291" y="86" type="curve"/>
      <point x="236" y="114"/>
      <point x="179" y="139"/>
      <point x="128" y="139" type="curve" smooth="yes"/>
      <point x="79" y="139"/>
      <point x="30" y="119"/>
      <point x="30" y="72" type="curve" smooth="yes"/>
      <point x="30" y="20"/>
      <point x="92" y="-10"/>
    </contour>
    <contour>
      <point x="155" y="8" type="curve" smooth="yes"/>
      <point x="114" y="8"/>
      <point x="48" y="28"/>
      <point x="48" y="72" type="curve" smooth="yes"/>
      <point x="48" y="108"/>
      <point x="91" y="121"/>
      <point x="127" y="121" type="curve" smooth="yes"/>
      <point x="181" y="121"/>
      <point x="229" y="94"/>
      <point x="277" y="65" type="curve"/>
      <point x="249" y="27"/>
      <point x="213" y="8"/>
    </contour>
  </outline>
</glyph>
<glyph name="NdoubleStruck" format="2">
  <advance width="778"/>
  <unicode hex="2115"/>
  <anchor x="389" y="357" name="center"/>
  <anchor x="389" y="0" name="math.ta"/>
  <outline>
    <contour>
      <point x="97" y="0" type="line"/>
      <point x="150" y="0" type="line"/>
      <point x="150" y="491" type="line"/>
      <point x="604" y="0" type="line"/>
      <point x="681" y="0" type="line"/>
      <point x="681" y="714" type="line"/>
      <point x="628" y="714" type="line"/>
      <point x="628" y="224" type="line"/>
      <point x="173" y="714" type="line"/>
      <point x="97" y="714" type="line"/>
    </contour>
    <contour>
      <point x="628" y="53" type="line"/>
      <point x="150" y="562" type="line"/>
      <point x="150" y="661" type="line"/>
      <point x="628" y="151" type="line"/>
    </contour>
  </outline>
</glyph>
<glyph name="PdoubleStruck" format="2">
  <advance width="655"/>
  <unicode hex="2119"/>
  <anchor x="350" y="357" name="center"/>
  <anchor x="313" y="0" name="math.ta"/>
  <outline>
    <contour>
      <point x="97" y="0" type="line"/>
      <point x="270" y="0" type="line"/>
      <point x="270" y="303" type="line"/>
      <point x="369" y="303" type="line" smooth="yes"/>
      <point x="492" y="303"/>
      <point x="604" y="390"/>
      <point x="604" y="514" type="curve" smooth="yes"/>
      <point x="604" y="635"/>
      <point x="526" y="714"/>
      <point x="356" y="714" type="curve" smooth="yes"/>
      <point x="97" y="714" type="line"/>
    </contour>
    <contour>
      <point x="150" y="53" type="line"/>
      <point x="150" y="661" type="line"/>
      <point x="217" y="661" type="line"/>
      <point x="217" y="53" type="line"/>
    </contour>
    <contour>
      <point x="270" y="356" type="line"/>
      <point x="270" y="661" type="line"/>
      <point x="409" y="661" type="line"/>
      <point x="409" y="356" type="line"/>
    </contour>
    <contour>
      <point x="463" y="373" type="curve"/>
      <point x="463" y="649" type="line"/>
      <point x="517" y="631"/>
      <point x="546" y="587"/>
      <point x="546" y="514" type="curve" smooth="yes"/>
      <point x="546" y="434"/>
      <point x="511" y="395"/>
    </contour>
  </outline>
</glyph>
<glyph name="Rscript" format="2">
  <advance width="920"/>
  <unicode hex="211B"/>
  <anchor x="457" y="357" name="center"/>
  <anchor x="631" y="0" name="math.ta"/>
  <outline>
    <contour>
      <point x="653" y="-10" type="curve" smooth="yes"/>
      <point x="716" y="-10"/>
      <point x="769" y="43"/>
      <point x="833" y="140" type="curve" smooth="yes"/>
      <point x="838" y="148"/>
      <point x="841" y="154"/>
      <point x="841" y="159" type="curve" smooth="yes"/>
      <point x="841" y="163"/>
      <point x="838" y="166"/>
      <point x="834" y="166" type="curve" smooth="yes"/>
      <point x="829" y="166"/>
      <point x="825" y="161"/>
      <point x="818" y="150" type="curve" smooth="yes"/>
      <point x="768" y="72"/>
      <point x="719" y="24"/>
      <point x="692" y="24" type="curve" smooth="yes"/>
      <point x="678" y="24"/>
      <point x="671" y="37"/>
      <point x="671" y="56" type="curve" smooth="yes"/>
      <point x="671" y="80"/>
      <point x="683" y="113"/>
      <point x="696" y="148" type="curve" smooth="yes"/>
      <point x="709" y="184"/>
      <point x="721" y="221"/>
      <point x="721" y="251" type="curve" smooth="yes"/>
      <point x="721" y="279"/>
      <point x="716" y="322"/>
      <point x="671" y="356" type="curve"/>
      <point x="816" y="391"/>
      <point x="890" y="465"/>
      <point x="890" y="550" type="curve" smooth="yes"/>
      <point x="890" y="604"/>
      <point x="854" y="661"/>
      <point x="778" y="694" type="curve"/>
      <point x="784" y="697"/>
      <point x="789" y="699"/>
      <point x="795" y="701" type="curve" smooth="yes"/>
      <point x="804" y="704"/>
      <point x="811" y="707"/>
      <point x="811" y="712" type="curve" smooth="yes"/>
      <point x="811" y="717"/>
      <point x="807" y="719"/>
      <point x="800" y="719" type="curve" smooth="yes"/>
      <point x="789" y="719"/>
      <point x="766" y="712"/>
      <point x="749" y="704" type="curve"/>
      <point x="712" y="716"/>
      <point x="667" y="724"/>
      <point x="614" y="724" type="curve" smooth="yes"/>
      <point x="370" y="724"/>
      <point x="119" y="568"/>
      <point x="119" y="389" type="curve" smooth="yes"/>
      <point x="119" y="323"/>
      <point x="160" y="288"/>
      <point x="229" y="288" type="curve" smooth="yes"/>
      <point x="358" y="288"/>
      <point x="443" y="419"/>
      <point x="443" y="518" type="curve" smooth="yes"/>
      <point x="443" y="545"/>
      <point x="440" y="570"/>
      <point x="435" y="590" type="curve" smooth="yes"/>
      <point x="432" y="603"/>
      <point x="428" y="611"/>
      <point x="424" y="611" type="curve" smooth="yes"/>
      <point x="419" y="611"/>
      <point x="417" y="603"/>
      <point x="416" y="587" type="curve" smooth="yes"/>
      <point x="405" y="430"/>
      <point x="289" y="311"/>
      <point x="201" y="311" type="curve" smooth="yes"/>
      <point x="165" y="311"/>
      <point x="137" y="337"/>
      <point x="137" y="389" type="curve" smooth="yes"/>
      <point x="137" y="553"/>
      <point x="382" y="708"/>
      <point x="614" y="708" type="curve" smooth="yes"/>
      <point x="660" y="708"/>
      <point x="696" y="702"/>
      <point x="724" y="692" type="curve"/>
      <point x="658" y="653"/>
      <point x="627" y="615"/>
      <point x="603" y="585" type="curve" smooth="yes"/>
      <point x="520" y="481"/>
      <point x="462" y="378"/>
      <point x="422" y="289" type="curve" smooth="yes"/>
      <point x="379" y="194"/>
      <point x="343" y="118"/>
      <point x="302" y="69" type="curve" smooth="yes"/>
      <point x="269" y="30"/>
      <point x="228" y="9"/>
      <point x="173" y="9" type="curve" smooth="yes"/>
      <point x="79" y="9"/>
      <point x="62" y="73"/>
      <point x="62" y="86" type="curve" smooth="yes"/>
      <point x="62" y="105"/>
      <point x="81" y="113"/>
      <point x="121" y="119" type="curve" smooth="yes"/>
      <point x="152" y="124"/>
      <point x="171" y="144"/>
      <point x="171" y="175" type="curve" smooth="yes"/>
      <point x="171" y="200"/>
      <point x="155" y="228"/>
      <point x="113" y="228" type="curve" smooth="yes"/>
      <point x="68" y="228"/>
      <point x="25" y="191"/>
      <point x="25" y="128" type="curve" smooth="yes"/>
      <point x="25" y="105"/>
      <point x="35" y="-9"/>
      <point x="182" y="-9" type="curve" smooth="yes"/>
      <point x="351" y="-9"/>
      <point x="455" y="93"/>
      <point x="515" y="221" type="curve" smooth="yes"/>
      <point x="525" y="243"/>
      <point x="536" y="273"/>
      <point x="543" y="295" type="curve" smooth="yes"/>
      <point x="557" y="336"/>
      <point x="569" y="376"/>
      <point x="580" y="415" type="curve" smooth="yes"/>
      <point x="588" y="444"/>
      <point x="598" y="473"/>
      <point x="608" y="499" type="curve" smooth="yes"/>
      <point x="637" y="578"/>
      <point x="673" y="640"/>
      <point x="747" y="680" type="curve"/>
      <point x="780" y="658"/>
      <point x="796" y="617"/>
      <point x="796" y="554" type="curve" smooth="yes"/>
      <point x="796" y="434"/>
      <point x="688" y="376"/>
      <point x="655" y="369" type="curve"/>
      <point x="640" y="379"/>
      <point x="626" y="383"/>
      <point x="613" y="383" type="curve" smooth="yes"/>
      <point x="602" y="383"/>
      <point x="591" y="376"/>
      <point x="591" y="365" type="curve" smooth="yes"/>
      <point x="591" y="350"/>
      <point x="605" y="344"/>
      <point x="616" y="344" type="curve" smooth="yes"/>
      <point x="628" y="344"/>
      <point x="636" y="346"/>
      <point x="643" y="348" type="curve"/>
      <point x="646" y="343"/>
      <point x="651" y="333"/>
      <point x="651" y="314" type="curve" smooth="yes"/>
      <point x="651" y="287"/>
      <point x="629" y="235"/>
      <point x="605" y="185" type="curve" smooth="yes"/>
      <point x="585" y="143"/>
      <point x="570" y="91"/>
      <point x="570" y="66" type="curve" smooth="yes"/>
      <point x="570" y="32"/>
      <point x="590" y="-10"/>
    </contour>
  </outline>
</glyph>
<glyph name="R-fraktur" format="2">
  <advance width="781"/>
  <unicode hex="211C"/>
  <anchor x="390" y="355" name="center"/>
  <anchor x="365" y="0" name="math.ta"/>
  <outline>
    <contour>
      <point x="62" y="-23" type="line"/>
      <point x="73" y="-13"/>
      <point x="85" y="-7"/>
      <point x="99" y="-7" type="curve" smooth="yes"/>
      <point x="112" y="-7"/>
      <point x="127" y="-10"/>
      <point x="145" y="-15" type="curve" smooth="yes"/>
      <point x="163" y="-20"/>
      <point x="183" y="-23"/>
      <point x="202" y="-23" type="curve" smooth="yes"/>
      <point x="330" y="-23"/>
      <point x="420" y="124"/>
      <point x="420" y="355" type="curve" smooth="yes"/>
      <point x="420" y="556"/>
      <point x="371" y="725"/>
      <point x="218" y="725" type="curve" smooth="yes"/>
      <point x="105" y="725"/>
      <point x="33" y="631"/>
      <point x="33" y="518" type="curve" smooth="yes"/>
      <point x="33" y="422"/>
      <point x="84" y="349"/>
      <point x="176" y="323" type="curve"/>
      <point x="186" y="344" type="line"/>
      <point x="106" y="364"/>
      <point x="58" y="429"/>
      <point x="58" y="511" type="curve" smooth="yes"/>
      <point x="58" y="594"/>
      <point x="111" y="647"/>
      <point x="182" y="647" type="curve" smooth="yes"/>
      <point x="283" y="647"/>
      <point x="346" y="538"/>
      <point x="346" y="315" type="curve" smooth="yes"/>
      <point x="346" y="207"/>
      <point x="316" y="0"/>
      <point x="208" y="0" type="curve" smooth="yes"/>
      <point x="165" y="0"/>
      <point x="138" y="24"/>
      <point x="138" y="63" type="curve" smooth="yes"/>
      <point x="138" y="77"/>
      <point x="142" y="92"/>
      <point x="149" y="108" type="curve"/>
      <point x="132" y="120" type="line"/>
      <point x="121" y="109"/>
      <point x="106" y="103"/>
      <point x="87" y="103" type="curve" smooth="yes"/>
      <point x="69" y="103"/>
      <point x="55" y="105"/>
      <point x="44" y="111" type="curve"/>
      <point x="30" y="92" type="line"/>
      <point x="43" y="77"/>
      <point x="52" y="55"/>
      <point x="52" y="35" type="curve" smooth="yes"/>
      <point x="52" y="14"/>
      <point x="48" y="0"/>
      <point x="45" y="-8" type="curve"/>
    </contour>
    <contour>
      <point x="638" y="-22" type="curve"/>
      <point x="658" y="-22" type="line"/>
      <point x="662" y="-13"/>
      <point x="671" y="-3"/>
      <point x="691" y="15" type="curve" smooth="yes"/>
      <point x="711" y="33"/>
      <point x="735" y="56"/>
      <point x="751" y="83" type="curve"/>
      <point x="736" y="96" type="line"/>
      <point x="716" y="75"/>
      <point x="701" y="70"/>
      <point x="693" y="70" type="curve" smooth="yes"/>
      <point x="681" y="70"/>
      <point x="671" y="77"/>
      <point x="661" y="98" type="curve" smooth="yes"/>
      <point x="651" y="119"/>
      <point x="642" y="161"/>
      <point x="626" y="259" type="curve" smooth="yes"/>
      <point x="603" y="396"/>
      <point x="589" y="429"/>
      <point x="560" y="442" type="curve"/>
      <point x="616" y="487"/>
      <point x="672" y="531"/>
      <point x="725" y="567" type="curve"/>
      <point x="714" y="584" type="line"/>
      <point x="705" y="579"/>
      <point x="699" y="577"/>
      <point x="692" y="577" type="curve" smooth="yes"/>
      <point x="685" y="577"/>
      <point x="672" y="587"/>
      <point x="640" y="619" type="curve" smooth="yes"/>
      <point x="608" y="651"/>
      <point x="581" y="682"/>
      <point x="581" y="697" type="curve" smooth="yes"/>
      <point x="581" y="704"/>
      <point x="585" y="713"/>
      <point x="593" y="719" type="curve"/>
      <point x="581" y="733" type="line"/>
      <point x="556" y="716"/>
      <point x="532" y="701"/>
      <point x="495" y="680" type="curve" smooth="yes"/>
      <point x="458" y="659"/>
      <point x="409" y="628"/>
      <point x="351" y="576" type="curve"/>
      <point x="364" y="557" type="line"/>
      <point x="435" y="624"/>
      <point x="475" y="646"/>
      <point x="493" y="646" type="curve" smooth="yes"/>
      <point x="506" y="646"/>
      <point x="518" y="635"/>
      <point x="554" y="593" type="curve" smooth="yes"/>
      <point x="618" y="519" type="line"/>
      <point x="552" y="462"/>
      <point x="472" y="409"/>
      <point x="392" y="360" type="curve"/>
      <point x="398" y="335" type="line"/>
      <point x="462" y="377" type="line" smooth="yes"/>
      <point x="483" y="391"/>
      <point x="491" y="395"/>
      <point x="498" y="395" type="curve" smooth="yes"/>
      <point x="516" y="395"/>
      <point x="523" y="376"/>
      <point x="539" y="289" type="curve" smooth="yes"/>
      <point x="558" y="184" type="line" smooth="yes"/>
      <point x="579" y="69"/>
      <point x="588" y="39"/>
      <point x="622" y="1" type="curve" smooth="yes"/>
      <point x="632" y="-10"/>
      <point x="636" y="-15"/>
    </contour>
  </outline>
</glyph>
<glyph name="ZdoubleStruck" format="2">
  <advance width="630"/>
  <unicode hex="2124"/>
  <anchor x="314" y="357" name="center"/>
  <anchor x="338" y="0" name="math.ta"/>
  <outline>
    <contour>
      <point x="38" y="0" type="line"/>
      <point x="581" y="0" type="line"/>
      <point x="581" y="53" type="line"/>
      <point x="232" y="53" type="line"/>
      <point x="591" y="661" type="line"/>
      <point x="591" y="714" type="line"/>
      <point x="70" y="714" type="line"/>
      <point x="70" y="661" type="line"/>
      <point x="404" y="661" type="line"/>
      <point x="38" y="53" type="line"/>
    </contour>
    <contour>
      <point x="98" y="53" type="line"/>
      <point x="462" y="661" type="line"/>
      <point x="533" y="661" type="line"/>
      <point x="171" y="53" type="line"/>
    </contour>
  </outline>
</glyph>
<glyph name="Bscript" format="2">
  <advance width="875"/>
  <unicode hex="212C"/>
  <anchor x="427" y="355" name="center"/>
  <anchor x="592" y="0" name="math.ta"/>
  <outline>
    <contour>
      <point x="163" y="-11" type="curve" smooth="yes"/>
      <point x="332" y="-11"/>
      <point x="436" y="91"/>
      <point x="496" y="219" type="curve" smooth="yes"/>
      <point x="506" y="241"/>
      <point x="517" y="271"/>
      <point x="524" y="293" type="curve" smooth="yes"/>
      <point x="540" y="340"/>
      <point x="553" y="384"/>
      <point x="565" y="426" type="curve" smooth="yes"/>
      <point x="581" y="482"/>
      <point x="599" y="532"/>
      <point x="624" y="575" type="curve" smooth="yes"/>
      <point x="649" y="618"/>
      <point x="681" y="653"/>
      <point x="728" y="678" type="curve"/>
      <point x="755" y="654"/>
      <point x="760" y="616"/>
      <point x="760" y="588" type="curve" smooth="yes"/>
      <point x="760" y="487"/>
      <point x="693" y="402"/>
      <point x="653" y="385" type="curve"/>
      <point x="646" y="387"/>
      <point x="630" y="391"/>
      <point x="609" y="391" type="curve" smooth="yes"/>
      <point x="598" y="391"/>
      <point x="568" y="389"/>
      <point x="568" y="369" type="curve" smooth="yes"/>
      <point x="568" y="357"/>
      <point x="585" y="355"/>
      <point x="596" y="355" type="curve" smooth="yes"/>
      <point x="604" y="355"/>
      <point x="630" y="359"/>
      <point x="648" y="368" type="curve"/>
      <point x="658" y="364"/>
      <point x="681" y="354"/>
      <point x="681" y="294" type="curve" smooth="yes"/>
      <point x="681" y="220"/>
      <point x="664" y="170"/>
      <point x="640" y="122" type="curve" smooth="yes"/>
      <point x="604" y="51"/>
      <point x="567" y="12"/>
      <point x="532" y="12" type="curve" smooth="yes"/>
      <point x="515" y="12"/>
      <point x="492" y="27"/>
      <point x="492" y="65" type="curve" smooth="yes"/>
      <point x="492" y="113"/>
      <point x="536" y="161"/>
      <point x="574" y="189" type="curve" smooth="yes"/>
      <point x="580" y="193"/>
      <point x="585" y="197"/>
      <point x="585" y="202" type="curve" smooth="yes"/>
      <point x="585" y="206"/>
      <point x="581" y="208"/>
      <point x="575" y="208" type="curve" smooth="yes"/>
      <point x="570" y="208"/>
      <point x="564" y="206"/>
      <point x="555" y="200" type="curve" smooth="yes"/>
      <point x="475" y="141"/>
      <point x="470" y="85"/>
      <point x="470" y="66" type="curve" smooth="yes"/>
      <point x="470" y="34"/>
      <point x="484" y="-11"/>
      <point x="543" y="-11" type="curve" smooth="yes"/>
      <point x="652" y="-11"/>
      <point x="775" y="107"/>
      <point x="775" y="220" type="curve" smooth="yes"/>
      <point x="775" y="330"/>
      <point x="696" y="368"/>
      <point x="669" y="377" type="curve"/>
      <point x="748" y="413"/>
      <point x="845" y="472"/>
      <point x="845" y="566" type="curve" smooth="yes"/>
      <point x="845" y="620"/>
      <point x="821" y="665"/>
      <point x="759" y="692" type="curve"/>
      <point x="768" y="697"/>
      <point x="780" y="701"/>
      <point x="788" y="703" type="curve" smooth="yes"/>
      <point x="799" y="706"/>
      <point x="805" y="708"/>
      <point x="805" y="713" type="curve" smooth="yes"/>
      <point x="805" y="718"/>
      <point x="799" y="719"/>
      <point x="793" y="719" type="curve" smooth="yes"/>
      <point x="781" y="719"/>
      <point x="752" y="712"/>
      <point x="730" y="702" type="curve"/>
      <point x="693" y="714"/>
      <point x="648" y="722"/>
      <point x="595" y="722" type="curve" smooth="yes"/>
      <point x="474" y="722"/>
      <point x="367" y="687"/>
      <point x="292" y="643" type="curve" smooth="yes"/>
      <point x="242" y="614"/>
      <point x="119" y="533"/>
      <point x="119" y="418" type="curve" smooth="yes"/>
      <point x="119" y="349"/>
      <point x="160" y="314"/>
      <point x="229" y="314" type="curve" smooth="yes"/>
      <point x="358" y="314"/>
      <point x="440" y="445"/>
      <point x="440" y="544" type="curve" smooth="yes"/>
      <point x="440" y="586"/>
      <point x="436" y="617"/>
      <point x="428" y="617" type="curve" smooth="yes"/>
      <point x="423" y="617"/>
      <point x="421" y="610"/>
      <point x="420" y="595" type="curve" smooth="yes"/>
      <point x="411" y="456"/>
      <point x="290" y="337"/>
      <point x="201" y="337" type="curve" smooth="yes"/>
      <point x="165" y="337"/>
      <point x="138" y="363"/>
      <point x="138" y="418" type="curve" smooth="yes"/>
      <point x="138" y="530"/>
      <point x="263" y="605"/>
      <point x="302" y="628" type="curve" smooth="yes"/>
      <point x="358" y="661"/>
      <point x="473" y="704"/>
      <point x="595" y="704" type="curve" smooth="yes"/>
      <point x="641" y="704"/>
      <point x="677" y="700"/>
      <point x="705" y="690" type="curve"/>
      <point x="681" y="677"/>
      <point x="660" y="661"/>
      <point x="643" y="645" type="curve" smooth="yes"/>
      <point x="618" y="622"/>
      <point x="585" y="585"/>
      <point x="567" y="562" type="curve" smooth="yes"/>
      <point x="510" y="489"/>
      <point x="463" y="404"/>
      <point x="422" y="315" type="curve" smooth="yes"/>
      <point x="341" y="140"/>
      <point x="278" y="8"/>
      <point x="156" y="8" type="curve" smooth="yes"/>
      <point x="72" y="8"/>
      <point x="49" y="57"/>
      <point x="49" y="79" type="curve" smooth="yes"/>
      <point x="49" y="104"/>
      <point x="73" y="109"/>
      <point x="102" y="114" type="curve" smooth="yes"/>
      <point x="131" y="119"/>
      <point x="158" y="136"/>
      <point x="158" y="167" type="curve" smooth="yes"/>
      <point x="158" y="192"/>
      <point x="143" y="218"/>
      <point x="95" y="218" type="curve" smooth="yes"/>
      <point x="50" y="218"/>
      <point x="10" y="180"/>
      <point x="10" y="115" type="curve" smooth="yes"/>
      <point x="10" y="76"/>
      <point x="38" y="-11"/>
    </contour>
  </outline>
</glyph>
<glyph name="Fscript" format="2">
  <advance width="870"/>
  <unicode hex="2131"/>
  <anchor x="455" y="359" name="center"/>
  <anchor x="900" y="0" name="math.ic"/>
  <anchor x="689" y="0" name="math.ta"/>
  <outline>
    <contour>
      <point x="205" y="-10" type="curve" smooth="yes"/>
      <point x="395" y="-10"/>
      <point x="508" y="123"/>
      <point x="568" y="338" type="curve" smooth="yes"/>
      <point x="603" y="463"/>
      <point x="619" y="509"/>
      <point x="655" y="563" type="curve" smooth="yes"/>
      <point x="663" y="575"/>
      <point x="667" y="581"/>
      <point x="667" y="586" type="curve" smooth="yes"/>
      <point x="667" y="591"/>
      <point x="663" y="593"/>
      <point x="659" y="593" type="curve" smooth="yes"/>
      <point x="645" y="593"/>
      <point x="519" y="503"/>
      <point x="439" y="314" type="curve" smooth="yes"/>
      <point x="348" y="99"/>
      <point x="276" y="8"/>
      <point x="187" y="8" type="curve" smooth="yes"/>
      <point x="129" y="8"/>
      <point x="72" y="48"/>
      <point x="72" y="88" type="curve" smooth="yes"/>
      <point x="72" y="113"/>
      <point x="90" y="120"/>
      <point x="126" y="125" type="curve" smooth="yes"/>
      <point x="158" y="129"/>
      <point x="176" y="152"/>
      <point x="176" y="181" type="curve" smooth="yes"/>
      <point x="176" y="213"/>
      <point x="153" y="237"/>
      <point x="113" y="237" type="curve" smooth="yes"/>
      <point x="69" y="237"/>
      <point x="30" y="192"/>
      <point x="30" y="137" type="curve" smooth="yes"/>
      <point x="30" y="63"/>
      <point x="88" y="-10"/>
    </contour>
    <contour>
      <point x="557" y="173" type="curve"/>
      <point x="634" y="195" type="line"/>
      <point x="652" y="242"/>
      <point x="660" y="272"/>
      <point x="660" y="318" type="curve"/>
      <point x="698" y="342"/>
      <point x="729" y="376"/>
      <point x="729" y="401" type="curve" smooth="yes"/>
      <point x="729" y="412"/>
      <point x="720" y="426"/>
      <point x="705" y="426" type="curve" smooth="yes"/>
      <point x="677" y="426"/>
      <point x="650" y="395"/>
      <point x="624" y="330" type="curve"/>
      <point x="603" y="318"/>
      <point x="552" y="309"/>
      <point x="475" y="305" type="curve" smooth="yes"/>
      <point x="311" y="296"/>
      <point x="253" y="220"/>
      <point x="253" y="207" type="curve" smooth="yes"/>
      <point x="253" y="203"/>
      <point x="254" y="200"/>
      <point x="259" y="200" type="curve" smooth="yes"/>
      <point x="263" y="200"/>
      <point x="268" y="205"/>
      <point x="277" y="215" type="curve" smooth="yes"/>
      <point x="312" y="254"/>
      <point x="366" y="281"/>
      <point x="489" y="289" type="curve" smooth="yes"/>
      <point x="572" y="294"/>
      <point x="600" y="302"/>
      <point x="618" y="309" type="curve"/>
      <point x="608" y="266"/>
      <point x="583" y="218"/>
    </contour>
    <contour>
      <point x="254" y="309" type="curve" smooth="yes"/>
      <point x="350" y="309"/>
      <point x="444" y="401"/>
      <point x="444" y="517" type="curve" smooth="yes"/>
      <point x="444" y="569"/>
      <point x="422" y="624"/>
      <point x="408" y="624" type="curve" smooth="yes"/>
      <point x="403" y="624"/>
      <point x="400" y="621"/>
      <point x="400" y="615" type="curve" smooth="yes"/>
      <point x="400" y="605"/>
      <point x="404" y="592"/>
      <point x="404" y="570" type="curve" smooth="yes"/>
      <point x="404" y="472"/>
      <point x="307" y="328"/>
      <point x="236" y="328" type="curve" smooth="yes"/>
      <point x="203" y="328"/>
      <point x="168" y="356"/>
      <point x="168" y="416" type="curve" smooth="yes"/>
      <point x="168" y="526"/>
      <point x="299" y="694"/>
      <point x="474" y="694" type="curve" smooth="yes"/>
      <point x="582" y="694"/>
      <point x="655" y="613"/>
      <point x="760" y="613" type="curve" smooth="yes"/>
      <point x="829" y="613"/>
      <point x="880" y="674"/>
      <point x="880" y="704" type="curve" smooth="yes"/>
      <point x="880" y="708"/>
      <point x="878" y="710"/>
      <point x="875" y="710" type="curve" smooth="yes"/>
      <point x="873" y="710"/>
      <point x="870" y="709"/>
      <point x="865" y="706" type="curve" smooth="yes"/>
      <point x="846" y="692"/>
      <point x="827" y="682"/>
      <point x="798" y="682" type="curve" smooth="yes"/>
      <point x="698" y="682"/>
      <point x="681" y="729"/>
      <point x="535" y="729" type="curve" smooth="yes"/>
      <point x="290" y="729"/>
      <point x="150" y="542"/>
      <point x="150" y="416" type="curve" smooth="yes"/>
      <point x="150" y="350"/>
      <point x="186" y="309"/>
    </contour>
  </outline>
</glyph>
<glyph name="oscript" format="2">
  <advance width="440"/>
  <unicode hex="2134"/>
  <anchor x="219" y="150" name="center"/>
  <anchor x="288" y="0" name="math.ta"/>
  <outline>
    <contour>
      <point x="136" y="-7" type="curve" smooth="yes"/>
      <point x="183" y="-7"/>
      <point x="224" y="12"/>
      <point x="261" y="43" type="curve"/>
      <point x="307" y="45"/>
      <point x="351" y="63"/>
      <point x="396" y="103" type="curve"/>
      <point x="384" y="117" type="line"/>
      <point x="355" y="94"/>
      <point x="328" y="80"/>
      <point x="298" y="77" type="curve"/>
      <point x="352" y="126"/>
      <point x="378" y="175"/>
      <point x="378" y="221" type="curve" smooth="yes"/>
      <point x="378" y="278"/>
      <point x="348" y="308"/>
      <point x="282" y="308" type="curve" smooth="yes"/>
      <point x="168" y="308"/>
      <point x="42" y="191"/>
      <point x="42" y="96" type="curve" smooth="yes"/>
      <point x="42" y="33"/>
      <point x="84" y="-7"/>
    </contour>
    <contour>
      <point x="151" y="9" type="curve" smooth="yes"/>
      <point x="134" y="9"/>
      <point x="124" y="20"/>
      <point x="124" y="35" type="curve" smooth="yes"/>
      <point x="124" y="68"/>
      <point x="185" y="193"/>
      <point x="236" y="249" type="curve" smooth="yes"/>
      <point x="260" y="276"/>
      <point x="284" y="288"/>
      <point x="301" y="288" type="curve" smooth="yes"/>
      <point x="317" y="288"/>
      <point x="333" y="275"/>
      <point x="333" y="249" type="curve" smooth="yes"/>
      <point x="333" y="208"/>
      <point x="309" y="152"/>
      <point x="257" y="95" type="curve"/>
      <point x="226" y="91"/>
      <point x="203" y="75"/>
      <point x="203" y="59" type="curve" smooth="yes"/>
      <point x="203" y="52"/>
      <point x="206" y="47"/>
      <point x="212" y="44" type="curve"/>
      <point x="189" y="20"/>
      <point x="168" y="9"/>
    </contour>
  </outline>
</glyph>
<glyph name="jitalicDoubleStruck" format="2">
  <advance width="508"/>
  <unicode hex="2149"/>
  <anchor x="263" y="264" name="center"/>
  <anchor x="432" y="0" name="math.ta"/>
  <outline>
    <contour>
      <point x="100" y="-240" type="curve" smooth="yes"/>
      <point x="268" y="-240"/>
      <point x="345" y="-110"/>
      <point x="363" y="-25" type="curve" smooth="yes"/>
      <point x="484" y="536" type="line"/>
      <point x="310" y="536" type="line"/>
      <point x="174" y="-103" type="line" smooth="yes"/>
      <point x="161" y="-166"/>
      <point x="127" y="-185"/>
      <point x="91" y="-185" type="curve" smooth="yes"/>
      <point x="68" y="-185"/>
      <point x="50" y="-179"/>
      <point x="31" y="-171" type="curve"/>
      <point x="20" y="-224" type="line"/>
      <point x="47" y="-236"/>
      <point x="73" y="-240"/>
    </contour>
    <contour>
      <point x="215" y="-163" type="curve"/>
      <point x="352" y="483" type="line"/>
      <point x="418" y="483" type="line"/>
      <point x="313" y="-18" type="line" smooth="yes"/>
      <point x="296" y="-98"/>
      <point x="255" y="-136"/>
    </contour>
    <contour>
      <point x="413" y="592" type="curve" smooth="yes"/>
      <point x="460" y="592"/>
      <point x="507" y="630"/>
      <point x="507" y="698" type="curve" smooth="yes"/>
      <point x="507" y="744"/>
      <point x="483" y="769"/>
      <point x="431" y="769" type="curve" smooth="yes"/>
      <point x="368" y="769"/>
      <point x="334" y="723"/>
      <point x="334" y="667" type="curve" smooth="yes"/>
      <point x="334" y="617"/>
      <point x="367" y="592"/>
    </contour>
    <contour>
      <point x="417" y="642" type="curve" smooth="yes"/>
      <point x="398" y="642"/>
      <point x="384" y="654"/>
      <point x="384" y="675" type="curve" smooth="yes"/>
      <point x="384" y="698"/>
      <point x="398" y="719"/>
      <point x="425" y="719" type="curve" smooth="yes"/>
      <point x="447" y="719"/>
      <point x="457" y="707"/>
      <point x="457" y="688" type="curve" smooth="yes"/>
      <point x="457" y="659"/>
      <point x="437" y="642"/>
    </contour>
  </outline>
</glyph>
<glyph name="leftArrow" format="2">
  <advance width="1012"/>
  <unicode hex="2190"/>
  <anchor x="506" y="278" name="center"/>
  <outline>
    <contour>
      <point x="271" y="83" type="curve"/>
      <point x="328" y="83" type="line"/>
      <point x="293" y="160"/>
      <point x="257" y="218"/>
      <point x="223" y="252" type="curve"/>
      <point x="223" y="304" type="line"/>
      <point x="257" y="338"/>
      <point x="293" y="396"/>
      <point x="328" y="473" type="curve"/>
      <point x="271" y="473" type="line"/>
      <point x="201" y="391"/>
      <point x="127" y="331"/>
      <point x="51" y="292" type="curve"/>
      <point x="51" y="264" type="line"/>
      <point x="127" y="225"/>
      <point x="201" y="165"/>
    </contour>
    <contour>
      <point x="184" y="243" type="line"/>
      <point x="961" y="243" type="line"/>
      <point x="961" y="314" type="line"/>
      <point x="184" y="314" type="line"/>
    </contour>
  </outline>
</glyph>
<glyph name="leftWaveArrow" format="2">
  <advance width="1012"/>
  <unicode hex="219C"/>
  <anchor x="525" y="278" name="center"/>
  <outline>
    <contour>
      <point x="96" y="149" type="line"/>
      <point x="130" y="226"/>
      <point x="151" y="290"/>
      <point x="154" y="339" type="curve"/>
      <point x="194" y="373" type="line"/>
      <point x="242" y="369"/>
      <point x="309" y="381"/>
      <point x="391" y="404" type="curve"/>
      <point x="351" y="448" type="line"/>
      <point x="325" y="449"/>
      <point x="297" y="449"/>
      <point x="279" y="450" type="curve" smooth="yes"/>
      <point x="202" y="455"/>
      <point x="133" y="471"/>
      <point x="73" y="495" type="curve"/>
      <point x="51" y="477" type="line"/>
      <point x="65" y="414"/>
      <point x="72" y="343"/>
      <point x="66" y="267" type="curve" smooth="yes"/>
      <point x="64" y="242"/>
      <point x="63" y="217"/>
      <point x="58" y="193" type="curve"/>
    </contour>
    <contour>
      <point x="961" y="208" type="line"/>
      <point x="850" y="320" type="line" smooth="yes"/>
      <point x="797" y="376"/>
      <point x="757" y="406"/>
      <point x="692" y="406" type="curve" smooth="yes"/>
      <point x="623" y="406"/>
      <point x="592" y="372"/>
      <point x="532" y="321" type="curve" smooth="yes"/>
      <point x="489" y="285" type="line" smooth="yes"/>
      <point x="447" y="249"/>
      <point x="416" y="220"/>
      <point x="390" y="220" type="curve" smooth="yes"/>
      <point x="364" y="220"/>
      <point x="344" y="231"/>
      <point x="321" y="256" type="curve" smooth="yes"/>
      <point x="184" y="393" type="line"/>
      <point x="134" y="343" type="line"/>
      <point x="270" y="206" type="line" smooth="yes"/>
      <point x="305" y="170"/>
      <point x="344" y="149"/>
      <point x="390" y="149" type="curve" smooth="yes"/>
      <point x="437" y="149"/>
      <point x="488" y="191"/>
      <point x="534" y="230" type="curve" smooth="yes"/>
      <point x="578" y="267" type="line" smooth="yes"/>
      <point x="623" y="305"/>
      <point x="643" y="335"/>
      <point x="692" y="335" type="curve" smooth="yes"/>
      <point x="736" y="335"/>
      <point x="762" y="310"/>
      <point x="799" y="271" type="curve" smooth="yes"/>
      <point x="910" y="158" type="line"/>
    </contour>
  </outline>
</glyph>
<glyph name="leftTwoheadedArrow" format="2">
  <advance width="1012"/>
  <unicode hex="219E"/>
  <anchor x="572" y="278" name="center"/>
  <outline>
    <contour>
      <point x="471" y="83" type="curve"/>
      <point x="528" y="83" type="line"/>
      <point x="493" y="160"/>
      <point x="457" y="218"/>
      <point x="423" y="252" type="curve"/>
      <point x="423" y="304" type="line"/>
      <point x="457" y="338"/>
      <point x="493" y="396"/>
      <point x="528" y="473" type="curve"/>
      <point x="471" y="473" type="line"/>
      <point x="401" y="391"/>
      <point x="327" y="331"/>
      <point x="251" y="292" type="curve"/>
      <point x="251" y="264" type="line"/>
      <point x="327" y="225"/>
      <point x="401" y="165"/>
    </contour>
    <component base="leftArrow"/>
  </outline>
</glyph>
<glyph name="leftTailArrow" format="2">
  <advance width="1012"/>
  <unicode hex="21A2"/>
  <anchor x="511" y="278" name="center"/>
  <outline>
    <contour>
      <point x="877" y="83" type="line"/>
      <point x="961" y="83" type="line"/>
      <point x="803" y="278" type="line"/>
      <point x="961" y="473" type="line"/>
      <point x="877" y="473" type="line"/>
      <point x="718" y="278" type="line"/>
    </contour>
    <contour>
      <point x="271" y="84" type="curve"/>
      <point x="328" y="84" type="line"/>
      <point x="293" y="161"/>
      <point x="257" y="219"/>
      <point x="223" y="253" type="curve"/>
      <point x="223" y="305" type="line"/>
      <point x="257" y="339"/>
      <point x="293" y="397"/>
      <point x="328" y="474" type="curve"/>
      <point x="271" y="474" type="line"/>
      <point x="201" y="392"/>
      <point x="127" y="332"/>
      <point x="51" y="293" type="curve"/>
      <point x="51" y="265" type="line"/>
      <point x="127" y="226"/>
      <point x="201" y="166"/>
    </contour>
    <contour>
      <point x="184" y="244" type="line"/>
      <point x="781" y="244" type="line"/>
      <point x="781" y="315" type="line"/>
      <point x="184" y="315" type="line"/>
    </contour>
  </outline>
</glyph>
<glyph name="leftHookArrow" format="2">
  <advance width="1046"/>
  <unicode hex="21A9"/>
  <anchor x="523" y="331" name="center"/>
  <outline>
    <contour>
      <point x="184" y="244" type="line"/>
      <point x="793" y="244" type="line" smooth="yes"/>
      <point x="903" y="244"/>
      <point x="995" y="278"/>
      <point x="995" y="411" type="curve" smooth="yes"/>
      <point x="995" y="544"/>
      <point x="903" y="577"/>
      <point x="793" y="577" type="curve" smooth="yes"/>
      <point x="670" y="577" type="line"/>
      <point x="670" y="506" type="line"/>
      <point x="781" y="506" type="line" smooth="yes"/>
      <point x="865" y="506"/>
      <point x="924" y="495"/>
      <point x="924" y="411" type="curve" smooth="yes"/>
      <point x="924" y="327"/>
      <point x="865" y="315"/>
      <point x="781" y="315" type="curve" smooth="yes"/>
      <point x="184" y="315" type="line"/>
    </contour>
    <contour>
      <point x="271" y="84" type="curve"/>
      <point x="328" y="84" type="line"/>
      <point x="293" y="161"/>
      <point x="257" y="219"/>
      <point x="223" y="253" type="curve"/>
      <point x="223" y="305" type="line"/>
      <point x="257" y="339"/>
      <point x="293" y="397"/>
      <point x="328" y="474" type="curve"/>
      <point x="271" y="474" type="line"/>
      <point x="201" y="392"/>
      <point x="127" y="332"/>
      <point x="51" y="293" type="curve"/>
      <point x="51" y="265" type="line"/>
      <point x="127" y="226"/>
      <point x="201" y="166"/>
    </contour>
  </outline>
</glyph>
<glyph name="leftRightWaveArrow" format="2">
  <advance width="1221"/>
  <unicode hex="21AD"/>
  <anchor x="610" y="278" name="center"/>
  <outline>
    <contour>
      <point x="417" y="128" type="curve" smooth="yes"/>
      <point x="556" y="128"/>
      <point x="539" y="342"/>
      <point x="611" y="342" type="curve" smooth="yes"/>
      <point x="683" y="342"/>
      <point x="666" y="128"/>
      <point x="806" y="128" type="curve" smooth="yes"/>
      <point x="857" y="128"/>
      <point x="891" y="162"/>
      <point x="919" y="242" type="curve"/>
      <point x="1037" y="242" type="line"/>
      <point x="1037" y="314" type="line"/>
      <point x="874" y="314" type="line"/>
      <point x="861" y="246"/>
      <point x="841" y="196"/>
      <point x="806" y="196" type="curve" smooth="yes"/>
      <point x="715" y="196"/>
      <point x="747" y="411"/>
      <point x="611" y="411" type="curve" smooth="yes"/>
      <point x="476" y="411"/>
      <point x="507" y="196"/>
      <point x="417" y="196" type="curve" smooth="yes"/>
      <point x="381" y="196"/>
      <point x="361" y="246"/>
      <point x="348" y="314" type="curve"/>
      <point x="185" y="314" type="line"/>
      <point x="185" y="242" type="line"/>
      <point x="303" y="242" type="line"/>
      <point x="331" y="162"/>
      <point x="365" y="128"/>
    </contour>
    <contour>
      <point x="271" y="83" type="curve"/>
      <point x="328" y="83" type="line"/>
      <point x="293" y="160"/>
      <point x="257" y="218"/>
      <point x="223" y="252" type="curve"/>
      <point x="223" y="304" type="line"/>
      <point x="257" y="338"/>
      <point x="293" y="396"/>
      <point x="328" y="473" type="curve"/>
      <point x="271" y="473" type="line"/>
      <point x="201" y="391"/>
      <point x="127" y="331"/>
      <point x="51" y="292" type="curve"/>
      <point x="51" y="264" type="line"/>
      <point x="127" y="225"/>
      <point x="201" y="165"/>
    </contour>
    <contour>
      <point x="893" y="83" type="curve"/>
      <point x="950" y="83" type="line"/>
      <point x="1020" y="165"/>
      <point x="1094" y="225"/>
      <point x="1170" y="264" type="curve"/>
      <point x="1170" y="292" type="line"/>
      <point x="1094" y="331"/>
      <point x="1020" y="391"/>
      <point x="950" y="473" type="curve"/>
      <point x="893" y="473" type="line"/>
      <point x="928" y="396"/>
      <point x="964" y="338"/>
      <point x="998" y="304" type="curve"/>
      <point x="998" y="252" type="line"/>
      <point x="964" y="218"/>
      <point x="928" y="160"/>
    </contour>
  </outline>
</glyph>
<glyph name="downZigzagArrow" format="2">
  <advance width="619"/>
  <unicode hex="21AF"/>
  <anchor x="319" y="279" name="center"/>
  <outline>
    <contour>
      <point x="228" y="734" type="line"/>
      <point x="51" y="171" type="line"/>
      <point x="422" y="348" type="line"/>
      <point x="274" y="-9" type="line"/>
      <point x="340" y="-41" type="line"/>
      <point x="568" y="506" type="line"/>
      <point x="174" y="318" type="line"/>
      <point x="297" y="709" type="line"/>
    </contour>
    <contour>
      <point x="332" y="-29" type="curve"/>
      <point x="287" y="-11" type="line"/>
      <point x="267" y="31"/>
      <point x="229" y="82"/>
      <point x="175" y="144" type="curve"/>
      <point x="154" y="92" type="line"/>
      <point x="201" y="1"/>
      <point x="228" y="-88"/>
      <point x="235" y="-172" type="curve"/>
      <point x="262" y="-183" type="line"/>
      <point x="325" y="-127"/>
      <point x="406" y="-83"/>
      <point x="502" y="-51" type="curve"/>
      <point x="523" y="1" type="line"/>
      <point x="445" y="-3"/>
      <point x="377" y="-14"/>
    </contour>
  </outline>
</glyph>
<glyph name="upTipLeftArrow" format="2">
  <advance width="722"/>
  <unicode hex="21B0"/>
  <anchor x="361" y="280" name="center"/>
  <outline>
    <contour>
      <point x="536" y="-175" type="line"/>
      <point x="607" y="-175" type="line"/>
      <point x="607" y="576" type="line"/>
      <point x="198" y="576" type="line"/>
      <point x="198" y="505" type="line"/>
      <point x="536" y="505" type="line"/>
    </contour>
    <contour>
      <point x="335" y="346" type="curve"/>
      <point x="393" y="346" type="line"/>
      <point x="357" y="422"/>
      <point x="322" y="480"/>
      <point x="287" y="514" type="curve"/>
      <point x="287" y="567" type="line"/>
      <point x="322" y="601"/>
      <point x="357" y="659"/>
      <point x="393" y="735" type="curve"/>
      <point x="335" y="735" type="line"/>
      <point x="265" y="653"/>
      <point x="191" y="593"/>
      <point x="115" y="555" type="curve"/>
      <point x="115" y="526" type="line"/>
      <point x="191" y="488"/>
      <point x="265" y="427"/>
    </contour>
  </outline>
</glyph>
<glyph name="upTipRightArrow" format="2">
  <advance width="722"/>
  <unicode hex="21B1"/>
  <anchor x="361" y="280" name="center"/>
  <outline>
    <contour>
      <point x="115" y="-175" type="line"/>
      <point x="186" y="-175" type="line"/>
      <point x="186" y="505" type="line"/>
      <point x="524" y="505" type="line"/>
      <point x="524" y="576" type="line"/>
      <point x="115" y="576" type="line"/>
    </contour>
    <contour>
      <point x="330" y="346" type="curve"/>
      <point x="387" y="346" type="line"/>
      <point x="457" y="427"/>
      <point x="531" y="488"/>
      <point x="607" y="526" type="curve"/>
      <point x="607" y="555" type="line"/>
      <point x="531" y="593"/>
      <point x="457" y="653"/>
      <point x="387" y="735" type="curve"/>
      <point x="330" y="735" type="line"/>
      <point x="365" y="659"/>
      <point x="401" y="601"/>
      <point x="435" y="567" type="curve"/>
      <point x="435" y="514" type="line"/>
      <point x="401" y="480"/>
      <point x="365" y="422"/>
    </contour>
  </outline>
</glyph>
<glyph name="downTipLeftArrow" format="2">
  <advance width="722"/>
  <unicode hex="21B2"/>
  <anchor x="361" y="280" name="center"/>
  <outline>
    <contour>
      <point x="198" y="-16" type="line"/>
      <point x="607" y="-16" type="line"/>
      <point x="607" y="735" type="line"/>
      <point x="536" y="735" type="line"/>
      <point x="536" y="55" type="line"/>
      <point x="198" y="55" type="line"/>
    </contour>
    <contour>
      <point x="335" y="-175" type="curve"/>
      <point x="393" y="-175" type="line"/>
      <point x="357" y="-99"/>
      <point x="322" y="-41"/>
      <point x="287" y="-7" type="curve"/>
      <point x="287" y="46" type="line"/>
      <point x="322" y="80"/>
      <point x="357" y="138"/>
      <point x="393" y="214" type="curve"/>
      <point x="335" y="214" type="line"/>
      <point x="265" y="133"/>
      <point x="191" y="72"/>
      <point x="115" y="34" type="curve"/>
      <point x="115" y="5" type="line"/>
      <point x="191" y="-33"/>
      <point x="265" y="-93"/>
    </contour>
  </outline>
</glyph>
<glyph name="topCircleRightArrow" format="2">
  <advance width="1257"/>
  <unicode hex="21B7"/>
  <anchor x="628" y="278" name="center"/>
  <outline>
    <contour>
      <point x="135" y="91" type="curve"/>
      <point x="206" y="91" type="line"/>
      <point x="206" y="290"/>
      <point x="366" y="450"/>
      <point x="565" y="450" type="curve" smooth="yes"/>
      <point x="763" y="450"/>
      <point x="924" y="290"/>
      <point x="924" y="91" type="curve"/>
      <point x="995" y="91" type="line"/>
      <point x="995" y="329"/>
      <point x="803" y="521"/>
      <point x="565" y="521" type="curve" smooth="yes"/>
      <point x="327" y="521"/>
      <point x="135" y="329"/>
    </contour>
    <contour>
      <point x="968" y="35" type="curve"/>
      <point x="996" y="40" type="line"/>
      <point x="1016" y="124"/>
      <point x="1058" y="208"/>
      <point x="1122" y="295" type="curve"/>
      <point x="1109" y="352" type="line"/>
      <point x="1043" y="300"/>
      <point x="996" y="252"/>
      <point x="968" y="211" type="curve"/>
      <point x="918" y="199" type="line"/>
      <point x="878" y="224"/>
      <point x="812" y="246"/>
      <point x="730" y="264" type="curve"/>
      <point x="744" y="208" type="line"/>
      <point x="838" y="157"/>
      <point x="913" y="99"/>
    </contour>
  </outline>
</glyph>
<glyph name="northWestToLongbarArrow" format="2">
  <advance width="781"/>
  <unicode hex="21B8"/>
  <anchor x="348" y="278" name="center"/>
  <outline>
    <contour>
      <point x="51" y="641" type="line"/>
      <point x="660" y="641" type="line"/>
      <point x="660" y="712" type="line"/>
      <point x="51" y="712" type="line"/>
    </contour>
    <component base="northWestArrow"/>
  </outline>
</glyph>
<glyph name="anticlockwiseOpenCircleArrow" format="2">
  <advance width="1187"/>
  <unicode hex="21BA"/>
  <anchor x="593" y="278" name="center"/>
  <outline>
    <contour>
      <point x="868" y="583" type="curve"/>
      <point x="915" y="583"/>
      <point x="977" y="591"/>
      <point x="1052" y="612" type="curve"/>
      <point x="1015" y="657" type="line"/>
      <point x="907" y="657"/>
      <point x="814" y="675"/>
      <point x="736" y="708" type="curve"/>
      <point x="714" y="690" type="line"/>
      <point x="734" y="607"/>
      <point x="735" y="512"/>
      <point x="716" y="406" type="curve"/>
      <point x="753" y="362" type="line"/>
      <point x="787" y="432"/>
      <point x="807" y="490"/>
      <point x="814" y="537" type="curve"/>
      <point x="874" y="479"/>
      <point x="924" y="392"/>
      <point x="924" y="278" type="curve" smooth="yes"/>
      <point x="924" y="79"/>
      <point x="764" y="-81"/>
      <point x="565" y="-81" type="curve" smooth="yes"/>
      <point x="367" y="-81"/>
      <point x="206" y="79"/>
      <point x="206" y="278" type="curve" smooth="yes"/>
      <point x="206" y="409"/>
      <point x="277" y="516"/>
      <point x="363" y="575" type="curve"/>
      <point x="323" y="633" type="line"/>
      <point x="215" y="559"/>
      <point x="135" y="437"/>
      <point x="135" y="278" type="curve" smooth="yes"/>
      <point x="135" y="40"/>
      <point x="327" y="-152"/>
      <point x="565" y="-152" type="curve" smooth="yes"/>
      <point x="803" y="-152"/>
      <point x="995" y="40"/>
      <point x="995" y="278" type="curve" smooth="yes"/>
      <point x="995" y="402"/>
      <point x="944" y="509"/>
    </contour>
  </outline>
</glyph>
<glyph name="clockwiseOpenCircleArrow" format="2">
  <advance width="1187"/>
  <unicode hex="21BB"/>
  <anchor x="593" y="278" name="center"/>
  <outline>
    <contour>
      <point x="864" y="633" type="curve"/>
      <point x="824" y="575" type="line"/>
      <point x="858" y="554"/>
      <point x="981" y="453"/>
      <point x="981" y="278" type="curve" smooth="yes"/>
      <point x="981" y="79"/>
      <point x="820" y="-81"/>
      <point x="622" y="-81" type="curve" smooth="yes"/>
      <point x="423" y="-81"/>
      <point x="263" y="79"/>
      <point x="263" y="278" type="curve" smooth="yes"/>
      <point x="263" y="395"/>
      <point x="317" y="483"/>
      <point x="373" y="538" type="curve"/>
      <point x="380" y="491"/>
      <point x="400" y="432"/>
      <point x="434" y="362" type="curve"/>
      <point x="471" y="406" type="line"/>
      <point x="452" y="512"/>
      <point x="453" y="607"/>
      <point x="473" y="690" type="curve"/>
      <point x="451" y="708" type="line"/>
      <point x="373" y="675"/>
      <point x="280" y="657"/>
      <point x="172" y="657" type="curve"/>
      <point x="135" y="612" type="line"/>
      <point x="210" y="591"/>
      <point x="272" y="582"/>
      <point x="319" y="583" type="curve"/>
      <point x="240" y="507"/>
      <point x="192" y="398"/>
      <point x="192" y="278" type="curve" smooth="yes"/>
      <point x="192" y="40"/>
      <point x="384" y="-152"/>
      <point x="622" y="-152" type="curve" smooth="yes"/>
      <point x="860" y="-152"/>
      <point x="1052" y="40"/>
      <point x="1052" y="278" type="curve" smooth="yes"/>
      <point x="1052" y="445"/>
      <point x="958" y="573"/>
    </contour>
  </outline>
</glyph>
<glyph name="rightDoubleStrokeArrow" format="2">
  <advance width="1012"/>
  <unicode hex="21CF"/>
  <anchor x="456" y="279" name="center"/>
  <outline>
    <contour>
      <point x="232" y="84" type="line"/>
      <point x="312" y="84" type="line"/>
      <point x="521" y="474" type="line"/>
      <point x="441" y="474" type="line"/>
    </contour>
    <component base="rightDoubleArrow"/>
  </outline>
</glyph>
<glyph name="leftTripleArrow" format="2">
  <advance width="1012"/>
  <unicode hex="21DA"/>
  <anchor x="513" y="278" name="center"/>
  <outline>
    <contour>
      <point x="338" y="-109" type="curve"/>
      <point x="397" y="-109" type="line"/>
      <point x="357" y="-1"/>
      <point x="249" y="196"/>
      <point x="172" y="298" type="curve"/>
      <point x="172" y="258" type="line"/>
      <point x="249" y="360"/>
      <point x="357" y="557"/>
      <point x="397" y="665" type="curve"/>
      <point x="338" y="665" type="line"/>
      <point x="243" y="536"/>
      <point x="147" y="411"/>
      <point x="51" y="291" type="curve"/>
      <point x="51" y="265" type="line"/>
      <point x="147" y="145"/>
      <point x="243" y="20"/>
    </contour>
    <contour>
      <point x="247" y="64" type="line"/>
      <point x="961" y="64" type="line"/>
      <point x="961" y="135" type="line"/>
      <point x="247" y="135" type="line"/>
    </contour>
    <contour>
      <point x="142" y="242" type="line"/>
      <point x="961" y="242" type="line"/>
      <point x="961" y="314" type="line"/>
      <point x="142" y="314" type="line"/>
    </contour>
    <contour>
      <point x="247" y="421" type="line"/>
      <point x="961" y="421" type="line"/>
      <point x="961" y="492" type="line"/>
      <point x="247" y="492" type="line"/>
    </contour>
  </outline>
</glyph>
<glyph name="leftDashArrow" format="2">
  <advance width="1012"/>
  <unicode hex="21E0"/>
  <anchor x="532" y="278" name="center"/>
  <outline>
    <contour>
      <point x="270" y="83" type="curve"/>
      <point x="328" y="83" type="line"/>
      <point x="293" y="160"/>
      <point x="257" y="218"/>
      <point x="223" y="252" type="curve"/>
      <point x="223" y="304" type="line"/>
      <point x="257" y="338"/>
      <point x="293" y="396"/>
      <point x="328" y="473" type="curve"/>
      <point x="270" y="473" type="line"/>
      <point x="201" y="391"/>
      <point x="127" y="331"/>
      <point x="51" y="292" type="curve"/>
      <point x="51" y="264" type="line"/>
      <point x="127" y="225"/>
      <point x="201" y="165"/>
    </contour>
    <contour>
      <point x="183" y="243" type="line"/>
      <point x="386" y="243" type="line"/>
      <point x="386" y="314" type="line"/>
      <point x="183" y="314" type="line"/>
    </contour>
    <contour>
      <point x="441" y="243" type="line"/>
      <point x="581" y="243" type="line"/>
      <point x="581" y="314" type="line"/>
      <point x="441" y="314" type="line"/>
    </contour>
    <contour>
      <point x="636" y="243" type="line"/>
      <point x="766" y="243" type="line"/>
      <point x="766" y="314" type="line"/>
      <point x="636" y="314" type="line"/>
    </contour>
    <contour>
      <point x="821" y="243" type="line"/>
      <point x="961" y="243" type="line"/>
      <point x="961" y="314" type="line"/>
      <point x="821" y="314" type="line"/>
    </contour>
  </outline>
</glyph>
<glyph name="leftTabArrow" format="2">
  <advance width="1012"/>
  <unicode hex="21E4"/>
  <anchor x="506" y="278" name="center"/>
  <outline>
    <contour>
      <point x="51" y="83" type="line"/>
      <point x="122" y="83" type="line"/>
      <point x="122" y="473" type="line"/>
      <point x="51" y="473" type="line"/>
    </contour>
    <contour>
      <point x="255" y="243" type="line"/>
      <point x="961" y="243" type="line"/>
      <point x="961" y="314" type="line"/>
      <point x="255" y="314" type="line"/>
    </contour>
    <contour>
      <point x="116" y="289" type="curve"/>
      <point x="116" y="267" type="line"/>
      <point x="195" y="228"/>
      <point x="270" y="167"/>
      <point x="342" y="83" type="curve"/>
      <point x="400" y="83" type="line"/>
      <point x="364" y="160"/>
      <point x="329" y="218"/>
      <point x="294" y="252" type="curve"/>
      <point x="294" y="304" type="line"/>
      <point x="329" y="338"/>
      <point x="364" y="396"/>
      <point x="400" y="473" type="curve"/>
      <point x="342" y="473" type="line"/>
      <point x="270" y="389"/>
      <point x="195" y="328"/>
    </contour>
  </outline>
</glyph>
<glyph name="leftOpenHeadedArrow" format="2">
  <advance width="1012"/>
  <unicode hex="21FD"/>
  <anchor x="547" y="279" name="center"/>
  <outline>
    <contour>
      <point x="308" y="84" type="line"/>
      <point x="308" y="474" type="line"/>
      <point x="51" y="279" type="line"/>
    </contour>
    <contour>
      <point x="237" y="227" type="line"/>
      <point x="168" y="279" type="line"/>
      <point x="237" y="331" type="line"/>
    </contour>
    <contour>
      <point x="242" y="243" type="line"/>
      <point x="961" y="243" type="line"/>
      <point x="961" y="315" type="line"/>
      <point x="242" y="315" type="line"/>
    </contour>
  </outline>
</glyph>
<glyph name="existential" format="2">
  <advance width="574"/>
  <unicode hex="2203"/>
  <anchor x="287" y="357" name="center"/>
  <outline>
    <contour>
      <point x="51" y="0" type="line"/>
      <point x="523" y="0" type="line"/>
      <point x="523" y="715" type="line"/>
      <point x="59" y="715" type="line"/>
      <point x="59" y="635" type="line"/>
      <point x="440" y="635" type="line"/>
      <point x="440" y="411" type="line"/>
      <point x="80" y="411" type="line"/>
      <point x="80" y="331" type="line"/>
      <point x="440" y="331" type="line"/>
      <point x="440" y="80" type="line"/>
      <point x="51" y="80" type="line"/>
    </contour>
  </outline>
</glyph>
<glyph name="element" format="2">
  <advance width="699"/>
  <unicode hex="2208"/>
  <anchor x="349" y="277" name="center"/>
  <outline>
    <contour>
      <point x="394" y="-14" type="curve" smooth="yes"/>
      <point x="648" y="-14" type="line"/>
      <point x="648" y="57" type="line"/>
      <point x="382" y="57" type="line" smooth="yes"/>
      <point x="214" y="57"/>
      <point x="123" y="133"/>
      <point x="123" y="277" type="curve" smooth="yes"/>
      <point x="123" y="421"/>
      <point x="212" y="497"/>
      <point x="382" y="497" type="curve" smooth="yes"/>
      <point x="648" y="497" type="line"/>
      <point x="648" y="568" type="line"/>
      <point x="394" y="568" type="line" smooth="yes"/>
      <point x="169" y="568"/>
      <point x="51" y="468"/>
      <point x="51" y="277" type="curve" smooth="yes"/>
      <point x="51" y="86"/>
      <point x="171" y="-14"/>
    </contour>
    <contour>
      <point x="87" y="242" type="line"/>
      <point x="648" y="242" type="line"/>
      <point x="648" y="313" type="line"/>
      <point x="87" y="313" type="line"/>
    </contour>
  </outline>
</glyph>
<glyph name="elementSmall" format="2">
  <advance width="556"/>
  <unicode hex="220A"/>
  <anchor x="278" y="278" name="center"/>
  <outline>
    <contour>
      <point x="308" y="59" type="curve" smooth="yes"/>
      <point x="505" y="59" type="line"/>
      <point x="505" y="130" type="line"/>
      <point x="308" y="130" type="line" smooth="yes"/>
      <point x="194" y="130"/>
      <point x="132" y="168"/>
      <point x="120" y="243" type="curve"/>
      <point x="505" y="243" type="line"/>
      <point x="505" y="314" type="line"/>
      <point x="120" y="314" type="line"/>
      <point x="133" y="389"/>
      <point x="196" y="427"/>
      <point x="308" y="427" type="curve" smooth="yes"/>
      <point x="505" y="427" type="line"/>
      <point x="505" y="498" type="line"/>
      <point x="308" y="498" type="line" smooth="yes"/>
      <point x="142" y="498"/>
      <point x="51" y="423"/>
      <point x="51" y="278" type="curve" smooth="yes"/>
      <point x="51" y="135"/>
      <point x="140" y="59"/>
    </contour>
  </outline>
</glyph>
<glyph name="coproduct" format="2">
  <advance width="917"/>
  <unicode hex="2210"/>
  <anchor x="408" y="237" name="center"/>
  <outline>
    <contour>
      <point x="51" y="-240" type="line"/>
      <point x="866" y="-240" type="line"/>
      <point x="866" y="-188" type="line"/>
      <point x="782" y="-169" type="line"/>
      <point x="782" y="714" type="line"/>
      <point x="692" y="714" type="line"/>
      <point x="692" y="-160" type="line"/>
      <point x="225" y="-160" type="line"/>
      <point x="225" y="714" type="line"/>
      <point x="135" y="714" type="line"/>
      <point x="135" y="-169" type="line"/>
      <point x="51" y="-188" type="line"/>
    </contour>
  </outline>
</glyph>
<glyph name="summation" format="2">
  <advance width="852"/>
  <unicode hex="2211"/>
  <anchor x="393" y="237" name="center"/>
  <outline>
    <contour>
      <point x="164" y="-164" type="line"/>
      <point x="513" y="265" type="line"/>
      <point x="177" y="638" type="line"/>
      <point x="766" y="638" type="line"/>
      <point x="766" y="714" type="line"/>
      <point x="59" y="714" type="line"/>
      <point x="59" y="655" type="line"/>
      <point x="408" y="263" type="line"/>
      <point x="51" y="-182" type="line"/>
      <point x="51" y="-240" type="line"/>
      <point x="801" y="-240" type="line"/>
      <point x="801" y="-164" type="line"/>
    </contour>
  </outline>
</glyph>
<glyph name="dotplus" format="2">
  <advance width="572"/>
  <unicode hex="2214"/>
  <anchor x="286" y="359" name="center"/>
  <outline>
    <contour>
      <point x="285" y="562" type="curve" smooth="yes"/>
      <point x="315" y="562"/>
      <point x="340" y="580"/>
      <point x="340" y="623" type="curve" smooth="yes"/>
      <point x="340" y="660"/>
      <point x="320" y="683"/>
      <point x="285" y="683" type="curve" smooth="yes"/>
      <point x="250" y="683"/>
      <point x="229" y="662"/>
      <point x="229" y="623" type="curve" smooth="yes"/>
      <point x="229" y="585"/>
      <point x="250" y="562"/>
    </contour>
    <component base="plus"/>
  </outline>
</glyph>
<glyph name="radical" format="2">
  <advance width="679"/>
  <unicode hex="221A"/>
  <anchor x="380" y="528" name="center"/>
  <outline>
    <contour>
      <point x="274" y="0" type="line"/>
      <point x="339" y="0" type="line"/>
      <point x="710" y="1057" type="line"/>
      <point x="639" y="1057" type="line"/>
      <point x="307" y="121" type="line"/>
      <point x="194" y="450" type="line"/>
      <point x="51" y="450" type="line"/>
      <point x="51" y="380" type="line"/>
      <point x="139" y="380" type="line"/>
    </contour>
  </outline>
</glyph>
<glyph name="fourthroot" format="2">
  <advance width="679"/>
  <unicode hex="221C"/>
  <outline>
    <contour>
      <point x="274" y="0" type="line"/>
      <point x="339" y="0" type="line"/>
      <point x="710" y="1057" type="line"/>
      <point x="639" y="1057" type="line"/>
      <point x="307" y="121" type="line"/>
      <point x="194" y="450" type="line"/>
      <point x="51" y="450" type="line"/>
      <point x="51" y="380" type="line"/>
      <point x="139" y="380" type="line"/>
    </contour>
    <contour>
      <point x="272" y="552" type="line"/>
      <point x="338" y="552" type="line"/>
      <point x="338" y="632" type="line"/>
      <point x="388" y="632" type="line"/>
      <point x="388" y="685" type="line"/>
      <point x="338" y="685" type="line"/>
      <point x="338" y="913" type="line"/>
      <point x="274" y="913" type="line"/>
      <point x="109" y="677" type="line"/>
      <point x="109" y="632" type="line"/>
      <point x="272" y="632" type="line"/>
    </contour>
    <contour>
      <point x="174" y="685" type="line"/>
      <point x="275" y="842" type="line"/>
      <point x="275" y="685" type="line"/>
    </contour>
  </outline>
</glyph>
<glyph name="infinity" format="2">
  <advance width="930"/>
  <unicode hex="221E"/>
  <anchor x="464" y="237" name="center"/>
  <outline>
    <contour>
      <point x="470" y="167" type="curve" smooth="yes"/>
      <point x="540" y="319"/>
      <point x="579" y="408"/>
      <point x="674" y="408" type="curve" smooth="yes"/>
      <point x="758" y="408"/>
      <point x="813" y="331"/>
      <point x="813" y="236" type="curve" smooth="yes"/>
      <point x="813" y="144"/>
      <point x="760" y="64"/>
      <point x="672" y="64" type="curve" smooth="yes"/>
      <point x="591" y="64"/>
      <point x="541" y="135"/>
      <point x="493" y="260" type="curve" smooth="yes"/>
      <point x="427" y="433"/>
      <point x="339" y="478"/>
      <point x="255" y="478" type="curve" smooth="yes"/>
      <point x="132" y="478"/>
      <point x="51" y="375"/>
      <point x="51" y="237" type="curve" smooth="yes"/>
      <point x="51" y="92"/>
      <point x="134" y="0"/>
      <point x="251" y="1" type="curve" smooth="yes"/>
      <point x="351" y="2"/>
      <point x="420" y="58"/>
    </contour>
    <contour>
      <point x="512" y="427"/>
      <point x="443" y="261" type="curve" smooth="yes"/>
      <point x="390" y="135"/>
      <point x="333" y="68"/>
      <point x="254" y="68" type="curve" smooth="yes"/>
      <point x="165" y="68"/>
      <point x="119" y="148"/>
      <point x="119" y="237" type="curve" smooth="yes"/>
      <point x="119" y="330"/>
      <point x="169" y="412"/>
      <point x="256" y="412" type="curve" smooth="yes"/>
      <point x="336" y="412"/>
      <point x="387" y="343"/>
      <point x="436" y="219" type="curve" smooth="yes"/>
      <point x="503" y="47"/>
      <point x="572" y="-3"/>
      <point x="676" y="-3" type="curve" smooth="yes"/>
      <point x="804" y="-3"/>
      <point x="879" y="103"/>
      <point x="879" y="241" type="curve" smooth="yes"/>
      <point x="879" y="380"/>
      <point x="797" y="475"/>
      <point x="678" y="475" type="curve" smooth="yes"/>
      <point x="573" y="475"/>
    </contour>
  </outline>
</glyph>
<glyph name="sphericalangle" format="2">
  <advance width="572"/>
  <unicode hex="2222"/>
  <anchor x="286" y="278" name="center"/>
  <outline>
    <contour>
      <point x="326" y="17" type="line"/>
      <point x="340" y="43"/>
      <point x="353" y="74"/>
      <point x="364" y="111" type="curve"/>
      <point x="521" y="42" type="line"/>
      <point x="521" y="120" type="line"/>
      <point x="382" y="178" type="line"/>
      <point x="389" y="211"/>
      <point x="392" y="244"/>
      <point x="392" y="278" type="curve" smooth="yes"/>
      <point x="392" y="316"/>
      <point x="388" y="352"/>
      <point x="379" y="389" type="curve"/>
      <point x="521" y="456" type="line"/>
      <point x="521" y="534" type="line"/>
      <point x="361" y="454" type="line"/>
      <point x="349" y="491"/>
      <point x="337" y="520"/>
      <point x="326" y="539" type="curve"/>
      <point x="267" y="510" type="line"/>
      <point x="282" y="479"/>
      <point x="293" y="451"/>
      <point x="302" y="424" type="curve"/>
      <point x="51" y="299" type="line"/>
      <point x="51" y="249" type="line"/>
      <point x="304" y="137" type="line"/>
      <point x="295" y="107"/>
      <point x="283" y="77"/>
      <point x="267" y="46" type="curve"/>
    </contour>
    <contour>
      <point x="319" y="204" type="curve"/>
      <point x="145" y="278" type="line"/>
      <point x="318" y="360" type="line"/>
      <point x="323" y="329"/>
      <point x="325" y="302"/>
      <point x="325" y="278" type="curve" smooth="yes"/>
      <point x="325" y="250"/>
      <point x="323" y="225"/>
    </contour>
  </outline>
</glyph>
<glyph name="divides" format="2">
  <advance width="173"/>
  <unicode hex="2223"/>
  <anchor x="86" y="278" name="center"/>
  <outline>
    <contour>
      <point x="51" y="-162" type="line"/>
      <point x="122" y="-162" type="line"/>
      <point x="122" y="718" type="line"/>
      <point x="51" y="718" type="line"/>
    </contour>
  </outline>
</glyph>
<glyph name="therefore" format="2">
  <advance width="571"/>
  <unicode hex="2234"/>
  <anchor x="286" y="277" name="center"/>
  <outline>
    <contour>
      <point x="286" y="388" type="curve" smooth="yes"/>
      <point x="319" y="388"/>
      <point x="346" y="415"/>
      <point x="346" y="448" type="curve" smooth="yes"/>
      <point x="346" y="481"/>
      <point x="319" y="508"/>
      <point x="286" y="508" type="curve" smooth="yes"/>
      <point x="253" y="508"/>
      <point x="226" y="481"/>
      <point x="226" y="448" type="curve" smooth="yes"/>
      <point x="226" y="415"/>
      <point x="253" y="388"/>
    </contour>
    <contour>
      <point x="111" y="47" type="curve" smooth="yes"/>
      <point x="144" y="47"/>
      <point x="171" y="74"/>
      <point x="171" y="107" type="curve" smooth="yes"/>
      <point x="171" y="140"/>
      <point x="144" y="167"/>
      <point x="111" y="167" type="curve" smooth="yes"/>
      <point x="78" y="167"/>
      <point x="51" y="140"/>
      <point x="51" y="107" type="curve" smooth="yes"/>
      <point x="51" y="74"/>
      <point x="78" y="47"/>
    </contour>
    <contour>
      <point x="461" y="47" type="curve" smooth="yes"/>
      <point x="494" y="47"/>
      <point x="521" y="74"/>
      <point x="521" y="107" type="curve" smooth="yes"/>
      <point x="521" y="140"/>
      <point x="494" y="167"/>
      <point x="461" y="167" type="curve" smooth="yes"/>
      <point x="428" y="167"/>
      <point x="401" y="140"/>
      <point x="401" y="107" type="curve" smooth="yes"/>
      <point x="401" y="74"/>
      <point x="428" y="47"/>
    </contour>
  </outline>
</glyph>
<glyph name="because" format="2">
  <advance width="572"/>
  <unicode hex="2235"/>
  <anchor x="286" y="278" name="center"/>
  <outline>
    <contour>
      <point x="461" y="389" type="curve" smooth="yes"/>
      <point x="494" y="389"/>
      <point x="521" y="416"/>
      <point x="521" y="449" type="curve" smooth="yes"/>
      <point x="521" y="482"/>
      <point x="494" y="509"/>
      <point x="461" y="509" type="curve" smooth="yes"/>
      <point x="428" y="509"/>
      <point x="401" y="482"/>
      <point x="401" y="449" type="curve" smooth="yes"/>
      <point x="401" y="416"/>
      <point x="428" y="389"/>
    </contour>
    <contour>
      <point x="286" y="48" type="curve" smooth="yes"/>
      <point x="319" y="48"/>
      <point x="346" y="75"/>
      <point x="346" y="108" type="curve" smooth="yes"/>
      <point x="346" y="141"/>
      <point x="319" y="168"/>
      <point x="286" y="168" type="curve" smooth="yes"/>
      <point x="253" y="168"/>
      <point x="226" y="141"/>
      <point x="226" y="108" type="curve" smooth="yes"/>
      <point x="226" y="75"/>
      <point x="253" y="48"/>
    </contour>
    <contour>
      <point x="111" y="389" type="curve" smooth="yes"/>
      <point x="144" y="389"/>
      <point x="171" y="416"/>
      <point x="171" y="449" type="curve" smooth="yes"/>
      <point x="171" y="482"/>
      <point x="144" y="509"/>
      <point x="111" y="509" type="curve" smooth="yes"/>
      <point x="78" y="509"/>
      <point x="51" y="482"/>
      <point x="51" y="449" type="curve" smooth="yes"/>
      <point x="51" y="416"/>
      <point x="78" y="389"/>
    </contour>
  </outline>
</glyph>
<glyph name="ratio" format="2">
  <advance width="222"/>
  <unicode hex="2236"/>
  <anchor x="111" y="278" name="center"/>
  <outline>
    <contour>
      <point x="111" y="389" type="curve" smooth="yes"/>
      <point x="144" y="389"/>
      <point x="171" y="416"/>
      <point x="171" y="449" type="curve" smooth="yes"/>
      <point x="171" y="482"/>
      <point x="144" y="509"/>
      <point x="111" y="509" type="curve" smooth="yes"/>
      <point x="78" y="509"/>
      <point x="51" y="482"/>
      <point x="51" y="449" type="curve" smooth="yes"/>
      <point x="51" y="416"/>
      <point x="78" y="389"/>
    </contour>
    <contour>
      <point x="111" y="48" type="curve" smooth="yes"/>
      <point x="144" y="48"/>
      <point x="171" y="75"/>
      <point x="171" y="108" type="curve" smooth="yes"/>
      <point x="171" y="141"/>
      <point x="144" y="168"/>
      <point x="111" y="168" type="curve" smooth="yes"/>
      <point x="78" y="168"/>
      <point x="51" y="141"/>
      <point x="51" y="108" type="curve" smooth="yes"/>
      <point x="51" y="75"/>
      <point x="78" y="48"/>
    </contour>
  </outline>
</glyph>
<glyph name="similar" format="2">
  <advance width="572"/>
  <unicode hex="223C"/>
  <anchor x="286" y="278" name="center"/>
  <outline>
    <contour>
      <point x="51" y="213" type="line"/>
      <point x="87" y="250"/>
      <point x="129" y="272"/>
      <point x="164" y="272" type="curve" smooth="yes"/>
      <point x="195" y="272"/>
      <point x="232" y="262"/>
      <point x="274" y="243" type="curve" smooth="yes"/>
      <point x="317" y="223"/>
      <point x="359" y="213"/>
      <point x="401" y="213" type="curve" smooth="yes"/>
      <point x="448" y="213"/>
      <point x="488" y="231"/>
      <point x="521" y="267" type="curve"/>
      <point x="521" y="344" type="line"/>
      <point x="486" y="307"/>
      <point x="441" y="285"/>
      <point x="406" y="285" type="curve" smooth="yes"/>
      <point x="377" y="285"/>
      <point x="340" y="296"/>
      <point x="296" y="315" type="curve" smooth="yes"/>
      <point x="252" y="334"/>
      <point x="210" y="344"/>
      <point x="170" y="344" type="curve" smooth="yes"/>
      <point x="123" y="344"/>
      <point x="83" y="326"/>
      <point x="51" y="291" type="curve"/>
    </contour>
  </outline>
</glyph>
<glyph name="reversedtilde" format="2">
  <advance width="572"/>
  <unicode hex="223D"/>
  <anchor x="286" y="278" name="center"/>
  <outline>
    <contour>
      <point x="171" y="213" type="curve" smooth="yes"/>
      <point x="213" y="213"/>
      <point x="255" y="223"/>
      <point x="298" y="243" type="curve" smooth="yes"/>
      <point x="340" y="262"/>
      <point x="377" y="272"/>
      <point x="408" y="272" type="curve" smooth="yes"/>
      <point x="443" y="272"/>
      <point x="485" y="250"/>
      <point x="521" y="213" type="curve"/>
      <point x="521" y="291" type="line"/>
      <point x="489" y="326"/>
      <point x="449" y="344"/>
      <point x="402" y="344" type="curve" smooth="yes"/>
      <point x="362" y="344"/>
      <point x="320" y="335"/>
      <point x="276" y="315" type="curve" smooth="yes"/>
      <point x="232" y="295"/>
      <point x="195" y="285"/>
      <point x="166" y="285" type="curve" smooth="yes"/>
      <point x="131" y="285"/>
      <point x="86" y="307"/>
      <point x="51" y="344" type="curve"/>
      <point x="51" y="267" type="line"/>
      <point x="84" y="231"/>
      <point x="124" y="213"/>
    </contour>
  </outline>
</glyph>
<glyph name="wreathproduct" format="2">
  <advance width="243"/>
  <unicode hex="2240"/>
  <anchor x="121" y="274" name="center"/>
  <outline>
    <contour>
      <point x="109" y="23" type="curve"/>
      <point x="192" y="23" type="line"/>
      <point x="153" y="59"/>
      <point x="128" y="107"/>
      <point x="128" y="146" type="curve" smooth="yes"/>
      <point x="128" y="178"/>
      <point x="139" y="217"/>
      <point x="160" y="264" type="curve" smooth="yes"/>
      <point x="181" y="311"/>
      <point x="192" y="356"/>
      <point x="192" y="398" type="curve" smooth="yes"/>
      <point x="192" y="448"/>
      <point x="173" y="490"/>
      <point x="135" y="526" type="curve"/>
      <point x="51" y="526" type="line"/>
      <point x="87" y="492"/>
      <point x="115" y="443"/>
      <point x="115" y="405" type="curve" smooth="yes"/>
      <point x="115" y="372"/>
      <point x="104" y="332"/>
      <point x="83" y="285" type="curve" smooth="yes"/>
      <point x="62" y="237"/>
      <point x="51" y="193"/>
      <point x="51" y="151" type="curve" smooth="yes"/>
      <point x="51" y="101"/>
      <point x="70" y="59"/>
    </contour>
  </outline>
</glyph>
<glyph name="asymptoticallyequal" format="2">
  <advance width="572"/>
  <unicode hex="2243"/>
  <anchor x="286" y="278" name="center"/>
  <outline>
    <contour>
      <point x="51" y="279" type="line"/>
      <point x="90" y="318"/>
      <point x="132" y="338"/>
      <point x="164" y="338" type="curve" smooth="yes"/>
      <point x="196" y="338"/>
      <point x="233" y="328"/>
      <point x="275" y="309" type="curve" smooth="yes"/>
      <point x="318" y="289"/>
      <point x="360" y="279"/>
      <point x="401" y="279" type="curve" smooth="yes"/>
      <point x="447" y="279"/>
      <point x="488" y="297"/>
      <point x="521" y="333" type="curve"/>
      <point x="521" y="410" type="line"/>
      <point x="484" y="372"/>
      <point x="441" y="351"/>
      <point x="406" y="351" type="curve" smooth="yes"/>
      <point x="375" y="351"/>
      <point x="338" y="361"/>
      <point x="296" y="380" type="curve" smooth="yes"/>
      <point x="253" y="400"/>
      <point x="212" y="410"/>
      <point x="170" y="410" type="curve" smooth="yes"/>
      <point x="123" y="410"/>
      <point x="84" y="392"/>
      <point x="51" y="357" type="curve"/>
    </contour>
    <contour>
      <point x="51" y="146" type="line"/>
      <point x="521" y="146" type="line"/>
      <point x="521" y="217" type="line"/>
      <point x="51" y="217" type="line"/>
    </contour>
  </outline>
</glyph>
<glyph name="congruent" format="2">
  <advance width="572"/>
  <unicode hex="2245"/>
  <anchor x="286" y="278" name="center"/>
  <outline>
    <contour>
      <point x="51" y="359" type="line"/>
      <point x="90" y="398"/>
      <point x="132" y="418"/>
      <point x="164" y="418" type="curve" smooth="yes"/>
      <point x="196" y="418"/>
      <point x="233" y="408"/>
      <point x="275" y="389" type="curve" smooth="yes"/>
      <point x="318" y="369"/>
      <point x="360" y="359"/>
      <point x="401" y="359" type="curve" smooth="yes"/>
      <point x="447" y="359"/>
      <point x="488" y="377"/>
      <point x="521" y="413" type="curve"/>
      <point x="521" y="490" type="line"/>
      <point x="484" y="452"/>
      <point x="441" y="431"/>
      <point x="406" y="431" type="curve" smooth="yes"/>
      <point x="375" y="431"/>
      <point x="338" y="441"/>
      <point x="296" y="460" type="curve" smooth="yes"/>
      <point x="253" y="480"/>
      <point x="212" y="490"/>
      <point x="170" y="490" type="curve" smooth="yes"/>
      <point x="123" y="490"/>
      <point x="84" y="472"/>
      <point x="51" y="437" type="curve"/>
    </contour>
    <contour>
      <point x="51" y="66" type="line"/>
      <point x="521" y="66" type="line"/>
      <point x="521" y="137" type="line"/>
      <point x="51" y="137" type="line"/>
    </contour>
    <contour>
      <point x="51" y="226" type="line"/>
      <point x="521" y="226" type="line"/>
      <point x="521" y="297" type="line"/>
      <point x="51" y="297" type="line"/>
    </contour>
  </outline>
</glyph>
<glyph name="allequal" format="2">
  <advance width="572"/>
  <unicode hex="224C"/>
  <anchor x="286" y="278" name="center"/>
  <outline>
    <contour>
      <point x="171" y="359" type="curve" smooth="yes"/>
      <point x="212" y="359"/>
      <point x="254" y="369"/>
      <point x="297" y="389" type="curve" smooth="yes"/>
      <point x="339" y="408"/>
      <point x="376" y="418"/>
      <point x="408" y="418" type="curve" smooth="yes"/>
      <point x="440" y="418"/>
      <point x="482" y="398"/>
      <point x="521" y="359" type="curve"/>
      <point x="521" y="437" type="line"/>
      <point x="488" y="472"/>
      <point x="449" y="490"/>
      <point x="402" y="490" type="curve" smooth="yes"/>
      <point x="360" y="490"/>
      <point x="319" y="480"/>
      <point x="276" y="460" type="curve" smooth="yes"/>
      <point x="234" y="441"/>
      <point x="197" y="431"/>
      <point x="166" y="431" type="curve" smooth="yes"/>
      <point x="131" y="431"/>
      <point x="88" y="452"/>
      <point x="51" y="490" type="curve"/>
      <point x="51" y="413" type="line"/>
      <point x="84" y="377"/>
      <point x="125" y="359"/>
    </contour>
    <contour>
      <point x="51" y="66" type="line"/>
      <point x="521" y="66" type="line"/>
      <point x="521" y="137" type="line"/>
      <point x="51" y="137" type="line"/>
    </contour>
    <contour>
      <point x="51" y="226" type="line"/>
      <point x="521" y="226" type="line"/>
      <point x="521" y="297" type="line"/>
      <point x="51" y="297" type="line"/>
    </contour>
  </outline>
</glyph>
<glyph name="equivalentto" format="2">
  <advance width="572"/>
  <unicode hex="224D"/>
  <anchor x="286" y="278" name="center"/>
  <outline>
    <contour>
      <point x="286" y="314" type="curve" smooth="yes"/>
      <point x="366" y="314"/>
      <point x="444" y="337"/>
      <point x="521" y="381" type="curve"/>
      <point x="484" y="439" type="line"/>
      <point x="392" y="391"/>
      <point x="347" y="385"/>
      <point x="286" y="385" type="curve" smooth="yes"/>
      <point x="228" y="385"/>
      <point x="182" y="390"/>
      <point x="88" y="439" type="curve"/>
      <point x="51" y="381" type="line"/>
      <point x="124" y="337"/>
      <point x="202" y="314"/>
    </contour>
    <contour>
      <point x="88" y="117" type="line"/>
      <point x="182" y="166"/>
      <point x="226" y="171"/>
      <point x="286" y="171" type="curve" smooth="yes"/>
      <point x="343" y="171"/>
      <point x="390" y="166"/>
      <point x="484" y="117" type="curve"/>
      <point x="521" y="175" type="line"/>
      <point x="444" y="219"/>
      <point x="366" y="242"/>
      <point x="286" y="242" type="curve" smooth="yes"/>
      <point x="202" y="242"/>
      <point x="124" y="219"/>
      <point x="51" y="175" type="curve"/>
    </contour>
  </outline>
</glyph>
<glyph name="geometricallyequivalentto" format="2">
  <advance width="572"/>
  <unicode hex="224E"/>
  <anchor x="286" y="278" name="center"/>
  <outline>
    <contour>
      <point x="51" y="341" type="line"/>
      <point x="216" y="341" type="line"/>
      <point x="216" y="412" type="line" smooth="yes"/>
      <point x="216" y="455"/>
      <point x="244" y="484"/>
      <point x="286" y="484" type="curve" smooth="yes"/>
      <point x="329" y="484"/>
      <point x="356" y="455"/>
      <point x="356" y="412" type="curve" smooth="yes"/>
      <point x="356" y="341" type="line"/>
      <point x="521" y="341" type="line"/>
      <point x="521" y="412" type="line"/>
      <point x="429" y="412" type="line"/>
      <point x="429" y="506"/>
      <point x="376" y="555"/>
      <point x="286" y="555" type="curve" smooth="yes"/>
      <point x="196" y="555"/>
      <point x="143" y="506"/>
      <point x="143" y="412" type="curve"/>
      <point x="51" y="412" type="line"/>
    </contour>
    <contour>
      <point x="286" y="-1" type="curve" smooth="yes"/>
      <point x="376" y="-1"/>
      <point x="429" y="48"/>
      <point x="429" y="142" type="curve"/>
      <point x="521" y="142" type="line"/>
      <point x="521" y="213" type="line"/>
      <point x="356" y="213" type="line"/>
      <point x="356" y="142" type="line" smooth="yes"/>
      <point x="356" y="100"/>
      <point x="329" y="70"/>
      <point x="286" y="70" type="curve" smooth="yes"/>
      <point x="245" y="70"/>
      <point x="216" y="99"/>
      <point x="216" y="142" type="curve" smooth="yes"/>
      <point x="216" y="213" type="line"/>
      <point x="51" y="213" type="line"/>
      <point x="51" y="142" type="line"/>
      <point x="143" y="142" type="line"/>
      <point x="143" y="48"/>
      <point x="195" y="-1"/>
    </contour>
  </outline>
</glyph>
<glyph name="geometricallyequal" format="2">
  <advance width="572"/>
  <unicode hex="2251"/>
  <anchor x="286" y="278" name="center"/>
  <outline>
    <contour>
      <point x="51" y="342" type="line"/>
      <point x="521" y="342" type="line"/>
      <point x="521" y="413" type="line"/>
      <point x="51" y="413" type="line"/>
    </contour>
    <contour>
      <point x="286" y="-52" type="curve" smooth="yes"/>
      <point x="319" y="-52"/>
      <point x="346" y="-25"/>
      <point x="346" y="8" type="curve" smooth="yes"/>
      <point x="346" y="41"/>
      <point x="319" y="68"/>
      <point x="286" y="68" type="curve" smooth="yes"/>
      <point x="253" y="68"/>
      <point x="226" y="41"/>
      <point x="226" y="8" type="curve" smooth="yes"/>
      <point x="226" y="-25"/>
      <point x="253" y="-52"/>
    </contour>
    <contour>
      <point x="51" y="143" type="line"/>
      <point x="521" y="143" type="line"/>
      <point x="521" y="214" type="line"/>
      <point x="51" y="214" type="line"/>
    </contour>
    <contour>
      <point x="286" y="488" type="curve" smooth="yes"/>
      <point x="319" y="488"/>
      <point x="346" y="515"/>
      <point x="346" y="548" type="curve" smooth="yes"/>
      <point x="346" y="581"/>
      <point x="319" y="608"/>
      <point x="286" y="608" type="curve" smooth="yes"/>
      <point x="253" y="608"/>
      <point x="226" y="581"/>
      <point x="226" y="548" type="curve" smooth="yes"/>
      <point x="226" y="515"/>
      <point x="253" y="488"/>
    </contour>
  </outline>
</glyph>
<glyph name="colonequals" format="2">
  <advance width="686"/>
  <unicode hex="2254"/>
  <anchor x="308" y="278" name="center"/>
  <outline>
    <contour>
      <point x="226" y="342" type="line"/>
      <point x="635" y="342" type="line"/>
      <point x="635" y="413" type="line"/>
      <point x="226" y="413" type="line"/>
    </contour>
    <contour>
      <point x="111" y="118" type="curve" smooth="yes"/>
      <point x="144" y="118"/>
      <point x="171" y="145"/>
      <point x="171" y="178" type="curve" smooth="yes"/>
      <point x="171" y="211"/>
      <point x="144" y="238"/>
      <point x="111" y="238" type="curve" smooth="yes"/>
      <point x="78" y="238"/>
      <point x="51" y="211"/>
      <point x="51" y="178" type="curve" smooth="yes"/>
      <point x="51" y="145"/>
      <point x="78" y="118"/>
    </contour>
    <contour>
      <point x="111" y="318" type="curve" smooth="yes"/>
      <point x="144" y="318"/>
      <point x="171" y="345"/>
      <point x="171" y="378" type="curve" smooth="yes"/>
      <point x="171" y="411"/>
      <point x="144" y="438"/>
      <point x="111" y="438" type="curve" smooth="yes"/>
      <point x="78" y="438"/>
      <point x="51" y="411"/>
      <point x="51" y="378" type="curve" smooth="yes"/>
      <point x="51" y="345"/>
      <point x="78" y="318"/>
    </contour>
    <contour>
      <point x="226" y="143" type="line"/>
      <point x="635" y="143" type="line"/>
      <point x="635" y="214" type="line"/>
      <point x="226" y="214" type="line"/>
    </contour>
  </outline>
</glyph>
<glyph name="ringinequalto" format="2">
  <advance width="572"/>
  <unicode hex="2256"/>
  <anchor x="286" y="278" name="center"/>
  <outline>
    <contour>
      <point x="284" y="156" type="curve" smooth="yes"/>
      <point x="351" y="156"/>
      <point x="406" y="211"/>
      <point x="406" y="278" type="curve" smooth="yes"/>
      <point x="406" y="345"/>
      <point x="351" y="400"/>
      <point x="284" y="400" type="curve" smooth="yes"/>
      <point x="217" y="400"/>
      <point x="162" y="345"/>
      <point x="162" y="278" type="curve" smooth="yes"/>
      <point x="162" y="211"/>
      <point x="217" y="156"/>
    </contour>
    <contour>
      <point x="51" y="143" type="line"/>
      <point x="521" y="143" type="line"/>
      <point x="521" y="214" type="line"/>
      <point x="51" y="214" type="line"/>
    </contour>
    <contour>
      <point x="284" y="214" type="curve" smooth="yes"/>
      <point x="249" y="214"/>
      <point x="220" y="243"/>
      <point x="220" y="278" type="curve" smooth="yes"/>
      <point x="220" y="313"/>
      <point x="249" y="342"/>
      <point x="284" y="342" type="curve" smooth="yes"/>
      <point x="319" y="342"/>
      <point x="348" y="313"/>
      <point x="348" y="278" type="curve" smooth="yes"/>
      <point x="348" y="243"/>
      <point x="319" y="214"/>
    </contour>
    <contour>
      <point x="51" y="342" type="line"/>
      <point x="521" y="342" type="line"/>
      <point x="521" y="413" type="line"/>
      <point x="51" y="413" type="line"/>
    </contour>
  </outline>
</glyph>
<glyph name="ringequalto" format="2">
  <advance width="572"/>
  <unicode hex="2257"/>
  <anchor x="286" y="455" name="center"/>
  <outline>
    <contour>
      <point x="287" y="468" type="curve" smooth="yes"/>
      <point x="354" y="468"/>
      <point x="409" y="523"/>
      <point x="409" y="590" type="curve" smooth="yes"/>
      <point x="409" y="657"/>
      <point x="354" y="712"/>
      <point x="287" y="712" type="curve" smooth="yes"/>
      <point x="220" y="712"/>
      <point x="165" y="657"/>
      <point x="165" y="590" type="curve" smooth="yes"/>
      <point x="165" y="523"/>
      <point x="220" y="468"/>
    </contour>
    <contour>
      <point x="51" y="143" type="line"/>
      <point x="521" y="143" type="line"/>
      <point x="521" y="214" type="line"/>
      <point x="51" y="214" type="line"/>
    </contour>
    <contour>
      <point x="51" y="342" type="line"/>
      <point x="521" y="342" type="line"/>
      <point x="521" y="413" type="line"/>
      <point x="51" y="413" type="line"/>
    </contour>
    <contour>
      <point x="287" y="524" type="curve" smooth="yes"/>
      <point x="250" y="524"/>
      <point x="221" y="553"/>
      <point x="221" y="590" type="curve" smooth="yes"/>
      <point x="221" y="627"/>
      <point x="250" y="656"/>
      <point x="287" y="656" type="curve" smooth="yes"/>
      <point x="324" y="656"/>
      <point x="353" y="627"/>
      <point x="353" y="590" type="curve" smooth="yes"/>
      <point x="353" y="553"/>
      <point x="324" y="524"/>
    </contour>
  </outline>
</glyph>
<glyph name="equiangularTo" format="2">
  <advance width="572"/>
  <unicode hex="225A"/>
  <anchor x="286" y="356" name="center"/>
  <outline>
    <contour>
      <point x="249" y="389" type="line"/>
      <point x="323" y="389" type="line"/>
      <point x="468" y="663" type="line"/>
      <point x="389" y="663" type="line"/>
      <point x="286" y="458" type="line"/>
      <point x="183" y="663" type="line"/>
      <point x="104" y="663" type="line"/>
    </contour>
    <contour>
      <point x="51" y="50" type="line"/>
      <point x="521" y="50" type="line"/>
      <point x="521" y="121" type="line"/>
      <point x="51" y="121" type="line"/>
    </contour>
    <contour>
      <point x="51" y="249" type="line"/>
      <point x="521" y="249" type="line"/>
      <point x="521" y="320" type="line"/>
      <point x="51" y="320" type="line"/>
    </contour>
  </outline>
</glyph>
<glyph name="deltaequalto" format="2">
  <advance width="572"/>
  <unicode hex="225C"/>
  <anchor x="286" y="465" name="center"/>
  <outline>
    <contour>
      <point x="138" y="482" type="line"/>
      <point x="434" y="482" type="line"/>
      <point x="445" y="504" type="line"/>
      <point x="297" y="788" type="line"/>
      <point x="275" y="788" type="line"/>
      <point x="127" y="504" type="line"/>
    </contour>
    <contour>
      <point x="209" y="537" type="line"/>
      <point x="286" y="693" type="line"/>
      <point x="363" y="537" type="line"/>
    </contour>
    <contour>
      <point x="51" y="342" type="line"/>
      <point x="521" y="342" type="line"/>
      <point x="521" y="413" type="line"/>
      <point x="51" y="413" type="line"/>
    </contour>
    <contour>
      <point x="51" y="143" type="line"/>
      <point x="521" y="143" type="line"/>
      <point x="521" y="214" type="line"/>
      <point x="51" y="214" type="line"/>
    </contour>
  </outline>
</glyph>
<glyph name="equaltobydefinition" format="2">
  <advance width="572"/>
  <unicode hex="225D"/>
  <anchor x="286" y="440" name="center"/>
  <outline>
    <contour>
      <point x="124" y="476" type="curve" smooth="yes"/>
      <point x="144" y="476"/>
      <point x="159" y="484"/>
      <point x="169" y="499" type="curve"/>
      <point x="174" y="481" type="line"/>
      <point x="210" y="481" type="line"/>
      <point x="210" y="732" type="line"/>
      <point x="167" y="732" type="line"/>
      <point x="167" y="648" type="line"/>
      <point x="160" y="658"/>
      <point x="144" y="666"/>
      <point x="127" y="666" type="curve" smooth="yes"/>
      <point x="82" y="666"/>
      <point x="51" y="634"/>
      <point x="51" y="571" type="curve" smooth="yes"/>
      <point x="51" y="513"/>
      <point x="79" y="476"/>
    </contour>
    <contour>
      <point x="131" y="512" type="curve" smooth="yes"/>
      <point x="107" y="512"/>
      <point x="95" y="531"/>
      <point x="95" y="571" type="curve" smooth="yes"/>
      <point x="95" y="611"/>
      <point x="108" y="631"/>
      <point x="133" y="631" type="curve" smooth="yes"/>
      <point x="158" y="631"/>
      <point x="167" y="610"/>
      <point x="167" y="571" type="curve" smooth="yes"/>
      <point x="167" y="531"/>
      <point x="155" y="512"/>
    </contour>
    <contour>
      <point x="321" y="476" type="curve" smooth="yes"/>
      <point x="339" y="476"/>
      <point x="358" y="481"/>
      <point x="377" y="491" type="curve"/>
      <point x="377" y="529" type="line"/>
      <point x="356" y="516"/>
      <point x="337" y="510"/>
      <point x="321" y="510" type="curve" smooth="yes"/>
      <point x="293" y="510"/>
      <point x="278" y="526"/>
      <point x="276" y="557" type="curve"/>
      <point x="384" y="557" type="line"/>
      <point x="384" y="582" type="line" smooth="yes"/>
      <point x="384" y="634"/>
      <point x="356" y="666"/>
      <point x="310" y="666" type="curve" smooth="yes"/>
      <point x="263" y="666"/>
      <point x="232" y="630"/>
      <point x="232" y="569" type="curve" smooth="yes"/>
      <point x="232" y="506"/>
      <point x="265" y="476"/>
    </contour>
    <contour>
      <point x="276" y="592" type="line"/>
      <point x="278" y="613"/>
      <point x="292" y="629"/>
      <point x="309" y="629" type="curve" smooth="yes"/>
      <point x="328" y="629"/>
      <point x="339" y="611"/>
      <point x="341" y="592" type="curve"/>
    </contour>
    <contour>
      <point x="422" y="481" type="line"/>
      <point x="465" y="481" type="line"/>
      <point x="465" y="624" type="line"/>
      <point x="503" y="624" type="line"/>
      <point x="503" y="661" type="line"/>
      <point x="465" y="661" type="line"/>
      <point x="465" y="673" type="line" smooth="yes"/>
      <point x="465" y="696"/>
      <point x="473" y="701"/>
      <point x="485" y="701" type="curve" smooth="yes"/>
      <point x="495" y="701"/>
      <point x="504" y="699"/>
      <point x="511" y="696" type="curve"/>
      <point x="521" y="730" type="line"/>
      <point x="508" y="736"/>
      <point x="494" y="738"/>
      <point x="479" y="738" type="curve" smooth="yes"/>
      <point x="441" y="738"/>
      <point x="422" y="717"/>
      <point x="422" y="673" type="curve" smooth="yes"/>
      <point x="422" y="661" type="line"/>
      <point x="392" y="651" type="line"/>
      <point x="392" y="624" type="line"/>
      <point x="422" y="624" type="line"/>
    </contour>
    <component base="equal"/>
  </outline>
</glyph>
<glyph name="measuredby" format="2">
  <advance width="572"/>
  <unicode hex="225E"/>
  <anchor x="286" y="404" name="center"/>
  <outline>
    <contour>
      <point x="160" y="482" type="line"/>
      <point x="204" y="482" type="line"/>
      <point x="204" y="571" type="line" smooth="yes"/>
      <point x="204" y="609"/>
      <point x="215" y="628"/>
      <point x="238" y="628" type="curve" smooth="yes"/>
      <point x="256" y="628"/>
      <point x="265" y="617"/>
      <point x="265" y="594" type="curve" smooth="yes"/>
      <point x="265" y="482" type="line"/>
      <point x="309" y="482" type="line"/>
      <point x="309" y="578" type="line" smooth="yes"/>
      <point x="309" y="612"/>
      <point x="320" y="628"/>
      <point x="341" y="628" type="curve" smooth="yes"/>
      <point x="359" y="628"/>
      <point x="368" y="617"/>
      <point x="368" y="594" type="curve" smooth="yes"/>
      <point x="368" y="482" type="line"/>
      <point x="412" y="482" type="line"/>
      <point x="412" y="596" type="line" smooth="yes"/>
      <point x="412" y="643"/>
      <point x="391" y="666"/>
      <point x="348" y="666" type="curve" smooth="yes"/>
      <point x="327" y="666"/>
      <point x="310" y="657"/>
      <point x="297" y="639" type="curve"/>
      <point x="288" y="657"/>
      <point x="272" y="666"/>
      <point x="250" y="666" type="curve" smooth="yes"/>
      <point x="229" y="666"/>
      <point x="213" y="658"/>
      <point x="201" y="641" type="curve"/>
      <point x="197" y="661" type="line"/>
      <point x="160" y="661" type="line"/>
    </contour>
    <component base="equal"/>
  </outline>
</glyph>
<glyph name="notequal" format="2">
  <advance width="572"/>
  <unicode hex="2260"/>
  <anchor x="286" y="278" name="center"/>
  <outline>
    <contour>
      <point x="216" y="8" type="line"/>
      <point x="417" y="524" type="line"/>
      <point x="356" y="548" type="line"/>
      <point x="155" y="32" type="line"/>
    </contour>
    <contour>
      <point x="51" y="342" type="line"/>
      <point x="521" y="342" type="line"/>
      <point x="521" y="413" type="line"/>
      <point x="51" y="413" type="line"/>
    </contour>
    <contour>
      <point x="51" y="143" type="line"/>
      <point x="521" y="143" type="line"/>
      <point x="521" y="214" type="line"/>
      <point x="51" y="214" type="line"/>
    </contour>
  </outline>
</glyph>
<glyph name="equivalence" format="2">
  <advance width="572"/>
  <unicode hex="2261"/>
  <anchor x="286" y="278" name="center"/>
  <outline>
    <contour>
      <point x="51" y="417" type="line"/>
      <point x="521" y="417" type="line"/>
      <point x="521" y="488" type="line"/>
      <point x="51" y="488" type="line"/>
    </contour>
    <contour>
      <point x="51" y="69" type="line"/>
      <point x="521" y="69" type="line"/>
      <point x="521" y="140" type="line"/>
      <point x="51" y="140" type="line"/>
    </contour>
    <contour>
      <point x="51" y="243" type="line"/>
      <point x="521" y="243" type="line"/>
      <point x="521" y="314" type="line"/>
      <point x="51" y="314" type="line"/>
    </contour>
  </outline>
</glyph>
<glyph name="notidentical" format="2">
  <advance width="572"/>
  <unicode hex="2262"/>
  <anchor x="286" y="277" name="center"/>
  <outline>
    <contour>
      <point x="200" y="-35" type="line"/>
      <point x="434" y="566" type="line"/>
      <point x="372" y="590" type="line"/>
      <point x="138" y="-11" type="line"/>
    </contour>
    <contour>
      <point x="51" y="68" type="line"/>
      <point x="521" y="68" type="line"/>
      <point x="521" y="139" type="line"/>
      <point x="51" y="139" type="line"/>
    </contour>
    <contour>
      <point x="51" y="242" type="line"/>
      <point x="521" y="242" type="line"/>
      <point x="521" y="313" type="line"/>
      <point x="51" y="313" type="line"/>
    </contour>
    <contour>
      <point x="51" y="416" type="line"/>
      <point x="521" y="416" type="line"/>
      <point x="521" y="487" type="line"/>
      <point x="51" y="487" type="line"/>
    </contour>
  </outline>
</glyph>
<glyph name="strictlyequivalentto" format="2">
  <advance width="572"/>
  <unicode hex="2263"/>
  <anchor x="286" y="278" name="center"/>
  <outline>
    <contour>
      <point x="51" y="504" type="line"/>
      <point x="521" y="504" type="line"/>
      <point x="521" y="575" type="line"/>
      <point x="51" y="575" type="line"/>
    </contour>
    <contour>
      <point x="51" y="-18" type="line"/>
      <point x="521" y="-18" type="line"/>
      <point x="521" y="53" type="line"/>
      <point x="51" y="53" type="line"/>
    </contour>
    <contour>
      <point x="51" y="156" type="line"/>
      <point x="521" y="156" type="line"/>
      <point x="521" y="227" type="line"/>
      <point x="51" y="227" type="line"/>
    </contour>
    <contour>
      <point x="51" y="330" type="line"/>
      <point x="521" y="330" type="line"/>
      <point x="521" y="401" type="line"/>
      <point x="51" y="401" type="line"/>
    </contour>
  </outline>
</glyph>
<glyph name="greateroverequal" format="2">
  <advance width="572"/>
  <unicode hex="2267"/>
  <anchor x="286" y="279" name="center"/>
  <outline>
    <contour>
      <point x="51" y="216" type="line"/>
      <point x="521" y="385" type="line"/>
      <point x="521" y="435" type="line"/>
      <point x="51" y="605" type="line"/>
      <point x="51" y="532" type="line"/>
      <point x="413" y="410" type="line"/>
      <point x="51" y="289" type="line"/>
    </contour>
    <contour>
      <point x="51" y="-46" type="line"/>
      <point x="521" y="-46" type="line"/>
      <point x="521" y="25" type="line"/>
      <point x="51" y="25" type="line"/>
    </contour>
    <contour>
      <point x="51" y="114" type="line"/>
      <point x="521" y="114" type="line"/>
      <point x="521" y="185" type="line"/>
      <point x="51" y="185" type="line"/>
    </contour>
  </outline>
</glyph>
<glyph name="lessthanbutnotequalto" format="2">
  <advance width="572"/>
  <unicode hex="2268"/>
  <anchor x="286" y="228" name="center"/>
  <outline>
    <contour>
      <point x="521" y="215" type="line"/>
      <point x="521" y="288" type="line"/>
      <point x="159" y="409" type="line"/>
      <point x="521" y="531" type="line"/>
      <point x="521" y="604" type="line"/>
      <point x="51" y="434" type="line"/>
      <point x="51" y="384" type="line"/>
    </contour>
    <contour>
      <point x="52" y="-47" type="line"/>
      <point x="521" y="-47" type="line"/>
      <point x="521" y="24" type="line"/>
      <point x="52" y="24" type="line"/>
    </contour>
    <contour>
      <point x="216" y="-148" type="line"/>
      <point x="387" y="217" type="line"/>
      <point x="330" y="247" type="line"/>
      <point x="158" y="-120" type="line"/>
    </contour>
    <contour>
      <point x="52" y="113" type="line"/>
      <point x="521" y="113" type="line"/>
      <point x="521" y="184" type="line"/>
      <point x="52" y="184" type="line"/>
    </contour>
  </outline>
</glyph>
<glyph name="greaterthanbutnotequalto" format="2">
  <advance width="572"/>
  <unicode hex="2269"/>
  <anchor x="286" y="229" name="center"/>
  <outline>
    <contour>
      <point x="215" y="-147" type="line"/>
      <point x="386" y="218" type="line"/>
      <point x="329" y="248" type="line"/>
      <point x="157" y="-119" type="line"/>
    </contour>
    <component base="greateroverequal"/>
  </outline>
</glyph>
<glyph name="greaterorequivalent" format="2">
  <advance width="572"/>
  <unicode hex="2273"/>
  <anchor x="286" y="278" name="center"/>
  <outline>
    <contour>
      <point x="51" y="172" type="line"/>
      <point x="521" y="341" type="line"/>
      <point x="521" y="391" type="line"/>
      <point x="51" y="561" type="line"/>
      <point x="51" y="488" type="line"/>
      <point x="413" y="366" type="line"/>
      <point x="51" y="245" type="line"/>
    </contour>
    <contour>
      <point x="51" y="-4" type="line"/>
      <point x="90" y="35"/>
      <point x="131" y="55"/>
      <point x="164" y="55" type="curve" smooth="yes"/>
      <point x="193" y="55"/>
      <point x="230" y="45"/>
      <point x="276" y="26" type="curve" smooth="yes"/>
      <point x="323" y="7"/>
      <point x="363" y="-4"/>
      <point x="401" y="-4" type="curve" smooth="yes"/>
      <point x="447" y="-4"/>
      <point x="487" y="14"/>
      <point x="521" y="50" type="curve"/>
      <point x="521" y="127" type="line"/>
      <point x="486" y="90"/>
      <point x="441" y="68"/>
      <point x="406" y="68" type="curve" smooth="yes"/>
      <point x="377" y="68"/>
      <point x="341" y="79"/>
      <point x="295" y="98" type="curve" smooth="yes"/>
      <point x="250" y="117"/>
      <point x="208" y="127"/>
      <point x="170" y="127" type="curve" smooth="yes"/>
      <point x="124" y="127"/>
      <point x="83" y="110"/>
      <point x="51" y="74" type="curve"/>
    </contour>
  </outline>
</glyph>
<glyph name="lessorgreater" format="2">
  <advance width="572"/>
  <unicode hex="2276"/>
  <anchor x="286" y="279" name="center"/>
  <outline>
    <contour>
      <point x="521" y="240" type="line"/>
      <point x="521" y="313" type="line"/>
      <point x="159" y="434" type="line"/>
      <point x="521" y="556" type="line"/>
      <point x="521" y="629" type="line"/>
      <point x="51" y="459" type="line"/>
      <point x="51" y="409" type="line"/>
    </contour>
    <contour>
      <point x="51" y="-71" type="line"/>
      <point x="521" y="98" type="line"/>
      <point x="521" y="148" type="line"/>
      <point x="51" y="318" type="line"/>
      <point x="51" y="245" type="line"/>
      <point x="413" y="123" type="line"/>
      <point x="51" y="2" type="line"/>
    </contour>
  </outline>
</glyph>
<glyph name="succeeds" format="2">
  <advance width="542"/>
  <unicode hex="227B"/>
  <anchor x="271" y="275" name="center"/>
  <outline>
    <contour>
      <point x="51" y="15" type="line"/>
      <point x="166" y="122"/>
      <point x="349" y="218"/>
      <point x="491" y="252" type="curve"/>
      <point x="491" y="298" type="line"/>
      <point x="356" y="329"/>
      <point x="166" y="427"/>
      <point x="51" y="535" type="curve"/>
      <point x="51" y="449" type="line"/>
      <point x="101" y="401"/>
      <point x="247" y="310"/>
      <point x="350" y="277" type="curve"/>
      <point x="350" y="273" type="line"/>
      <point x="253" y="244"/>
      <point x="100" y="148"/>
      <point x="51" y="101" type="curve"/>
    </contour>
  </outline>
</glyph>
<glyph name="succeedsorequalto" format="2">
  <advance width="542"/>
  <unicode hex="227D"/>
  <anchor x="271" y="278" name="center"/>
  <outline>
    <contour>
      <point x="51" y="163" type="line"/>
      <point x="152" y="266"/>
      <point x="331" y="341"/>
      <point x="491" y="370" type="curve"/>
      <point x="491" y="416" type="line"/>
      <point x="285" y="459"/>
      <point x="138" y="527"/>
      <point x="51" y="618" type="curve"/>
      <point x="51" y="537" type="line"/>
      <point x="105" y="475"/>
      <point x="230" y="414"/>
      <point x="330" y="396" type="curve"/>
      <point x="330" y="392" type="line"/>
      <point x="230" y="369"/>
      <point x="125" y="317"/>
      <point x="51" y="251" type="curve"/>
    </contour>
    <contour>
      <point x="51" y="-62" type="line"/>
      <point x="126" y="40"/>
      <point x="346" y="164"/>
      <point x="491" y="187" type="curve"/>
      <point x="491" y="258" type="line"/>
      <point x="331" y="227"/>
      <point x="150" y="133"/>
      <point x="51" y="30" type="curve"/>
    </contour>
  </outline>
</glyph>
